<svg width="51" height="50" viewBox="0 0 51 50" fill="none" xmlns="http://www.w3.org/2000/svg">
<mask id="mask0_9_466" style="mask-type:alpha" maskUnits="userSpaceOnUse" x="0" y="0" width="51" height="50">
<rect x="0.5" width="50" height="50" fill="#D9D9D9"/>
</mask>
<g mask="url(#mask0_9_466)">
<path d="M25.5 33.3333L33.8333 25L30.9167 22.0833L27.5833 25.4167V16.6667H23.4167V25.4167L20.0833 22.0833L17.1667 25L25.5 33.3333ZM25.5 45.8333C22.618 45.8333 19.9097 45.2864 17.375 44.1927C14.8403 43.0989 12.6354 41.6146 10.7604 39.7396C8.88541 37.8646 7.40103 35.6597 6.30728 33.125C5.21353 30.5903 4.66666 27.8819 4.66666 25C4.66666 22.118 5.21353 19.4097 6.30728 16.875C7.40103 14.3403 8.88541 12.1354 10.7604 10.2604C12.6354 8.38541 14.8403 6.90103 17.375 5.80728C19.9097 4.71353 22.618 4.16666 25.5 4.16666C28.3819 4.16666 31.0903 4.71353 33.625 5.80728C36.1597 6.90103 38.3646 8.38541 40.2396 10.2604C42.1146 12.1354 43.5989 14.3403 44.6927 16.875C45.7864 19.4097 46.3333 22.118 46.3333 25C46.3333 27.8819 45.7864 30.5903 44.6927 33.125C43.5989 35.6597 42.1146 37.8646 40.2396 39.7396C38.3646 41.6146 36.1597 43.0989 33.625 44.1927C31.0903 45.2864 28.3819 45.8333 25.5 45.8333ZM25.5 41.6667C30.1528 41.6667 34.0937 40.0521 37.3229 36.8229C40.5521 33.5937 42.1667 29.6528 42.1667 25C42.1667 20.3472 40.5521 16.4062 37.3229 13.1771C34.0937 9.94791 30.1528 8.33332 25.5 8.33332C20.8472 8.33332 16.9062 9.94791 13.6771 13.1771C10.4479 16.4062 8.83332 20.3472 8.83332 25C8.83332 29.6528 10.4479 33.5937 13.6771 36.8229C16.9062 40.0521 20.8472 41.6667 25.5 41.6667Z" fill="white"/>
</g>
</svg>
