<svg width="75" height="75" viewBox="0 0 75 75" fill="none" xmlns="http://www.w3.org/2000/svg">
<g id="Icon_contracts">
<path id="Vector" d="M62.6415 23.6821C63.4721 22.8267 64.2832 21.9934 65.1027 21.1906C65.7738 20.4836 66.6298 19.9792 67.5733 19.7345C68.5168 19.4898 69.5101 19.5147 70.4402 19.8064C71.402 20.0375 72.2765 20.5422 72.9578 21.2594C73.6392 21.9766 74.0984 22.8758 74.28 23.8482C74.5077 24.7563 74.4889 25.7086 74.2256 26.607C73.9623 27.5054 73.4641 28.3172 72.7822 28.9587C69.5958 32.1507 66.4149 35.3482 63.2091 38.5181C62.974 38.7291 62.7884 38.9893 62.6654 39.2802C62.5425 39.5712 62.4851 39.8856 62.4976 40.2013C62.5225 48.0802 62.4976 55.9591 62.5142 63.838C62.5142 64.8069 62.5142 64.8069 63.497 64.8097C64.2915 64.8097 65.0833 64.8097 65.8778 64.8097C66.808 64.8263 67.2426 65.2609 67.262 66.1717C67.3728 70.3797 63.616 74.3939 59.3997 74.4078C46.4177 74.4465 33.4357 74.4465 20.4537 74.4078C16.2817 74.4078 12.4724 70.4656 12.4558 66.2327C12.4281 58.7247 12.4558 51.2195 12.4558 43.7116V24.3881C12.4558 23.2807 12.4557 23.2807 11.3096 23.2807C8.98139 23.2807 6.65315 23.2807 4.32215 23.2807C2.03821 23.2807 0.565409 21.7968 0.56264 19.5018C0.56264 15.5873 0.56264 11.6728 0.56264 7.75822C0.550063 6.81352 0.726356 5.87583 1.08116 5.0002C1.43596 4.12458 1.96214 3.32866 2.62878 2.65918C3.29542 1.9897 4.08909 1.46016 4.96321 1.10164C5.83732 0.743119 6.77424 0.56285 7.71898 0.571416C23.6004 0.560342 39.4819 0.560342 55.3634 0.571416C56.3018 0.564072 57.2323 0.743161 58.1009 1.09829C58.9695 1.45342 59.7589 1.97752 60.4234 2.64017C61.0879 3.30282 61.6141 4.09084 61.9716 4.95849C62.3291 5.82614 62.5107 6.75615 62.5059 7.69454C62.5225 12.7248 62.5059 17.755 62.5059 22.7824C62.4606 23.0891 62.5078 23.4024 62.6415 23.6821ZM52.2628 33.9751H35.3754C34.3871 33.9751 33.8999 33.5792 33.886 32.721C33.8602 31.1338 33.8602 29.5484 33.886 27.9649C33.886 27.2146 34.3567 26.7883 35.1069 26.7412C35.3533 26.7246 35.5997 26.7412 35.8488 26.7412H58.8267C59.7624 26.7412 60.0475 26.5281 60.0503 25.7557C60.0503 19.8119 60.0697 13.8653 60.0503 7.91879C60.0503 6.11655 59.2807 4.65483 57.6888 3.71356C56.767 3.15988 55.7316 3.05468 54.6796 3.05745H14.2829C14.1334 3.05745 13.9839 3.05745 13.8372 3.05745C13.3832 3.03807 13.3029 3.17096 13.5825 3.553C14.5985 4.9372 14.9473 6.52074 14.9446 8.23992C14.9242 27.1426 14.9187 46.0463 14.9279 64.9509C14.9282 65.6198 14.9772 66.2878 15.0747 66.9497C15.5148 69.9396 18.5573 72.1903 21.5168 71.8664C22.8618 71.6808 24.1044 71.0454 25.0424 70.0637C25.9804 69.082 26.5585 67.8117 26.6826 66.4596C26.8072 64.9785 27.0868 64.7986 28.5679 64.7986C38.7501 64.7986 48.9324 64.7986 59.1146 64.7986C59.8205 64.7986 60.0475 64.6187 60.0448 63.8878C60.0199 56.7536 60.0309 49.6194 60.0254 42.4824C60.0254 42.2831 60.1278 42.045 59.7873 41.7654C59.6583 41.9765 59.512 42.1765 59.3499 42.3634C55.2711 46.4496 51.1905 50.533 47.108 54.6136C46.7939 54.9571 46.4183 55.2388 46.0006 55.4441C42.6785 56.9206 39.3509 58.3971 36.0177 59.8736C35.3921 60.1504 34.7775 60.3027 34.2321 59.749C33.6867 59.1953 33.8528 58.5835 34.1324 57.9606C35.536 54.8185 36.9451 51.6763 38.3183 48.5203C38.6251 47.8185 39.064 47.1822 39.6111 46.6461C43.6327 42.6467 47.6469 38.6371 51.6537 34.6174C51.8115 34.4651 51.9859 34.2852 52.2628 33.9751ZM45.7432 52.2466C46.0366 52.2134 46.1584 52.0085 46.3134 51.8563C47.4208 50.7489 48.5282 49.6462 49.6355 48.548C54.698 43.4855 59.7661 38.4258 64.8397 33.3688C65.3574 32.8539 65.3407 32.5687 64.8231 32.0898C63.8237 31.1679 62.8436 30.2128 61.9384 29.1968C61.4041 28.6016 61.1078 28.7096 60.604 29.2245C58.6523 31.2344 56.6562 33.1972 54.6741 35.1766C50.5408 39.3126 46.4159 43.4569 42.2577 47.568C41.74 48.0829 41.7594 48.3681 42.2743 48.847C43.3263 49.8243 44.3174 50.8679 45.3362 51.8923C45.4635 52.0168 45.6186 52.1359 45.7459 52.2439L45.7432 52.2466ZM26.8487 71.9356H34.2847C42.3352 71.9356 50.3858 71.9356 58.4363 71.9356C61.2047 71.9356 63.3503 70.5901 64.3054 68.284C64.6929 67.3511 64.6514 67.2846 63.6742 67.2846H30.157C30.0075 67.2846 29.858 67.2846 29.7113 67.2846C29.632 67.27 29.5506 67.2723 29.4723 67.2916C29.3941 67.3108 29.3208 67.3465 29.2575 67.3963C29.1941 67.4461 29.142 67.5087 29.1048 67.5802C29.0675 67.6516 29.0459 67.7302 29.0413 67.8106C28.7312 69.325 28.0059 70.6317 26.8487 71.9356ZM12.453 13.9567C12.453 12.1462 12.453 10.3384 12.453 8.5306C12.4559 7.98609 12.4114 7.44236 12.3201 6.90555C12.1117 5.72224 11.4491 4.66727 10.4735 3.96588C9.49799 3.26449 8.28691 2.97226 7.09886 3.15158C4.60729 3.54746 3.05976 5.39399 3.04314 8.05444C3.02377 11.7696 3.04314 15.4849 3.04314 19.2001C3.04314 20.349 3.47779 20.7781 4.61837 20.7836C6.97152 20.7836 9.32468 20.767 11.6778 20.8002C12.3201 20.8002 12.4724 20.5677 12.464 19.9697C12.4308 17.9681 12.4502 15.961 12.4502 13.9567H12.453ZM56.9469 29.3989L56.839 29.219H56.025C49.953 29.219 43.8828 29.219 37.8144 29.219C36.1534 29.219 36.3831 28.9615 36.3333 30.7444C36.3167 31.3479 36.5409 31.5001 37.1112 31.5001C42.8105 31.4835 48.5097 31.4835 54.209 31.5001C54.3434 31.5215 54.4808 31.5151 54.6127 31.4813C54.7446 31.4475 54.8682 31.387 54.9758 31.3036L56.9469 29.3989ZM71.8963 25.1688C71.8105 23.8842 71.3233 22.954 70.2353 22.428C69.7351 22.1729 69.1712 22.0695 68.613 22.1305C68.0547 22.1915 67.5265 22.4142 67.0932 22.7713C66.7083 23.0482 66.6502 23.2862 67.0267 23.6461C67.9901 24.5708 68.9231 25.5314 69.8671 26.4755C70.8111 27.4195 71.2735 27.3364 71.7109 26.0021C71.7949 25.7282 71.8642 25.45 71.9185 25.1688H71.8963ZM68.8732 29.0944C68.7625 28.967 68.6407 28.8175 68.5023 28.6763C67.7188 27.8874 66.9326 27.1039 66.1464 26.3177C64.7926 24.9639 64.8037 24.975 63.4776 26.337C63.1426 26.6803 63.1177 26.8907 63.4776 27.234C64.3081 28.0313 65.1386 28.8674 65.9443 29.6868C67.2316 30.9714 67.2316 30.9741 68.5023 29.6619C68.6601 29.5069 68.8732 29.3851 68.8732 29.0944ZM43.4537 53.6502C43.4161 53.581 43.3726 53.5152 43.3236 53.4536C42.3989 52.5262 41.477 51.6016 40.5551 50.6852C40.5384 50.6595 40.5166 50.6373 40.4912 50.62C40.4658 50.6027 40.4372 50.5906 40.4071 50.5844C40.3769 50.5782 40.3459 50.5781 40.3157 50.584C40.2855 50.5899 40.2568 50.6017 40.2312 50.6188C39.7911 50.8956 39.6333 52.1248 40.007 52.5041C40.4721 52.9802 40.9455 53.4481 41.4189 53.9187C41.553 54.0719 41.7227 54.1898 41.9131 54.2619C42.1035 54.334 42.3086 54.3581 42.5106 54.3321C42.7125 54.3061 42.9049 54.2308 43.0708 54.1128C43.2367 53.9949 43.3711 53.8379 43.462 53.6557L43.4537 53.6502Z" fill="white"/>
<path id="Vector_2" d="M37.5184 5.32481C41.8759 5.32481 46.2362 5.32481 50.5936 5.32481C51.2336 5.31871 51.8684 5.44042 52.4607 5.68281C53.0531 5.92521 53.591 6.2834 54.0431 6.73641C54.4953 7.18941 54.8524 7.72811 55.0936 8.32092C55.3348 8.91373 55.4553 9.54874 55.4479 10.1887C55.4405 10.8287 55.3055 11.4607 55.0507 12.0478C54.7959 12.6349 54.4264 13.1653 53.964 13.6077C53.5016 14.0502 52.9555 14.3959 52.3577 14.6246C51.76 14.8533 51.1226 14.9603 50.4829 14.9395C41.8085 14.9395 33.1406 14.9395 24.4792 14.9395C21.6803 14.9395 19.5929 12.8798 19.5874 10.1502C19.5874 7.38174 21.6665 5.32758 24.5152 5.32204C28.8505 5.31835 33.1849 5.31927 37.5184 5.32481ZM37.4797 7.81638H27.004C26.1735 7.81638 25.318 7.78593 24.4764 7.81638C22.7046 7.90497 21.6111 9.50234 22.2977 11.0222C22.7849 12.0963 23.7096 12.4645 24.8474 12.4618C33.2689 12.4618 41.6895 12.4618 50.1092 12.4618C50.5064 12.4698 50.9025 12.4157 51.283 12.3012C51.6426 12.1833 51.9671 11.9775 52.2271 11.7024C52.487 11.4274 52.6742 11.0917 52.7715 10.726C52.8689 10.3602 52.8733 9.97599 52.7845 9.60809C52.6957 9.24019 52.5165 8.90028 52.263 8.61922C51.6816 7.97418 50.9425 7.80531 50.1175 7.80531C45.9039 7.81084 41.6913 7.81177 37.4797 7.80807V7.81638Z" fill="white"/>
<path id="Vector_3" d="M31.6546 21.3345C32.809 20.1745 33.8914 19.1198 34.9268 18.029C35.3393 17.5916 35.5996 17.6304 36.0037 18.029C37.2412 19.2803 37.2578 19.2637 36.0037 20.5206C34.6915 21.8356 33.3876 23.1561 32.0588 24.4545C31.8956 24.6024 31.7673 24.7846 31.683 24.9881C31.5988 25.1915 31.5607 25.4111 31.5715 25.6311C31.5909 27.8846 31.5715 30.1381 31.5715 32.3916C31.5715 33.5681 31.1784 33.9695 30.0267 33.9723H18.7482C17.5993 33.9723 17.209 33.5654 17.209 32.386C17.209 28.6708 17.209 24.9565 17.209 21.2432C17.209 19.9697 17.5744 19.5987 18.834 19.5821C22.4994 19.5821 26.1639 19.5821 29.8274 19.5821C31.1839 19.5987 31.4718 19.8534 31.6546 21.3345ZM29.0993 27.5939C28.9664 27.6382 28.9083 27.641 28.8806 27.6714C28.1747 28.3663 27.477 29.0556 26.7711 29.7616C25.8769 30.6447 25.3066 30.653 24.4345 29.792C23.7314 29.0971 23.0337 28.4078 22.3333 27.6936C21.0266 26.3896 21.0405 26.4035 22.3776 25.1051C22.7624 24.7314 23.006 24.7673 23.3466 25.1328C23.9196 25.7474 24.5508 26.3066 25.1156 26.9295C25.4755 27.3226 25.7219 27.2866 26.0707 26.9295C26.8016 26.1229 27.5741 25.355 28.3851 24.6289C29.0052 24.0946 29.1492 23.4856 29.1159 22.7298C29.0938 22.2398 28.9194 22.0875 28.4487 22.0903C25.7523 22.105 23.0549 22.105 20.3567 22.0903C19.8971 22.0903 19.6812 22.2149 19.6839 22.7187C19.7006 25.441 19.7006 28.1633 19.6839 30.8855C19.6839 31.3202 19.8224 31.514 20.2819 31.5112C23.0282 31.5001 25.7754 31.5001 28.5235 31.5112C28.9277 31.5112 29.1076 31.3645 29.1021 30.9575C29.091 29.8418 29.0993 28.7539 29.0993 27.5939Z" fill="white"/>
<path id="Vector_4" d="M31.6464 40.3618C32.8009 39.2073 33.8833 38.147 34.9215 37.0701C35.3256 36.6465 35.5831 36.6465 35.9984 37.0701C37.2414 38.327 37.258 38.3104 36.015 39.5617C34.7221 40.8573 33.4376 42.164 32.1226 43.4375C31.9392 43.5994 31.7943 43.8003 31.6985 44.0254C31.6027 44.2505 31.5584 44.4942 31.5689 44.7386C31.5966 46.9921 31.5855 49.2456 31.5689 51.4991C31.5689 52.6065 31.1592 53.0134 30.0352 53.0134C26.2702 53.0134 22.506 53.0134 18.7428 53.0134C17.5884 53.0134 17.1953 52.612 17.1953 51.4382C17.1953 47.699 17.1953 43.9598 17.1953 40.2206C17.1953 39.0135 17.5801 38.6398 18.8121 38.6398H29.8857C31.1813 38.6315 31.4997 38.9139 31.6464 40.3618ZM29.0967 46.4329C28.1748 47.3686 27.4135 48.1631 26.6273 48.9245C25.9075 49.6276 25.2735 49.6276 24.5565 48.9245C23.8395 48.2213 23.0837 47.4572 22.3418 46.7097C20.9963 45.3698 21.0074 45.3781 22.4082 44.0714C22.7321 43.7697 22.9619 43.7365 23.2664 44.0714C23.845 44.6833 24.4762 45.2452 25.041 45.8681C25.423 46.2945 25.6888 46.3388 26.1013 45.8903C26.8073 45.0934 27.5617 44.3408 28.3603 43.6368C29.0054 43.0831 29.1659 42.4574 29.105 41.6712C29.0718 41.2753 28.9611 41.0843 28.5513 41.0871C25.7829 41.0871 23.0145 41.0871 20.2461 41.0871C19.8751 41.0871 19.7063 41.2338 19.7063 41.6159C19.7063 44.4119 19.7063 47.208 19.7063 50.0041C19.7063 50.3447 19.8585 50.4997 20.2018 50.4969C22.9979 50.4969 25.794 50.4969 28.5901 50.4969C28.9112 50.4969 29.1133 50.389 29.1133 50.0291C29.0967 48.9272 29.0967 47.7977 29.0967 46.4301V46.4329Z" fill="white"/>
<path id="Vector_5" d="M52.9467 62.523C51.5874 62.523 50.2254 62.5064 48.8633 62.523C48.3096 62.523 48.1158 62.3486 48.1269 61.7977C48.1712 59.6992 47.8971 60.0564 49.8239 60.037C52.1992 60.0148 54.5745 60.037 56.9498 60.037C57.5561 60.037 57.7804 60.2197 57.7638 60.8398C57.7139 62.8165 57.9769 62.5009 56.1387 62.5258C55.0756 62.5369 54.0126 62.523 52.9467 62.523Z" fill="white"/>
</g>
</svg>
