<svg width="1919" height="1093" viewBox="0 0 1919 1093" fill="none" xmlns="http://www.w3.org/2000/svg">
<g clip-path="url(#clip0_26_29)">
<rect x="-24.8078" width="2003.01" height="990.977" transform="rotate(3 -24.8078 0)" fill="url(#paint0_linear_26_29)"/>
<rect x="-402.106" y="360.554" width="500.053" height="500.053" transform="rotate(-61.2763 -402.106 360.554)" fill="#0089FF" fill-opacity="0.15"/>
<rect x="-503.156" y="401.969" width="497.053" height="497.053" transform="rotate(-61.2763 -503.156 401.969)" stroke="white" stroke-width="3"/>
<rect x="1775.48" y="299.901" width="210.054" height="210.054" transform="rotate(-61.2763 1775.48 299.901)" fill="#0089FF" fill-opacity="0.5"/>
<rect x="1734.22" y="316.953" width="207.054" height="207.054" transform="rotate(-61.2763 1734.22 316.953)" stroke="white" stroke-width="3"/>
<rect x="405.838" y="908.751" width="159.789" height="159.789" transform="rotate(-61.2763 405.838 908.751)" fill="#0089FF" fill-opacity="0.15"/>
<rect x="374.934" y="921.58" width="156.789" height="156.789" transform="rotate(-61.2763 374.934 921.58)" stroke="white" stroke-width="3"/>
<path d="M2024.08 724.745L1950.09 780.914L1879.72 681.684L1566.71 898.913L1634.47 999.991L1565.75 1052.5L1439.79 874.909L1899.21 554.23L2024.08 724.745Z" fill="white" fill-opacity="0.15"/>
<path d="M2048.06 1162.51L2240.77 1030.27L2044.47 753.458L1966.77 804.432L1957.71 857.441L2018.65 877.535L2116.47 1004.42L2000.65 1090.17L2048.06 1162.51Z" fill="white" fill-opacity="0.15"/>
<path d="M1974.52 1108.64L1803.47 1221.65L1653.77 1021.66L1580.55 1073.37L1780.59 1355.41L2026.36 1181.76L1974.52 1108.64Z" fill="white" fill-opacity="0.15"/>
<path d="M1606.15 910.251L1875.92 717.517L1944.01 816.485L1929.64 873.794L1995.13 894.049L2073.68 999.27L1974.22 1071.59L1807.58 1183.61L1606.15 910.251ZM1942.49 1013.67L1896.04 944.276L1800.15 1012.42L1847.04 1079.23L1942.49 1013.67ZM1853.57 888.339L1816.95 827.999L1718.56 897.459L1759.61 954.868L1853.57 888.339Z" fill="white" fill-opacity="0.15"/>
</g>
<defs>
<linearGradient id="paint0_linear_26_29" x1="16.9216" y1="1157.25" x2="2215.34" y2="578.44" gradientUnits="userSpaceOnUse">
<stop stop-color="#1D24B3"/>
<stop offset="0.5" stop-color="#1455CB"/>
<stop offset="1" stop-color="#0089FF"/>
</linearGradient>
<clipPath id="clip0_26_29">
<rect width="1919" height="1093" fill="white"/>
</clipPath>
</defs>
</svg>
