<svg width="85" height="61" viewBox="0 0 85 61" fill="none" xmlns="http://www.w3.org/2000/svg">
<path d="M0.119141 52.1575C0.621307 51.6099 1.25526 51.4372 1.98011 51.4554C3.05943 51.4827 3.06397 51.4554 3.06397 50.3488V7.83285C3.06397 5.35155 3.27301 5.14251 5.7384 5.14023C7.58573 5.14023 9.43534 5.11751 11.2804 5.15387C11.978 5.1675 12.2052 4.90619 12.1734 4.24497C12.1325 3.42014 12.1439 2.58851 12.1734 1.76368C12.212 0.754805 12.7233 0.25491 13.7208 0.193559C13.9685 0.179926 14.2161 0.193559 14.4661 0.193559H70.4633C70.711 0.193559 70.9609 0.193559 71.2063 0.193559C72.2107 0.252638 72.7287 0.745714 72.7696 1.74777C72.8014 2.57487 72.8196 3.40424 72.7696 4.22907C72.7219 4.97436 73.0241 5.17659 73.7308 5.16296C75.7417 5.1266 77.7549 5.14932 79.7681 5.16296C81.4519 5.16296 81.8791 5.5856 81.8791 7.26024C81.8791 21.5421 81.8791 35.8239 81.8791 50.1057C81.8791 51.4554 81.8791 51.4554 83.1947 51.4872C84.4308 51.5168 84.8762 51.9644 84.8807 53.2073C84.8807 55.1932 84.8807 57.1784 84.8807 59.1629C84.8807 60.299 84.4262 60.7671 83.2901 60.8125C83.097 60.8125 82.9038 60.8125 82.7107 60.8125C55.8815 60.8125 29.0539 60.8125 2.22778 60.8125C1.43023 60.8125 0.682657 60.7602 0.119141 60.1104V52.1575ZM42.4783 11.1617C33.6279 11.1617 24.7798 11.173 15.9294 11.1435C15.0887 11.1435 14.8569 11.3889 14.8592 12.2228C14.8849 22.1737 14.8902 32.1254 14.8751 42.0778C14.8751 43.189 14.8751 43.1935 15.9612 43.1935H68.9727C70.0634 43.1935 70.0679 43.1935 70.0679 42.0892C70.0679 32.164 70.0679 22.2419 70.0679 12.3228C70.0679 11.1708 70.0679 11.1685 68.8591 11.1685L42.4783 11.1617ZM42.4783 51.4668H77.9549C79.166 51.4668 79.1683 51.4668 79.1683 50.2307V15.8993C79.1683 13.4998 79.1524 11.1003 79.1683 8.70311C79.1683 8.06234 78.9683 7.81921 78.3139 7.83512C76.9074 7.87148 75.5009 7.83512 74.0944 7.83512C72.7719 7.83512 72.7719 7.83512 72.7719 9.12348V43.548C72.7818 43.8792 72.7735 44.2107 72.7469 44.541C72.7303 44.8906 72.584 45.2214 72.3365 45.4689C72.089 45.7164 71.7582 45.8627 71.4086 45.8793C71.0792 45.9081 70.7483 45.9165 70.4179 45.9043H14.5184C14.1879 45.9165 13.8571 45.9081 13.5277 45.8793C13.1777 45.8621 12.8468 45.7149 12.5996 45.4665C12.3525 45.2181 12.207 44.8865 12.1916 44.5364C12.1646 44.2069 12.157 43.8761 12.1689 43.5457C12.1689 32.1042 12.1689 20.6627 12.1689 9.22118C12.1689 7.85784 12.1689 7.85784 10.8441 7.85784H6.94951C5.7793 7.85784 5.77703 7.85784 5.77703 9.0485C5.77703 22.7774 5.77703 36.5071 5.77703 50.2375C5.77703 51.469 5.77703 51.469 6.99268 51.469L42.4783 51.4668ZM42.4783 54.1776H4.0933C3.84335 54.1776 3.59567 54.1912 3.348 54.1776C2.86628 54.148 2.63906 54.3389 2.65269 54.8479C2.67542 55.7022 2.67542 56.5589 2.65269 57.4132C2.63906 57.9222 2.87992 58.1108 3.35027 58.0835C3.59795 58.0699 3.84562 58.0835 4.09557 58.0835H80.852C81.0792 58.0835 81.3065 58.0676 81.5132 58.0835C82.0722 58.129 82.3244 57.9131 82.2926 57.3246C82.2585 56.6657 82.2926 56.0022 82.2926 55.3409C82.2926 54.1776 82.2926 54.1753 81.1042 54.1753L42.4783 54.1776ZM42.3943 8.4509H60.345C63.2989 8.4509 66.2528 8.43499 69.1931 8.4509C69.8748 8.4509 70.1179 8.22367 70.102 7.542C70.0611 6.40588 70.102 5.28338 70.102 4.15181C70.102 2.88162 70.102 2.88162 68.8455 2.88162H16.1362C15.9703 2.88162 15.8044 2.89753 15.6408 2.88162C15.066 2.82936 14.8569 3.08839 14.8683 3.65418C14.8933 4.86756 14.8683 6.08094 14.8683 7.28978C14.8683 8.43726 14.8683 8.43954 16.0044 8.43954L42.3943 8.4509Z" />
<path d="M53.7509 22.782C53.9372 26.3449 53.1964 30.0146 51.0651 33.3412C49.2253 36.2183 46.5606 38.4736 43.419 39.8125C43.1236 39.9582 42.7986 40.034 42.4692 40.034C42.1398 40.034 41.8148 39.9582 41.5194 39.8125C35.5865 37.0654 32.1577 32.4868 31.3329 25.9859C31.0625 23.8727 31.2375 21.7482 31.2079 19.6236C31.2079 18.8806 31.5919 18.3898 32.285 18.1194C35.4464 16.8969 38.6056 15.6699 41.7625 14.4384C42.2246 14.2476 42.7433 14.2476 43.2054 14.4384C46.3623 15.6729 49.52 16.9015 52.6784 18.1239C53.0095 18.2313 53.2954 18.446 53.4909 18.7341C53.6863 19.0221 53.7802 19.3671 53.7577 19.7145C53.7531 20.628 53.7509 21.5368 53.7509 22.782ZM33.9051 22.9911C33.9051 23.6319 33.8892 24.0727 33.9051 24.5135C34.1209 30.1146 36.7181 34.2319 41.6307 36.9177C41.8867 37.0748 42.1813 37.158 42.4817 37.158C42.7821 37.158 43.0766 37.0748 43.3326 36.9177C46.5608 35.2714 49.0354 32.4504 50.2471 29.0353C51.2491 26.3472 51.0242 23.5569 51.0378 20.7825C51.0378 20.3098 50.6788 20.2189 50.3425 20.0894C47.9816 19.1805 45.6162 18.2603 43.2645 17.3218C43.0134 17.2133 42.7427 17.1573 42.4692 17.1573C42.1956 17.1573 41.925 17.2133 41.6739 17.3218C39.9606 18.0035 38.2292 18.6488 36.5182 19.3373C35.6797 19.6759 34.5777 19.7509 34.0778 20.4416C33.5483 21.1756 33.9892 22.2617 33.9051 22.9911Z" />
<path d="M20.1469 40.9281C19.6243 40.9281 19.1017 40.9599 18.5813 40.9281C17.7406 40.8667 17.168 40.3078 17.1612 39.6011C17.1544 38.8944 17.7247 38.2968 18.5609 38.2605C19.6016 38.215 20.6491 38.2173 21.692 38.2605C22.5328 38.2946 23.1054 38.8717 23.1122 39.5829C23.119 40.2941 22.551 40.8622 21.7125 40.9281C21.1944 40.9622 20.6695 40.9281 20.1469 40.9281Z" />
<path d="M28.3789 38.24C28.8993 38.24 29.4242 38.2128 29.9445 38.24C30.7898 38.2923 31.3647 38.8354 31.3851 39.5466C31.4056 40.2578 30.8375 40.8667 30.0036 40.9099C28.9356 40.9599 27.8609 40.9599 26.7906 40.9099C26.4402 40.9103 26.103 40.7758 25.8492 40.5342C25.5953 40.2926 25.4442 39.9625 25.4273 39.6125C25.4068 38.9035 25.9749 38.315 26.8065 38.2491C27.3246 38.2082 27.8495 38.2491 28.3721 38.2491L28.3789 38.24Z" />
<path d="M56.4846 40.9235C55.962 40.9235 55.4371 40.9621 54.919 40.9235C54.1215 40.853 53.5784 40.3032 53.5557 39.6215C53.5557 39.4411 53.5914 39.2625 53.6609 39.0961C53.7304 38.9296 53.8323 38.7786 53.9606 38.6518C54.0889 38.525 54.241 38.4249 54.4083 38.3573C54.5755 38.2897 54.7545 38.256 54.9349 38.2581C56.0051 38.2104 57.0799 38.2104 58.1479 38.2581C58.4976 38.2577 58.8341 38.3916 59.0878 38.6322C59.3416 38.8729 59.4932 39.2018 59.5112 39.551C59.5317 40.2577 58.9636 40.8258 58.1342 40.9258C58.079 40.9292 58.0236 40.9292 57.9684 40.9258H56.4869L56.4846 40.9235Z" />
<path d="M64.8215 40.9304C64.2989 40.9304 63.7763 40.9599 63.2559 40.9304C62.4129 40.869 61.8426 40.3123 61.8312 39.6056C61.8199 38.899 62.3902 38.2946 63.2264 38.2605C64.2966 38.2173 65.3714 38.215 66.4393 38.2605C66.7885 38.2655 67.1224 38.4042 67.3723 38.6482C67.6222 38.8921 67.7689 39.2226 67.7822 39.5716C67.7766 39.9207 67.6373 40.2544 67.393 40.5038C67.1486 40.7533 66.8178 40.8994 66.4689 40.9122C65.9235 40.9644 65.3714 40.9122 64.8215 40.9122V40.9304Z" />
<path d="M59.4476 4.31091C60.4565 4.31091 61.1177 4.81308 61.1655 5.59928C61.2041 6.26959 60.6701 6.8581 59.9044 6.99216C58.8182 7.18076 57.9661 6.7763 57.7457 5.96738C57.4935 5.04712 58.2502 4.31091 59.4476 4.31091Z" />
<path d="M66.0665 7.02397C65.0508 7.02397 64.3919 6.55589 64.3192 5.76742C64.2578 5.12665 64.7441 4.52451 65.4553 4.3609C66.4937 4.12232 67.4117 4.48815 67.6912 5.24935C68.0434 6.20597 67.3004 7.01716 66.0665 7.02397Z" />
<path d="M46.6591 25.1157C46.6728 25.5997 46.4206 25.9519 46.1024 26.2722C44.8845 27.5038 43.6757 28.7444 42.4419 29.9601C41.6261 30.7645 40.9581 30.7577 40.1537 29.9737C39.6424 29.4738 39.1289 28.9739 38.654 28.4422C38.409 28.195 38.2715 27.861 38.2715 27.5129C38.2715 27.1648 38.409 26.8308 38.654 26.5835C39.1857 26.0541 39.8629 26.0541 40.5059 26.5835C41.383 27.3038 41.3694 27.2925 42.1283 26.4926C42.8872 25.6928 43.6211 24.9521 44.4005 24.2045C44.5937 24.0029 44.8459 23.8679 45.1207 23.8189C45.3955 23.7699 45.6788 23.8095 45.9297 23.9318C46.1586 24.0298 46.3515 24.1962 46.4821 24.4081C46.6127 24.6201 46.6745 24.8672 46.6591 25.1157Z" />
</svg>
