<svg width="25" height="24" viewBox="0 0 25 24" fill="none" xmlns="http://www.w3.org/2000/svg">
<mask id="mask0_135_1290" style="mask-type:alpha" maskUnits="userSpaceOnUse" x="0" y="0" width="25" height="24">
<rect x="0.349365" width="24" height="24" fill="#D9D9D9"/>
</mask>
<g mask="url(#mask0_135_1290)">
<path d="M20.2994 21C18.1494 21 16.0535 20.5208 14.0119 19.5625C11.9702 18.6042 10.1619 17.3375 8.58687 15.7625C7.01187 14.1875 5.7452 12.3792 4.78687 10.3375C3.82853 8.29583 3.34937 6.2 3.34937 4.05C3.34937 3.75 3.44937 3.5 3.64937 3.3C3.84937 3.1 4.09937 3 4.39937 3H8.44937C8.6827 3 8.89103 3.075 9.07437 3.225C9.2577 3.375 9.36603 3.56667 9.39937 3.8L10.0494 7.3C10.0827 7.53333 10.0785 7.74583 10.0369 7.9375C9.9952 8.12917 9.89937 8.3 9.74937 8.45L7.32437 10.9C8.02437 12.1 8.90353 13.225 9.96187 14.275C11.0202 15.325 12.1827 16.2333 13.4494 17L15.7994 14.65C15.9494 14.5 16.1452 14.3875 16.3869 14.3125C16.6285 14.2375 16.866 14.2167 17.0994 14.25L20.5494 14.95C20.7827 15 20.9744 15.1125 21.1244 15.2875C21.2744 15.4625 21.3494 15.6667 21.3494 15.9V19.95C21.3494 20.25 21.2494 20.5 21.0494 20.7C20.8494 20.9 20.5994 21 20.2994 21ZM6.37437 9L8.02437 7.35L7.59937 5H5.37437C5.4577 5.68333 5.57437 6.35833 5.72437 7.025C5.87437 7.69167 6.09103 8.35 6.37437 9ZM15.3244 17.95C15.9744 18.2333 16.6369 18.4583 17.3119 18.625C17.9869 18.7917 18.666 18.9 19.3494 18.95V16.75L16.9994 16.275L15.3244 17.95Z" fill="#1455CB"/>
</g>
</svg>
