<svg width="55" height="66" viewBox="0 0 55 66" fill="none" xmlns="http://www.w3.org/2000/svg">
<path d="M2.38161 65.971C1.76675 65.7467 1.24588 65.321 0.903746 64.763C0.56161 64.2051 0.418318 63.5478 0.497221 62.898C0.497221 45.33 0.497221 27.7522 0.497221 10.1648C0.462027 9.74478 0.518869 9.3221 0.663768 8.92626C0.808667 8.53042 1.03813 8.17095 1.33619 7.87288C1.63426 7.57482 1.99373 7.34533 2.38957 7.20044C2.78542 7.05554 3.20811 6.99871 3.62817 7.0339H6.93305C7.3969 7.0339 7.57084 6.85995 7.57084 6.39611C7.57084 5.2365 7.57084 4.07689 7.57084 2.91728C7.52422 2.52535 7.56713 2.12795 7.69634 1.755C7.82554 1.38206 8.03769 1.04329 8.31679 0.764195C8.59588 0.485104 8.93463 0.272975 9.30757 0.143769C9.68052 0.0145627 10.0779 -0.0283561 10.4699 0.0182615H37.6627C38.3851 0.00223481 39.103 0.135586 39.7715 0.409956C40.44 0.684326 41.0445 1.09381 41.5474 1.61273L53.4333 13.4697C53.9412 13.9673 54.342 14.5634 54.6112 15.2214C54.8804 15.8795 55.0124 16.5856 54.9988 17.2964V20.5723C54.9988 21.3551 54.564 21.8479 53.8972 21.8189C53.2304 21.7899 52.8825 21.3261 52.8535 20.6013C52.8246 19.8766 52.8535 18.456 52.8535 17.3834C52.8535 16.7746 52.6796 16.5427 52.0418 16.5717H41.3155C40.9212 16.6304 40.5187 16.5959 40.1402 16.4709C39.7616 16.346 39.4177 16.1341 39.1358 15.8523C38.854 15.5704 38.6421 15.2265 38.5172 14.8479C38.3922 14.4694 38.3577 14.0669 38.4164 13.6727C38.4164 10.0779 38.4164 6.51207 38.4164 2.91728C38.4164 2.25051 38.2135 2.07658 37.5757 2.07658H10.6728C9.86105 2.07658 9.77408 2.07657 9.77408 3.00426V55.9984C9.77408 56.8971 9.77409 56.9551 10.7308 56.9551H28.5308C28.8296 56.9252 29.1306 56.9252 29.4294 56.9551C29.6778 56.9907 29.9041 57.1171 30.0648 57.3098C30.2254 57.5026 30.3089 57.748 30.2992 57.9987C30.3153 58.2479 30.2334 58.4935 30.0709 58.6831C29.9084 58.8726 29.6782 58.9912 29.4294 59.0134H28.5887H10.9047C10.4088 59.0553 9.90948 59.0161 9.42621 58.8974C8.90825 58.742 8.45396 58.4243 8.13033 57.991C7.80671 57.5578 7.63089 57.032 7.62883 56.4912C7.61436 56.2112 7.61436 55.9305 7.62883 55.6505V10.3968C7.62883 9.12119 7.62882 9.26614 6.44022 9.23715C5.25163 9.20816 4.52687 9.23715 3.5412 9.23715C3.04837 9.23715 2.78746 9.44008 2.81645 9.96191V63.043C2.81645 63.6518 3.04835 63.8837 3.65714 63.8837H14.6445C14.9228 63.8427 15.2066 63.9018 15.4455 64.0505C15.6844 64.1991 15.8628 64.4276 15.949 64.6954C16.0252 64.9429 16.0117 65.2094 15.911 65.4479C15.8102 65.6865 15.6287 65.882 15.3982 66L2.38161 65.971ZM50.9982 14.4264L40.5327 3.96093C40.5266 4.00906 40.5266 4.05775 40.5327 4.10588C40.5327 7.3238 40.5327 10.5417 40.5327 13.7596C40.5327 14.2815 40.7936 14.4554 41.3155 14.4554H51.0562L50.9982 14.4264Z" fill="#692060"/>
<path d="M18.704 65.9711C18.478 65.8547 18.2978 65.6654 18.1926 65.434C18.0874 65.2026 18.0633 64.9424 18.1242 64.6956C18.3271 64.0578 18.8779 63.8839 19.5157 63.8839H45.114C45.5779 63.8839 45.7518 63.6809 45.7518 63.2171V59.5933C45.7518 59.0135 45.404 59.0135 44.9981 59.0135H34.8225H33.547C33.2983 59.006 33.0623 58.9019 32.8892 58.7233C32.716 58.5447 32.6192 58.3056 32.6193 58.0568C32.5943 57.7965 32.6709 57.5366 32.8329 57.3314C32.995 57.1261 33.23 56.9914 33.489 56.9552C33.7879 56.9265 34.0888 56.9265 34.3877 56.9552H51.7818C52.8544 56.9552 52.8834 56.9552 52.8834 55.8246V25.3848C52.8684 25.1048 52.8684 24.8242 52.8834 24.5441C52.9306 24.2856 53.0664 24.0515 53.2674 23.8822C53.4685 23.7129 53.7222 23.6189 53.985 23.6165C54.2398 23.6364 54.4791 23.7466 54.6598 23.9273C54.8405 24.108 54.9508 24.3473 54.9707 24.6021C54.9846 24.8435 54.9846 25.0855 54.9707 25.3269C54.9707 35.5024 54.9707 45.62 54.9707 55.8826C54.989 56.2959 54.9186 56.7083 54.7642 57.0922C54.6098 57.476 54.3751 57.8224 54.0758 58.108C53.7764 58.3936 53.4194 58.6118 53.0288 58.748C52.6381 58.8842 52.2228 58.9352 51.8108 58.8975H48.9118C48.071 58.8975 48.0711 58.8975 48.0711 59.7672C48.0711 60.637 48.0711 61.8256 48.0711 62.8692C48.1041 63.5014 47.9292 64.127 47.5732 64.6505C47.2173 65.1739 46.6997 65.5665 46.0997 65.7682L18.704 65.9711Z" fill="#692060"/>
<path d="M31.1693 28.2845H20.124H19.2833C19.0266 28.2507 18.7901 28.1276 18.6151 27.9367C18.4402 27.7459 18.3381 27.4995 18.3267 27.2409C18.3258 26.9708 18.4268 26.7104 18.6095 26.5115C18.7922 26.3127 19.0432 26.1901 19.3123 26.1682C19.524 26.1396 19.7385 26.1396 19.9501 26.1682H43.1423C43.4166 26.1831 43.6748 26.3026 43.8635 26.5022C44.0523 26.7017 44.1573 26.9661 44.1569 27.2409C44.1647 27.3765 44.1453 27.5123 44.0996 27.6403C44.0539 27.7682 43.983 27.8857 43.8911 27.9857C43.7991 28.0858 43.6881 28.1663 43.5644 28.2226C43.4408 28.2789 43.3071 28.3098 43.1713 28.3135H42.3015L31.1693 28.2845Z" fill="#692060"/>
<path d="M31.2572 34.1113H19.3133C19.0516 34.0969 18.8049 33.9845 18.6223 33.7965C18.4397 33.6085 18.3345 33.3587 18.3276 33.0967C18.317 32.8503 18.3964 32.6084 18.5511 32.4163C18.7059 32.2242 18.9253 32.0951 19.1683 32.053C19.4273 32.0087 19.692 32.0087 19.9511 32.053H42.4764C42.7559 32.0233 43.0377 32.0233 43.3172 32.053C43.5669 32.0956 43.7896 32.2355 43.9363 32.442C44.0831 32.6485 44.1419 32.9048 44.0999 33.1547C44.086 33.4039 43.9808 33.6392 43.8043 33.8157C43.6278 33.9922 43.3924 34.0975 43.1432 34.1113H31.2572Z" fill="#692060"/>
<path d="M31.2273 39.9959H20.095C19.902 40.0105 19.7082 40.0105 19.5152 39.9959C19.3634 40.0079 19.2108 39.9884 19.0669 39.9384C18.923 39.8885 18.7911 39.8092 18.6794 39.7057C18.5677 39.6022 18.4787 39.4766 18.418 39.337C18.3573 39.1973 18.3262 39.0466 18.3267 38.8943C18.3267 38.2855 18.7905 37.8796 19.5442 37.8796H42.9104C43.6641 37.8796 44.099 38.2565 44.099 38.9233C44.099 39.5901 43.6351 39.9959 42.7944 39.9959H31.2273Z" fill="#692060"/>
<path d="M31.2268 20.2249H43.1707C43.3049 20.2169 43.4394 20.2366 43.5657 20.2826C43.6921 20.3285 43.8077 20.3999 43.9055 20.4922C44.0032 20.5846 44.0811 20.6959 44.1342 20.8194C44.1873 20.943 44.2146 21.0761 44.2144 21.2105C44.2461 21.4466 44.1939 21.6864 44.0667 21.8878C43.9394 22.0892 43.7454 22.2394 43.5186 22.3122C43.251 22.3693 42.9744 22.3693 42.7068 22.3122H19.8626C19.5754 22.3684 19.28 22.3684 18.9929 22.3122C18.7769 22.235 18.5933 22.087 18.4722 21.8922C18.3511 21.6974 18.2997 21.4673 18.3261 21.2395C18.3399 20.998 18.4421 20.77 18.6132 20.5989C18.7842 20.4278 19.0122 20.3257 19.2538 20.3118H31.2268V20.2249Z" fill="#692060"/>
<path d="M22.7911 16.6011C21.9024 16.5954 21.0353 16.3262 20.2996 15.8277C19.5639 15.3292 18.9925 14.6237 18.6577 13.8005C18.3229 12.9772 18.2397 12.0732 18.4187 11.2027C18.5978 10.3322 19.0309 9.53429 19.6634 8.90994C20.2958 8.28559 21.0992 7.8628 21.972 7.69504C22.8447 7.52728 23.7476 7.62209 24.5664 7.96747C25.3853 8.31285 26.0834 8.89329 26.5723 9.63539C27.0613 10.3775 27.3193 11.2479 27.3135 12.1366C27.2983 13.326 26.8151 14.4615 25.9686 15.2971C25.1221 16.1327 23.9805 16.6012 22.7911 16.6011ZM25.1103 12.1076C25.1141 11.8045 25.0577 11.5035 24.9443 11.2223C24.831 10.9411 24.6629 10.6852 24.4498 10.4694C24.2368 10.2537 23.983 10.0824 23.7033 9.9655C23.4235 9.84859 23.1233 9.78841 22.8201 9.78843C22.4917 9.75179 22.1594 9.78481 21.8447 9.88538C21.5301 9.98594 21.2401 10.1518 20.9939 10.372C20.7477 10.5923 20.5507 10.862 20.4159 11.1636C20.281 11.4652 20.2113 11.7918 20.2113 12.1221C20.2113 12.4525 20.281 12.7791 20.4159 13.0807C20.5507 13.3823 20.7477 13.652 20.9939 13.8723C21.2401 14.0925 21.5301 14.2583 21.8447 14.3589C22.1594 14.4595 22.4917 14.4925 22.8201 14.4558C23.1269 14.46 23.4314 14.4017 23.715 14.2844C23.9986 14.1671 24.2553 13.9933 24.4696 13.7736C24.6838 13.554 24.8511 13.293 24.9613 13.0065C25.0714 12.7201 25.1221 12.4143 25.1103 12.1076Z" fill="#692060"/>
<path d="M27.1397 45.9101H20.0081C18.9064 45.9101 18.3267 45.5332 18.3267 44.8084C18.3267 44.0837 18.9064 43.6778 20.0081 43.6778H34.2133C34.5293 43.6175 34.8539 43.6175 35.17 43.6778C35.3768 43.7487 35.5571 43.881 35.6866 44.0572C35.8162 44.2334 35.8888 44.4449 35.8947 44.6635C35.9041 44.8891 35.8379 45.1115 35.7066 45.2953C35.5753 45.4791 35.3865 45.6138 35.17 45.6781C34.8536 45.7352 34.5296 45.7352 34.2133 45.6781L27.1397 45.9101Z" fill="#692060"/>
<path d="M41.1415 45.9102H38.9672C38.1845 45.9102 37.7206 45.4754 37.6916 44.8666C37.6627 44.2578 38.1555 43.736 38.9962 43.736H42.7649C42.9572 43.7078 43.1525 43.7078 43.3447 43.736C43.567 43.7839 43.7649 43.9094 43.9031 44.09C44.0412 44.2706 44.1105 44.4946 44.0985 44.7216C44.1167 44.9576 44.0467 45.192 43.9021 45.3794C43.7575 45.5668 43.5486 45.6939 43.3158 45.7363C42.5998 45.8752 41.8705 45.9336 41.1415 45.9102Z" fill="#692060"/>
</svg>
