<svg width="57" height="66" viewBox="0 0 57 66" fill="none" xmlns="http://www.w3.org/2000/svg">
<path d="M0.719354 65.9709C0.45906 65.8031 0.25412 65.5615 0.13045 65.2766C0.00678027 64.9917 -0.0300358 64.6763 0.0246136 64.3704V1.57143C0.0246136 0.320108 0.371963 0 1.61676 0H46.661C47.9347 0 48.2821 0.349205 48.2821 1.65873V28.8677L49.7585 24.6481C49.9643 24.0729 50.3089 23.5581 50.7613 23.1496C51.2137 22.7411 51.7598 22.4519 52.3508 22.3077C52.9417 22.1635 53.5589 22.1689 54.1473 22.3235C54.7356 22.478 55.2766 22.7768 55.7219 23.1931C56.279 23.6715 56.6714 24.3147 56.843 25.0307C57.0146 25.7467 56.9566 26.499 56.6772 27.1799C55.9535 29.3915 55.1719 31.6032 54.4192 33.8148C52.4893 39.6349 50.5594 45.3677 48.6295 51.0132C48.4188 51.6005 48.3205 52.2226 48.34 52.8466V64.4868C48.3648 64.775 48.3168 65.0648 48.2004 65.3293C48.084 65.5939 47.903 65.8246 47.6742 66L0.719354 65.9709ZM43.9108 41.6138L45.7635 36.172C45.7925 35.9595 45.7925 35.7442 45.7635 35.5317C45.7635 24.7063 45.7635 13.8809 45.7635 3.05555C45.7635 2.44444 45.5609 2.26984 44.953 2.26984H3.18001C2.57209 2.26984 2.36945 2.44444 2.36945 3.05555V62.9444C2.36945 63.5847 2.57209 63.7593 3.18001 63.7593H45.0688C45.9083 63.7593 45.9083 63.7593 45.9083 62.9153V58.8413C45.9083 58.6667 45.9083 58.4339 45.9083 58.2884L42.5213 61.1984C42.3599 61.3766 42.1497 61.5029 41.9171 61.5614C41.6846 61.6199 41.44 61.608 41.2141 61.5271C40.9883 61.4462 40.7913 61.3001 40.6479 61.107C40.5044 60.9139 40.421 60.6824 40.408 60.4418C40.2054 59.4233 40.0317 58.3757 39.7712 57.3571C39.4014 56.189 39.4735 54.9248 39.9738 53.8069C40.3212 52.963 40.2922 52.9339 39.3369 52.9339H6.07488C4.77219 52.9339 4.39585 52.5556 4.39585 51.246V32.3016C4.39585 31.1376 4.74325 30.7593 5.9012 30.7593H42.4344C43.5924 30.7593 43.9977 31.1667 43.9977 32.3016V41.6138H43.9108ZM24.1968 33.0582H7.696C6.82754 33.0582 6.82753 33.0582 6.82753 33.9021V49.5582C6.82753 50.4894 6.82754 50.4894 7.78284 50.4894H40.6975C40.747 50.4977 40.7977 50.4959 40.8465 50.4842C40.8953 50.4725 40.9412 50.4511 40.9817 50.4213C41.0222 50.3915 41.0563 50.3538 41.082 50.3105C41.1078 50.2673 41.1247 50.2192 41.1318 50.1693C41.4229 49.5263 41.5993 48.8368 41.6528 48.1323C41.6528 43.3889 41.6528 38.6455 41.6528 33.9021C41.6528 33.0582 41.6528 33.0582 40.8133 33.0582H24.1968ZM44.2003 55.6111C44.6635 55.6111 44.6635 55.291 44.7504 55.0291C46.053 51.2751 47.3557 47.4921 48.6295 43.7381L53.2323 30.4391C53.377 30.0317 53.2323 29.828 52.8849 29.7116L51.4954 29.246C51.0033 29.0132 50.7717 29.246 50.569 29.6534C48.6584 35.4735 46.6899 40.9735 44.7793 46.619L42.1739 54.2143C42.1739 54.4471 41.8844 54.7381 42.1739 54.8836C42.4634 55.0291 43.5634 55.3783 44.2003 55.6111ZM54.6508 25.9577C54.6569 25.6851 54.58 25.4172 54.4305 25.1897C54.2809 24.9622 54.0659 24.7861 53.814 24.6849C53.5622 24.5836 53.2857 24.562 53.0213 24.6231C52.757 24.6841 52.5175 24.8249 52.3349 25.0264C51.9975 25.4711 51.7694 25.9896 51.6691 26.5397C51.6691 26.7434 51.6691 26.8598 51.9585 26.918L53.8113 27.5582C53.8523 27.5895 53.901 27.6093 53.9521 27.6154C54.0033 27.6215 54.0551 27.6138 54.1024 27.593C54.1496 27.5723 54.1904 27.5392 54.2207 27.4973C54.2509 27.4553 54.2695 27.406 54.2745 27.3545C54.4572 26.9064 54.5837 26.4372 54.6508 25.9577Z" fill="#1455CB"/>
<path d="M31.2602 8.75928H42.4344C43.6503 8.75928 44.0555 9.16668 44.0555 10.3598V13.9683C44.0555 15.0741 43.6213 15.5106 42.5502 15.5106H20.2018C19.1886 15.5106 18.7544 15.045 18.7544 14.0556V10.3307C18.7544 9.16669 19.1307 8.75928 20.2887 8.75928H31.2602ZM31.2602 13.1535H40.7554C41.3923 13.1535 41.6528 12.9498 41.5659 12.3095C41.5513 12.2034 41.5513 12.0956 41.5659 11.9894C41.5659 11.1455 41.5659 11.1164 40.6975 11.1164H21.8808C20.9545 11.1164 20.9545 11.1164 20.9545 12.0767C20.9545 12.0767 20.9545 12.2513 20.9545 12.3095C20.9545 12.9789 21.1571 13.1535 21.794 13.1535H31.2602Z" fill="#1455CB"/>
<path d="M31.202 24.2989H20.2594C18.9857 24.2989 18.6094 23.9206 18.6094 22.6401V18.9735C18.6094 18.0132 19.0436 17.5475 19.9989 17.5475H42.4341C42.6282 17.5191 42.8262 17.5362 43.0127 17.5973C43.1992 17.6585 43.3691 17.7621 43.5092 17.9001C43.6493 18.0381 43.7558 18.2068 43.8204 18.393C43.885 18.5792 43.9059 18.7778 43.8816 18.9735V22.8729C43.8816 23.8333 43.4184 24.2698 42.4341 24.2989H31.202ZM31.202 19.9047H21.6779C21.4463 19.9047 21.099 19.9047 21.0121 20.0502C20.8243 20.577 20.8243 21.153 21.0121 21.6798C21.0121 22.0872 21.5621 21.9126 21.8516 21.9126H40.3498C41.6525 21.9126 41.5078 21.9126 41.5078 20.7486C41.5078 19.9047 41.5078 19.9047 40.6393 19.9047H31.202Z" fill="#1455CB"/>
<path d="M10.5905 15.4233H6.04551C4.91651 15.4233 4.51123 14.9868 4.51123 13.8519V10.2143C4.51123 9.19579 4.94546 8.75928 5.95867 8.75928H15.2223C16.2065 8.75928 16.6697 9.16668 16.6987 10.1561C16.7276 11.1455 16.6987 12.7752 16.6987 14.0847C16.6987 15.3942 16.2355 15.5106 15.1644 15.5106L10.5905 15.4233ZM10.5905 13.0662H13.0801C14.4986 13.0662 14.2959 13.2117 14.3538 11.7857C14.3538 11.1746 14.1222 11.0291 13.5722 11.0291H8.12982C6.71133 11.0291 6.85608 10.8545 6.82714 12.3386C6.82714 12.8625 6.9719 13.0953 7.52192 13.0662H10.5905Z" fill="#1455CB"/>
<path d="M10.5908 24.2989H5.98799C4.94583 24.2989 4.51157 23.8624 4.51157 22.8148V18.9444C4.48301 18.7569 4.49824 18.5653 4.55606 18.3848C4.61387 18.2043 4.71268 18.0397 4.84468 17.9042C4.97667 17.7687 5.13823 17.6659 5.31657 17.604C5.4949 17.5421 5.68511 17.5228 5.87217 17.5476H15.2805C16.1779 17.5476 16.6122 17.9259 16.6701 18.7989C16.6701 20.1957 16.6701 21.5925 16.6701 22.9894C16.6701 23.8915 16.1779 24.2698 15.2805 24.2989H10.5908ZM10.5908 21.9127H13.0225C14.5278 21.9127 14.2963 22.0873 14.3542 20.574C14.3542 20.0502 14.1805 19.8756 13.6884 19.9047H8.18807C6.71169 19.9047 6.85643 19.6428 6.82748 21.3015C6.82748 21.7672 7.00118 21.9418 7.46435 21.9127H10.5908Z" fill="#1455CB"/>
<path d="M17.5674 57.2699H6.3642C5.46679 57.2699 5.4668 57.2699 5.4668 56.3678C5.4668 54.7091 5.46683 54.8837 6.94321 54.8837H28.6837C29.6969 54.8837 29.6969 54.8837 29.6969 55.8731C29.6969 57.4445 29.6969 57.2408 28.3073 57.2699H17.5674Z" fill="#1455CB"/>
<path d="M11.0248 28.6639H5.23508C4.6561 28.6639 4.45348 28.4602 4.48243 27.8782C4.48243 26.1031 4.22189 26.2777 6.01671 26.2777H16.8725C17.712 26.2777 17.7409 26.2777 17.7409 27.1507C17.7409 28.8676 17.9436 28.6348 16.2935 28.6348C14.6434 28.6348 12.7617 28.6639 11.0248 28.6639Z" fill="#1455CB"/>
<path d="M10.5907 4.36499H15.9751C16.5252 4.36499 16.7278 4.53959 16.6989 5.0925C16.6989 6.98404 16.8725 6.72213 15.1067 6.72213C11.8644 6.72213 8.62215 6.72213 5.3799 6.72213C4.51144 6.72213 4.51143 6.72213 4.51143 5.82002C4.51143 4.16129 4.33775 4.39409 5.92993 4.36499H10.5907Z" fill="#1455CB"/>
</svg>
