<svg width="75" height="75" viewBox="0 0 75 75" fill="none" xmlns="http://www.w3.org/2000/svg">
<path d="M0.756348 70.5245V4.54159C1.97907 1.60485 3.26238 0.750824 6.44862 0.750824H53.54C56.6959 0.750824 58.7311 2.79222 58.7338 5.95486C58.7338 12.5281 58.7338 19.1022 58.7338 25.6773C58.7338 25.9528 58.6484 26.2448 58.8192 26.5038C59.1194 26.4569 59.2515 26.209 59.4305 26.0299C61.3445 24.1263 63.2282 22.1896 65.1696 20.3135C67.6206 17.947 71.4265 18.3051 73.2991 21.0325C74.7807 23.1896 74.5053 25.9638 72.5693 27.9198C68.187 32.3276 63.7918 36.7208 59.3837 41.0993C59.1593 41.3069 58.9833 41.5614 58.8681 41.8447C58.7529 42.1279 58.7014 42.4331 58.7173 42.7385C58.7357 51.5138 58.7357 60.2873 58.7173 69.0589C58.7416 69.5371 58.7064 70.0164 58.6126 70.486C58.1225 72.464 56.8006 73.6211 54.9335 74.2492H4.4851C3.59758 73.9981 2.78903 73.5241 2.13636 72.8721C1.4837 72.2202 1.00863 71.412 0.756348 70.5245ZM3.69474 37.5344V68.3895C3.69474 68.665 3.69474 68.9625 3.69474 69.249C3.78562 70.5438 4.49612 71.2491 5.79595 71.3372C6.01075 71.3372 6.22556 71.3372 6.44311 71.3372H53.036C53.2288 71.3372 53.4188 71.3372 53.6116 71.3372C54.9472 71.2601 55.6715 70.5493 55.7596 69.2187C55.7734 69.0066 55.7596 68.7889 55.7596 68.574V45.7551C55.7596 45.6614 55.7596 45.565 55.7596 45.4796C55.8064 44.981 55.6577 44.8047 55.1593 45.0664C54.7406 45.2971 54.303 45.4916 53.8512 45.6477C53.1682 45.868 52.9837 46.2923 52.9865 46.9921C53.0112 53.5432 53.003 60.0917 52.9865 66.6429C52.9865 68.114 52.5238 68.5713 51.0588 68.5713H35.8904C35.6996 68.5809 35.5084 68.5809 35.3176 68.5713C35.1265 68.557 34.9402 68.5051 34.7693 68.4184C34.5984 68.3318 34.4464 68.2121 34.322 68.0664C34.1976 67.9207 34.1032 67.7517 34.0444 67.5694C33.9855 67.387 33.9634 67.1947 33.9792 67.0037C34.0232 66.1194 34.6456 65.607 35.7141 65.607C40.2066 65.607 44.6991 65.607 49.1916 65.607C49.7947 65.607 50.0426 65.4362 50.0398 64.7943C50.0233 59.2239 50.0233 53.6534 50.0398 48.083C50.0398 47.532 49.9186 47.3888 49.3871 47.6395C48.3076 48.1464 47.2033 48.6064 46.1183 49.1023C45.4105 49.4246 44.7413 49.499 44.1217 48.926C43.5957 48.4329 43.5434 47.7855 43.9455 46.8763C45.0773 44.3225 46.2422 41.7798 47.3383 39.2067C47.8725 37.9559 48.5031 36.8044 49.5744 35.9338C49.7313 35.8061 49.8554 35.6427 49.9363 35.4572C50.0173 35.2717 50.0528 35.0696 50.0398 34.8677C50.0398 26.6672 50.0398 18.4668 50.0398 10.2663C50.0398 9.68225 49.847 9.45911 49.2494 9.46737C47.0996 9.48941 44.9488 9.48941 42.7971 9.46737C42.2271 9.46737 42.0178 9.67124 41.9379 10.2443C41.7906 11.297 41.2697 12.2617 40.4704 12.9622C39.6711 13.6626 38.6466 14.0522 37.584 14.0598C32.3498 14.0727 27.1174 14.0727 21.8869 14.0598C20.8245 14.0563 19.7987 13.671 18.9964 12.9742C18.1942 12.2773 17.669 11.3154 17.5165 10.2635C17.4339 9.64369 17.1915 9.45911 16.6022 9.46737C14.4982 9.48941 12.3942 9.49492 10.293 9.46737C9.64588 9.46737 9.40904 9.65195 9.4118 10.3242C9.42649 28.468 9.42649 46.6128 9.4118 64.7585C9.4118 65.4362 9.65414 65.6235 10.2958 65.6125C12.039 65.5795 13.785 65.6125 15.5282 65.6125C18.3013 65.6125 21.0745 65.6125 23.8449 65.6125C24.985 65.6125 25.6872 66.4555 25.4394 67.4693C25.2659 68.1939 24.6876 68.5713 23.7402 68.5851H8.24966C6.93881 68.5851 6.44036 68.0782 6.4376 66.7531C6.44495 47.2611 6.44862 27.7729 6.44862 8.28827C6.44862 7.00999 6.95809 6.49482 8.22212 6.49206C10.6345 6.49206 13.0497 6.50859 15.4621 6.49206C17.6184 6.47003 17.3898 6.94111 17.3898 4.40659C17.3898 3.97407 17.2135 3.73991 16.7509 3.73991C13.0937 3.73991 9.43658 3.72062 5.77943 3.75919C4.48235 3.77296 3.7746 4.5471 3.68648 5.84191C3.6672 6.1174 3.68648 6.41768 3.68648 6.70419L3.69474 37.5344ZM29.7382 3.73164C26.9403 3.73164 24.1451 3.74542 21.3499 3.73164C20.7137 3.73164 20.4383 3.89418 20.4549 4.58015C20.4962 6.13117 20.4549 7.6877 20.4714 9.24147C20.4714 10.4261 21.0883 11.079 22.2807 11.0818C27.2524 11.0983 32.2231 11.0983 37.193 11.0818C38.3854 11.0818 38.994 10.4261 39.0023 9.24147C39.0023 7.73453 39.0023 6.22759 39.0023 4.72066C39.0023 3.75919 38.9857 3.74542 38.0494 3.74266L29.7382 3.73164ZM53.025 32.2175L53.2453 32.3607C53.9007 31.6747 54.5341 30.9667 55.2171 30.3111C55.408 30.1378 55.5584 29.9245 55.6574 29.6864C55.7564 29.4483 55.8017 29.1912 55.7899 28.9336C55.7752 21.4035 55.7752 13.8734 55.7899 6.3433C55.7899 4.45894 55.0739 3.74266 53.1875 3.74266C50.0811 3.74266 46.9747 3.74266 43.8711 3.74266C41.9296 3.74266 42.0756 3.44788 42.0783 5.54988C42.0783 6.43421 42.1444 6.49482 43.0092 6.49757H51.0367C52.5954 6.49757 53.0333 6.93836 53.0333 8.50315C53.0333 16.1288 53.0333 23.7507 53.0333 31.3689L53.025 32.2175ZM67.5297 28.5369C67.4916 28.4616 67.4445 28.3913 67.3893 28.3275L64.707 25.6442C64.4316 25.3687 64.2443 25.5395 64.0433 25.7406C60.0447 29.7445 56.0442 33.7446 52.0419 37.7411C51.7114 38.0716 51.7224 38.3141 52.0419 38.6336C52.8322 39.3968 53.6088 40.1709 54.3689 40.9643C54.6829 41.2894 54.9197 41.3252 55.2529 40.9836C59.2515 36.9743 63.252 32.9723 67.2543 28.9777C67.3272 28.9262 67.389 28.8607 67.4363 28.785C67.4836 28.7093 67.5154 28.625 67.5297 28.5369ZM69.1462 21.8039C68.0309 21.8039 67.4058 22.3273 66.8357 22.9609C66.6127 23.2061 66.7559 23.3962 66.9376 23.578C67.7638 24.4045 68.59 25.231 69.4161 26.0575C69.6915 26.333 69.9201 26.3633 70.1817 26.0575C70.3635 25.8398 70.592 25.6552 70.7573 25.4238C71.018 25.093 71.1774 24.6937 71.216 24.2742C71.2546 23.8547 71.1708 23.433 70.9748 23.0601C70.8131 22.7041 70.5574 22.399 70.2352 22.1776C69.9129 21.9562 69.5365 21.827 69.1462 21.8039ZM48.2856 44.576L48.4481 44.7303C49.5716 44.2307 50.6952 43.7293 51.8188 43.2261C52.1162 43.0938 52.0446 42.9148 51.8629 42.7302L50.2987 41.1819C50.1169 41.0029 49.9241 40.9395 49.7947 41.2288C49.288 42.3335 48.7868 43.4575 48.2856 44.576Z" />
<path d="M25.5989 41.9615C25.5989 43.3555 25.5989 44.7523 25.5989 46.1463C25.5989 47.2482 25.0812 47.7689 23.9466 47.7717C21.1578 47.7717 18.37 47.7717 15.5831 47.7717C14.5008 47.7717 13.9803 47.251 13.9775 46.1766C13.9775 43.3647 13.9775 40.5529 13.9775 37.741C13.9775 36.6693 14.5035 36.1542 15.5913 36.1514C18.4003 36.1514 21.2102 36.1514 24.0209 36.1514C25.0592 36.1514 25.5824 36.6804 25.5934 37.7135C25.6072 39.1267 25.5989 40.5455 25.5989 41.9615ZM19.7332 44.9231C20.5318 44.9231 21.3277 44.9231 22.1263 44.9231C22.5504 44.9231 22.7569 44.7633 22.7542 44.3197C22.7431 42.7458 22.7431 41.1727 22.7542 39.6006C22.7542 39.1625 22.5641 38.9862 22.1345 38.989C20.5621 38.989 18.9869 38.989 17.4144 38.989C17.0206 38.989 16.8223 39.146 16.8251 39.5565C16.8251 41.1525 16.8251 42.7485 16.8251 44.3445C16.8251 44.7495 17.0096 44.9231 17.4089 44.9176C18.1827 44.9176 18.9593 44.9231 19.7332 44.9231Z" />
<path d="M25.599 57.064C25.599 58.4608 25.599 59.8548 25.599 61.2487C25.599 62.3314 25.0785 62.8549 24.0045 62.8576C21.1956 62.8686 18.3857 62.8686 15.5749 62.8576C14.5009 62.8576 13.9859 62.3314 13.9832 61.2487C13.9832 58.4351 13.9832 55.6232 13.9832 52.8132C13.9832 51.7718 14.5091 51.2429 15.5419 51.2401C18.3728 51.2291 21.2057 51.2291 24.0403 51.2401C25.0703 51.2401 25.5908 51.7718 25.599 52.8132C25.6073 54.232 25.599 55.648 25.599 57.064ZM16.8252 56.9786C16.8252 57.7555 16.8252 58.5296 16.8252 59.3065C16.8252 59.7804 16.9629 60.0256 17.4861 60.0173C19.0338 60.0008 20.5842 60.0173 22.1346 60.0173C22.5615 60.0173 22.7625 59.852 22.7598 59.4112C22.7488 57.8372 22.7488 56.2642 22.7598 54.692C22.7598 54.2513 22.5642 54.0805 22.1374 54.0832C20.587 54.0832 19.0365 54.0997 17.4861 54.0832C16.9656 54.0832 16.8114 54.3201 16.8252 54.7967C16.8389 55.5075 16.8252 56.2486 16.8252 56.9786Z" />
<path d="M39.6686 61.5959C39.2254 61.5774 38.8063 61.389 38.4982 61.0697C37.9639 60.538 37.4242 60.0118 36.9009 59.4691C36.6255 59.1936 36.4217 59.1936 36.1574 59.4691C35.6341 60.0201 35.1026 60.549 34.5546 61.0669C33.8414 61.7391 33.029 61.7667 32.4204 61.1579C31.8117 60.549 31.842 59.7336 32.514 59.0228C33.0179 58.4911 33.5329 57.9704 34.0644 57.4718C34.3949 57.1632 34.3811 56.9208 34.0644 56.6233C33.5467 56.1412 33.051 55.6343 32.5608 55.1218C31.8503 54.3808 31.8062 53.5571 32.4341 52.9372C33.062 52.3173 33.8689 52.3697 34.618 53.0887C35.1109 53.5626 35.6094 54.0364 36.0665 54.5461C36.419 54.9373 36.6779 54.8987 37.0138 54.5295C37.4903 54.0089 37.997 53.513 38.5147 53.0281C39.228 52.3559 40.0403 52.3366 40.6462 52.951C41.2521 53.5653 41.2218 54.3642 40.5443 55.0805C40.0403 55.6122 39.5281 56.1329 38.9939 56.6315C38.6634 56.9401 38.6772 57.1825 38.9939 57.4745C39.5722 58.0255 40.1367 58.593 40.6792 59.1826C40.8771 59.377 41.0088 59.6287 41.0558 59.9021C41.1027 60.1755 41.0625 60.4568 40.9409 60.7061C40.8316 60.9574 40.6548 61.1736 40.4303 61.3306C40.2057 61.4877 39.9421 61.5795 39.6686 61.5959Z" />
<path d="M42.5877 38.8651C42.5838 39.0727 42.5379 39.2774 42.4527 39.4668C42.3675 39.6562 42.2448 39.8264 42.092 39.967C40.0762 41.9864 38.0686 44.014 36.0335 46.0279C35.3312 46.7193 34.5712 46.7028 33.8524 46.0086C32.883 45.0756 31.9311 44.1242 30.9966 43.1545C30.3054 42.4437 30.2834 41.6365 30.8892 41.0249C31.4951 40.4133 32.3268 40.4326 33.0676 41.1406C33.5605 41.6145 34.0562 42.0883 34.5133 42.598C34.8438 42.9644 35.0641 42.9231 35.4001 42.598C36.8872 41.0828 38.3936 39.5869 39.8972 38.0882C40.313 37.6695 40.7784 37.3471 41.4118 37.4766C41.7349 37.543 42.0264 37.7159 42.2396 37.9676C42.4528 38.2194 42.5754 38.5354 42.5877 38.8651Z" />
<path d="M29.7436 65.6015C30.036 65.6054 30.3207 65.6956 30.562 65.861C30.8032 66.0264 30.9901 66.2596 31.0991 66.531C31.2081 66.8025 31.2344 67.1001 31.1746 67.3865C31.1148 67.6729 30.9717 67.9351 30.7632 68.1403C30.5547 68.3454 30.2902 68.4842 30.0029 68.5393C29.7157 68.5943 29.4186 68.563 29.1491 68.4495C28.8796 68.3359 28.6498 68.1451 28.4885 67.9011C28.3272 67.657 28.2416 67.3707 28.2427 67.0782C28.2388 66.8811 28.2752 66.6853 28.3496 66.5027C28.4239 66.3202 28.5348 66.1547 28.6753 66.0165C28.8158 65.8783 28.983 65.7702 29.1667 65.6988C29.3503 65.6275 29.5467 65.5944 29.7436 65.6015Z" />
<path d="M27.1413 34.088C26.9286 34.03 26.7313 33.9259 26.5633 33.783C26.3953 33.6402 26.2607 33.4622 26.1692 33.2616C26.0859 33.0377 26.0439 32.8006 26.0452 32.5618C26.0462 32.5197 26.0375 32.478 26.0199 32.4398C26.0022 32.4016 25.976 32.3679 25.9433 32.3414C25.748 32.1918 25.5917 31.9972 25.4877 31.7741C25.3836 31.5511 25.3349 31.3063 25.3458 31.0604C25.3458 30.6471 25.3155 30.2339 25.3458 29.8152C25.3643 29.4999 25.3132 29.1844 25.1961 28.8911C25.079 28.5978 24.8988 28.3339 24.6683 28.1181C24.1944 27.6578 23.7866 27.134 23.4566 26.5616C22.8389 25.4304 22.6344 24.1192 22.8783 22.8535C22.9168 22.6606 23.049 22.5505 23.2032 22.578C23.2441 22.5839 23.2833 22.5981 23.3185 22.6197C23.3537 22.6414 23.384 22.67 23.4078 22.7038C23.4315 22.7376 23.4481 22.7758 23.4565 22.8163C23.4649 22.8567 23.4649 22.8984 23.4566 22.9389C23.4566 22.9775 23.4566 23.0133 23.4566 23.0491C23.4006 23.3561 23.3776 23.6683 23.3877 23.9803C23.3982 25.2225 23.8806 26.4142 24.7372 27.3137C24.952 27.5479 25.1778 27.7738 25.3733 28.0245C25.5961 28.2941 25.7619 28.6062 25.8607 28.9419C25.8663 28.9897 25.8905 29.0334 25.9282 29.0633C25.9659 29.0933 26.0139 29.1071 26.0618 29.1016H30.5148C30.6057 29.1016 30.6828 29.1016 30.7076 28.9804C30.8732 28.3873 31.2036 27.8533 31.6604 27.4404C32.4121 26.6854 32.9048 25.7111 33.0676 24.658C33.2714 23.3974 32.9791 22.107 32.252 21.0575C31.5249 20.008 30.4196 19.2812 29.1681 19.0297C28.127 18.8318 27.0498 18.9799 26.1007 19.4514C25.1515 19.9229 24.3826 20.692 23.911 21.6413C23.776 21.9168 23.6356 21.994 23.4511 21.9168C23.2666 21.8397 23.2445 21.6413 23.385 21.3906C24.302 19.6578 25.7175 18.6357 27.6728 18.396C28.962 18.2535 30.2595 18.5782 31.3297 19.3112C32.4 20.0442 33.172 21.1368 33.5055 22.3907C34.0563 24.3935 33.5936 26.1842 32.2029 27.7324L31.7651 28.2228C31.5616 28.4562 31.41 28.7301 31.3203 29.0264C31.2306 29.3228 31.2048 29.6348 31.2446 29.9419C31.2837 30.4002 31.2837 30.861 31.2446 31.3193C31.227 31.5151 31.169 31.7051 31.0742 31.8772C30.9794 32.0494 30.8498 32.1999 30.6938 32.3194C30.6549 32.3437 30.6227 32.3773 30.6001 32.4173C30.5775 32.4572 30.5652 32.5022 30.5644 32.548C30.5921 32.8938 30.4967 33.2383 30.2951 33.5206C30.0936 33.8029 29.7988 34.0048 29.4628 34.0908L27.1413 34.088ZM28.3007 29.6967C27.5819 29.6967 26.8604 29.6967 26.1416 29.6967C25.9902 29.6967 25.9296 29.7435 25.9406 29.8951C25.953 30.0417 25.953 30.1892 25.9406 30.3358C25.9213 30.5232 25.9957 30.5755 26.1802 30.5728C26.954 30.5728 27.7306 30.5728 28.5072 30.5728C28.5995 30.5717 28.6917 30.5791 28.7826 30.5948C28.8478 30.6054 28.907 30.639 28.9494 30.6896C28.9919 30.7401 29.0148 30.8043 29.0139 30.8703C29.0139 30.9434 28.9849 31.0134 28.9333 31.0651C28.8816 31.1168 28.8116 31.1458 28.7385 31.1458C28.678 31.1499 28.6173 31.1499 28.5568 31.1458C27.7444 31.1458 26.932 31.1458 26.1196 31.1458C25.9516 31.1458 25.9213 31.2009 25.9626 31.3524C26.0026 31.5334 26.1012 31.6961 26.2431 31.8151C26.3851 31.9342 26.5624 32.003 26.7475 32.0108C27.7774 32.0218 28.8092 32.0218 29.8428 32.0108C30.037 31.9988 30.2211 31.9202 30.3641 31.7882C30.5071 31.6562 30.6002 31.479 30.6277 31.2863C30.6442 31.1926 30.6277 31.1485 30.5203 31.1485C30.3606 31.1485 30.2008 31.1485 30.0439 31.1485C29.8373 31.1485 29.7107 31.0328 29.7024 30.873C29.7035 30.8316 29.7127 30.7907 29.7297 30.7528C29.7466 30.7149 29.7709 30.6808 29.8011 30.6524C29.8313 30.6239 29.8669 30.6018 29.9057 30.5872C29.9446 30.5725 29.9859 30.5658 30.0274 30.5673C30.1612 30.5562 30.2956 30.5562 30.4294 30.5673C30.6002 30.5673 30.658 30.5094 30.6442 30.3441C30.6318 30.2039 30.6318 30.0628 30.6442 29.9226C30.6607 29.749 30.6029 29.6884 30.4212 29.6912C29.7189 29.7022 29.0112 29.6967 28.3007 29.6967ZM28.3007 32.6334H26.8273C26.6263 32.6334 26.6098 32.6527 26.6483 32.8401C26.6786 33.0351 26.7795 33.2123 26.9318 33.3377C27.0842 33.4632 27.2773 33.5283 27.4745 33.5205C28.0253 33.5205 28.5513 33.5205 29.0883 33.5205C29.2847 33.5235 29.4758 33.4563 29.6272 33.3311C29.7786 33.2059 29.8804 33.0308 29.9145 32.8373C29.9475 32.6858 29.9144 32.6279 29.7492 32.6307C29.2755 32.6417 28.7798 32.6417 28.2869 32.6417L28.3007 32.6334Z" />
<path d="M26.1142 23.3274C26.2484 23.3218 26.3822 23.3455 26.5063 23.3969C26.6304 23.4483 26.7419 23.5261 26.8329 23.6249L27.6839 24.5588C27.8408 24.7351 27.8436 24.7351 27.9923 24.5423L29.5538 22.5284C29.6597 22.3649 29.8155 22.2399 29.998 22.1719C30.1806 22.1039 30.3802 22.0966 30.5672 22.151C30.7018 22.1879 30.8258 22.256 30.9291 22.3498C31.0324 22.4437 31.1122 22.5606 31.1618 22.691C31.2114 22.8215 31.2296 22.9618 31.2148 23.1007C31.2 23.2395 31.1527 23.3728 31.0767 23.4899C30.8937 23.757 30.697 24.0145 30.4873 24.2613C30.4661 24.2939 30.4381 24.3216 30.4053 24.3427C30.3725 24.3637 30.3357 24.3775 30.2972 24.3833C30.2586 24.389 30.2194 24.3865 30.1819 24.3759C30.1444 24.3653 30.1096 24.3469 30.0798 24.3219C30.0457 24.2999 30.017 24.2706 29.9956 24.2362C29.9742 24.2018 29.9606 24.163 29.9559 24.1228C29.9511 24.0825 29.9554 24.0417 29.9682 24.0033C29.981 23.9648 30.0022 23.9297 30.0302 23.9004C30.1789 23.6938 30.3414 23.4926 30.4983 23.2915C30.6553 23.0904 30.6553 22.8893 30.4983 22.7736C30.3414 22.6579 30.1569 22.713 30.0109 22.9003L28.1658 25.2751C27.951 25.5506 27.7748 25.5506 27.5407 25.2944C27.1735 24.8848 26.8063 24.4771 26.4391 24.0712C26.4126 24.0337 26.3785 24.0022 26.3392 23.9785C26.2999 23.9549 26.2561 23.9396 26.2106 23.9336C26.1651 23.9277 26.1189 23.9312 26.0748 23.944C26.0307 23.9567 25.9897 23.9785 25.9544 24.0078C25.9233 24.0395 25.899 24.0773 25.883 24.1187C25.867 24.1602 25.8597 24.2045 25.8615 24.2489C25.8633 24.2933 25.8742 24.3369 25.8935 24.3769C25.9128 24.417 25.9401 24.4526 25.9737 24.4817C26.5245 25.0914 27.0753 25.6984 27.626 26.3027C27.8216 26.512 27.9951 26.5038 28.1768 26.2751C28.5045 25.8646 28.8212 25.4486 29.1462 25.0326L29.2013 24.9583C29.2227 24.9227 29.2513 24.892 29.2852 24.8681C29.3192 24.8442 29.3578 24.8278 29.3985 24.8197C29.4393 24.8117 29.4812 24.8122 29.5217 24.8214C29.5622 24.8305 29.6003 24.8481 29.6336 24.8729C29.6671 24.8976 29.6948 24.9293 29.715 24.9656C29.7353 25.002 29.7475 25.0423 29.7509 25.0837C29.7542 25.1252 29.7487 25.167 29.7347 25.2061C29.7206 25.2453 29.6984 25.281 29.6694 25.3109C29.4353 25.6249 29.193 25.9335 28.9562 26.242L28.6285 26.6608C28.5483 26.7736 28.4433 26.8665 28.3217 26.9325C28.2 26.9984 28.0649 27.0356 27.9266 27.0412C27.7884 27.0468 27.6507 27.0206 27.5241 26.9647C27.3975 26.9088 27.2855 26.8246 27.1964 26.7187C26.6328 26.1015 26.0719 25.4808 25.5138 24.8563C25.3817 24.7259 25.2948 24.5565 25.2661 24.373C25.2373 24.1895 25.2682 24.0016 25.3541 23.837C25.4196 23.6889 25.5259 23.5623 25.6604 23.4721C25.7949 23.3819 25.9523 23.3317 26.1142 23.3274Z" />
<path d="M21.9861 17.8864C22.0803 17.8939 22.168 17.9373 22.2312 18.0076C22.6415 18.4181 23.0573 18.8341 23.4594 19.2391C23.6246 19.4071 23.6302 19.5779 23.4952 19.7047C23.4638 19.7344 23.4263 19.757 23.3854 19.771C23.3445 19.785 23.301 19.7901 23.258 19.786C23.2149 19.7818 23.1733 19.7684 23.1358 19.7468C23.0984 19.7252 23.066 19.6958 23.0408 19.6606C22.6277 19.2501 22.2147 18.8341 21.8098 18.4291C21.7564 18.3866 21.7182 18.328 21.7009 18.2619C21.6835 18.1959 21.6879 18.126 21.7134 18.0627C21.736 18.0094 21.7741 17.9641 21.8227 17.9327C21.8713 17.9013 21.9282 17.8851 21.9861 17.8864Z"/>
<path d="M33.2107 19.7873C33.1615 19.7875 33.113 19.7755 33.0696 19.7524C33.0261 19.7293 32.9891 19.6957 32.9618 19.6548C32.9345 19.6138 32.9178 19.5668 32.9132 19.5178C32.9086 19.4688 32.9161 19.4194 32.9353 19.374C32.9428 19.3515 32.955 19.3309 32.9711 19.3134C33.4255 18.8589 33.8744 18.4016 34.3342 17.9525C34.3619 17.9281 34.3941 17.9096 34.429 17.8979C34.4639 17.8862 34.5008 17.8816 34.5376 17.8844C34.5743 17.8872 34.61 17.8974 34.6428 17.9143C34.6755 17.9312 34.7045 17.9545 34.7281 17.9828C34.7564 18.0098 34.7786 18.0425 34.7933 18.0788C34.8079 18.1151 34.8147 18.1541 34.8131 18.1932C34.8116 18.2323 34.8017 18.2706 34.7842 18.3056C34.7667 18.3405 34.7419 18.3714 34.7115 18.396C34.4857 18.6357 34.2489 18.8671 34.0148 19.0985L33.464 19.6495C33.4009 19.727 33.3099 19.7764 33.2107 19.7873Z" />
<path d="M23.5887 29.3826C23.5881 29.4295 23.5777 29.4757 23.5583 29.5184C23.5388 29.5611 23.5108 29.5993 23.4758 29.6305C23.0627 30.0438 22.6496 30.457 22.2311 30.873C22.2062 30.9089 22.1739 30.9389 22.1362 30.961C22.0986 30.9831 22.0566 30.9968 22.0132 31.001C21.9697 31.0052 21.9259 30.9999 21.8848 30.9854C21.8436 30.9709 21.8061 30.9476 21.7748 30.9172C21.7436 30.8867 21.7193 30.8498 21.7038 30.809C21.6882 30.7682 21.6818 30.7246 21.6848 30.681C21.6879 30.6375 21.7004 30.5951 21.7215 30.5569C21.7426 30.5187 21.7717 30.4856 21.807 30.4598C22.22 30.041 22.6331 29.6333 23.0517 29.2145C23.0934 29.1609 23.152 29.1229 23.2181 29.1069C23.2841 29.0909 23.3536 29.0978 23.4152 29.1264C23.4648 29.1491 23.5073 29.185 23.5379 29.2302C23.5685 29.2753 23.5861 29.3281 23.5887 29.3826Z" />
<path d="M34.7944 30.7133C34.8013 30.7643 34.7937 30.8162 34.7726 30.8631C34.7515 30.91 34.7176 30.9501 34.6749 30.9787C34.6322 31.0074 34.5823 31.0236 34.5309 31.0253C34.4795 31.0271 34.4287 31.0144 34.3841 30.9888C34.3248 30.9582 34.2708 30.9182 34.2243 30.8703C33.825 30.4736 33.4285 30.0741 33.0319 29.6774C32.9898 29.6449 32.9558 29.6032 32.9324 29.5554C32.909 29.5076 32.8969 29.4551 32.897 29.4019C32.9015 29.3468 32.9215 29.294 32.9546 29.2497C32.9877 29.2053 33.0326 29.1712 33.0842 29.1512C33.1384 29.1277 33.1987 29.1223 33.2562 29.1357C33.3138 29.149 33.3655 29.1806 33.4037 29.2256C33.5992 29.4102 33.7865 29.6003 33.9793 29.7766L34.6512 30.4515C34.7307 30.5172 34.782 30.6109 34.7944 30.7133Z"/>
<path d="M28.5431 16.5172C28.5431 16.7927 28.5431 17.0682 28.5431 17.3602C28.5431 17.5971 28.4192 17.7404 28.2319 17.7349C28.0447 17.7293 27.9565 17.5916 27.9565 17.3629C27.9565 16.7954 27.9565 16.2252 27.9565 15.6576C27.9565 15.4262 28.0694 15.2968 28.254 15.2968C28.4385 15.2968 28.5514 15.4262 28.5541 15.6576C28.5459 15.9442 28.5431 16.2307 28.5431 16.5172Z" />
<path d="M20.3226 24.7433C20.0472 24.7433 19.747 24.7433 19.4606 24.7433C19.2293 24.7433 19.0999 24.6304 19.0999 24.4458C19.0999 24.2612 19.2293 24.1455 19.4606 24.1455C20.0371 24.1455 20.6108 24.1455 21.1818 24.1455C21.3966 24.1455 21.5315 24.2612 21.537 24.421C21.5425 24.5808 21.4049 24.7268 21.1818 24.7295C20.8954 24.7461 20.609 24.7433 20.3226 24.7433Z" />
<path d="M36.1629 24.7434H35.3202C35.0834 24.7434 34.9402 24.6194 34.9457 24.4349C34.9512 24.2503 35.0889 24.1594 35.3202 24.1594C35.8875 24.1594 36.4548 24.1594 37.0221 24.1594C37.2535 24.1594 37.3829 24.2723 37.3829 24.4569C37.3829 24.6415 37.2535 24.7544 37.0221 24.7572C36.7412 24.7462 36.4493 24.7434 36.1629 24.7434Z"/>
</svg>
