<svg width="79" height="75" viewBox="0 0 79 75" fill="none" xmlns="http://www.w3.org/2000/svg">
<path d="M0.855469 68.1677C0.855469 65.8765 1.72406 64.1838 3.36103 62.9004C3.56128 62.7638 3.7271 62.5825 3.84545 62.3709C3.9638 62.1594 4.03145 61.9232 4.04309 61.6811C4.5275 55.9378 5.05646 50.1945 5.55479 44.4512C5.95011 39.9022 6.30645 35.3504 6.70178 30.8098C7.13979 25.7411 7.5945 20.6743 8.06591 15.6094C8.11881 15.0275 7.82371 14.7742 7.43117 14.4763C6.67608 13.9098 6.04722 13.1923 5.58466 12.3695C5.1221 11.5466 4.83597 10.6364 4.74449 9.69692C4.65302 8.7574 4.75819 7.80913 5.05333 6.91249C5.34847 6.01586 5.8271 5.19052 6.45873 4.48902C7.09037 3.78753 7.86117 3.22526 8.72205 2.83803C9.58292 2.45079 10.515 2.24708 11.4589 2.23986C12.4029 2.23264 13.338 2.42208 14.2047 2.79611C15.0713 3.17013 15.8507 3.72055 16.4929 4.4123C16.6446 4.60165 16.8383 4.75306 17.0586 4.85454C17.279 4.95602 17.52 5.00477 17.7624 4.99693C24.0319 4.98023 30.3023 4.98023 36.5736 4.99693C36.8281 5.02627 37.0848 4.96468 37.2982 4.82305C37.5117 4.68142 37.6682 4.46887 37.7401 4.22299C38.2573 3.04767 39.1335 2.06639 40.243 1.41991C41.3525 0.773439 42.6383 0.495002 43.9158 0.62455C45.1933 0.754097 46.397 1.28497 47.3541 2.14101C48.3113 2.99704 48.9726 4.13425 49.2434 5.38947C49.3712 5.99896 49.7068 6.54513 50.1927 6.93456C57.1341 12.9349 64.0578 18.9464 70.9638 24.969C71.1267 25.1302 71.3242 25.2521 71.5413 25.3254C71.7584 25.3988 71.9894 25.4216 72.2166 25.3922C74.622 25.1639 76.4538 26.1077 77.5896 28.2541C78.0579 29.1832 78.2361 30.2315 78.101 31.2631C77.966 32.2947 77.524 33.2619 76.8324 34.0392C76.1339 34.8647 75.1829 35.4371 74.1264 35.6678C73.6421 35.7661 73.2144 36.0473 72.9321 36.4528C68.745 42.0634 64.5477 47.6675 60.3403 53.2652C60.1883 53.4376 60.0862 53.6482 60.0449 53.8744C60.0037 54.1005 60.025 54.3336 60.1064 54.5486C60.4896 55.6924 60.5959 56.9109 60.4166 58.1038C60.2374 59.2968 59.7776 60.4302 59.0752 61.4109C58.3727 62.3916 57.4476 63.1917 56.3758 63.7453C55.3041 64.299 54.1162 64.5905 52.9099 64.5959C51.8986 64.6178 50.8939 64.4289 49.9597 64.0411C49.0255 63.6534 48.1824 63.0753 47.4839 62.3436C47.3433 62.1771 47.1553 62.0574 46.945 62.0002C46.7347 61.943 46.5119 61.9511 46.3063 62.0235C35.4545 64.7926 24.6026 67.5561 13.7508 70.3141C13.5383 70.3745 13.3415 70.4806 13.1742 70.6248C13.0069 70.7691 12.873 70.948 12.7819 71.1493C11.4261 73.4433 8.86213 74.7211 6.44844 74.3397C3.60323 73.8915 1.57372 72.0067 0.97239 69.2367C0.910489 68.8832 0.871438 68.5262 0.855469 68.1677ZM23.7062 41.4751C23.1856 41.3554 23.0018 41.7535 22.7986 42.1293C21.724 44.0725 20.6513 46.0213 19.5804 47.9756C16.9449 52.7548 14.3048 57.533 11.66 62.3102C11.3983 62.7807 11.3593 63.1037 11.7992 63.5268C12.8534 64.5304 13.4915 65.894 13.5865 67.3464C13.6505 68.1816 13.9902 68.1816 14.6277 68.0006C18.2106 67.0513 21.7992 66.127 25.3905 65.2C31.8864 63.5296 38.3823 61.8592 44.8782 60.1889C45.5407 60.019 45.7774 59.8158 45.5491 59.0753C45.226 58.0628 45.1315 56.9913 45.2726 55.938C45.4136 54.8846 45.7867 53.8757 46.3648 52.984C46.6794 52.4717 46.6989 52.2212 46.1337 51.9094C45.0201 51.2885 43.94 50.5926 42.8487 49.9244C37.9155 46.9233 32.9842 43.9222 28.0547 40.9211C27.6844 40.6928 27.3559 40.4172 26.8548 40.7624C25.9381 41.4009 24.8085 41.6566 23.7062 41.4751ZM6.18118 61.038C6.1088 61.4444 6.30646 61.5948 6.70456 61.5948C7.48753 61.5334 8.27514 61.6145 9.02916 61.8342C9.09532 61.8624 9.16652 61.877 9.23846 61.8769C9.31039 61.8768 9.38157 61.8622 9.44768 61.8338C9.51379 61.8054 9.57344 61.7639 9.62305 61.7118C9.67266 61.6598 9.71118 61.5981 9.73629 61.5307C9.8727 61.2774 10.0147 61.0324 10.1622 60.7791C13.7591 54.2646 17.3597 47.7501 20.964 41.2357C21.2424 40.7401 21.2702 40.4005 20.8693 39.9217C20.1464 39.1136 19.7467 38.0674 19.7467 36.9832C19.7467 35.899 20.1464 34.8528 20.8693 34.0447C21.0088 33.9145 21.0996 33.7405 21.1264 33.5516C21.1533 33.3626 21.1146 33.1702 21.0169 33.0063C18.5429 27.4384 16.0837 21.8705 13.6394 16.3026C13.4334 15.8349 13.1633 15.6511 12.6789 15.7458C12.0161 15.9061 11.3263 15.9194 10.6578 15.7848C10.2457 15.6957 10.101 15.8599 10.0592 16.2636C9.75578 19.8521 9.43562 23.4379 9.1266 27.0236C8.8482 30.3003 8.56981 33.5742 8.29141 36.851C8.00003 40.227 7.704 43.6048 7.40333 46.9846C7.15834 49.7407 6.91428 52.4959 6.67115 55.2501C6.49019 57.1877 6.33986 59.1143 6.18118 61.038ZM28.5391 34.5152C28.6171 34.5013 28.695 34.4929 28.7702 34.4762C32.8181 33.5631 36.8659 32.6509 40.9138 31.7396C41.0045 31.7338 41.0929 31.7083 41.1729 31.6651C41.2528 31.6218 41.3224 31.5617 41.3769 31.489C41.4314 31.4162 41.4695 31.3325 41.4886 31.2436C41.5076 31.1547 41.5072 31.0627 41.4873 30.974C41.3912 30.2684 41.5045 29.5501 41.813 28.9083C42.1582 28.2736 41.9411 27.9562 41.4288 27.5637C37.0636 24.2007 32.7104 20.8228 28.3693 17.4301C25.2531 15.0173 22.1379 12.5981 19.0236 10.1723C18.5503 9.80204 18.3276 9.74079 18.1884 10.4507C17.881 12.0338 16.9984 13.447 15.7107 14.4178C15.371 14.6767 15.2429 14.8967 15.4323 15.3282C17.8821 20.8367 20.3218 26.3517 22.7513 31.8732C22.9462 32.3159 23.1605 32.5024 23.6867 32.43C24.493 32.3063 25.3179 32.4045 26.0727 32.7139C26.8275 33.0234 27.4838 33.5325 27.9712 34.1867C28.1132 34.3983 28.2524 34.596 28.5391 34.5152ZM59.3241 29.6015C61.8826 29.6015 64.4438 29.6015 67.0023 29.6015C67.4839 29.6015 67.7706 29.4902 67.9098 28.9696C68.1243 28.1826 68.5498 27.4693 69.1403 26.9067C69.4995 26.5615 69.4605 26.3499 69.0874 26.0464C67.7873 24.9551 66.5123 23.8193 65.2317 22.7057C60.0257 18.1864 54.8224 13.6625 49.622 9.13389C49.1766 8.74413 49.0263 8.83044 48.8091 9.31485C48.3167 10.4237 47.4801 11.3443 46.4233 11.9401C46.2367 12.026 46.0859 12.174 45.9965 12.3589C45.9071 12.5438 45.8848 12.754 45.9333 12.9535C46.1198 14.6656 46.2674 16.3805 46.4316 18.0954C46.6543 20.4061 46.8854 22.7168 47.1025 25.0275C47.1554 25.5843 47.3475 25.9573 47.96 26.1411C48.5982 26.3468 49.1792 26.6996 49.656 27.1711C50.1328 27.6426 50.4921 28.2196 50.705 28.8554C50.9166 29.4122 51.22 29.596 51.7991 29.5904C54.3074 29.5848 56.8158 29.6015 59.3241 29.6015ZM70.9499 35.6566C70.9499 35.5035 70.9499 35.484 70.627 35.317C69.9653 34.9964 69.3777 34.5415 68.9017 33.9811C68.4258 33.4208 68.0718 32.7674 67.8625 32.0625C67.7122 31.5837 67.3976 31.5754 67.0273 31.5781C61.9123 31.6115 56.7981 31.6412 51.6849 31.6672C51.4658 31.6414 51.2449 31.6981 51.0653 31.8263C50.8857 31.9544 50.7602 32.1448 50.7133 32.3604C50.4636 33.1097 49.9953 33.7671 49.3687 34.248C48.9427 34.5653 48.9539 34.8883 49.1098 35.3309C50.6892 39.8075 52.2584 44.2888 53.8174 48.7746C53.8643 48.9632 53.966 49.1337 54.1097 49.2645C54.2534 49.3954 54.4326 49.4806 54.6248 49.5096C55.5546 49.6989 56.3731 50.1527 57.2027 50.6232C57.8124 50.96 58.1465 52.0152 58.8536 51.7368C59.4355 51.4946 59.764 50.6399 60.2038 50.0664L70.5769 36.2162C70.7077 36.013 70.8358 35.8181 70.9499 35.6566ZM18.3331 6.98189C18.5531 7.18234 18.6561 7.29091 18.773 7.38C26.852 13.6606 34.9255 19.9449 42.9934 26.2329C43.7423 26.8204 44.185 26.2524 44.7473 26.0659C45.3097 25.8794 45.1064 25.42 45.0703 25.0581C44.7121 21.3759 44.3455 17.6899 43.9706 14.0002C43.862 12.8867 43.8564 12.8867 42.6733 12.7809C39.9339 12.5025 37.6816 10.4535 37.3002 7.76975C37.1972 7.05706 36.9133 6.95405 36.3008 6.95684C30.5584 6.97354 24.8151 6.97354 19.0709 6.95684L18.3331 6.98189ZM51.632 49.0252C51.6042 48.9361 51.5736 48.8359 51.5402 48.7468C50.0554 44.4539 48.5771 40.1602 47.1053 35.8654C47.0775 35.7136 46.9908 35.5789 46.8641 35.4907C46.7373 35.4026 46.5809 35.3682 46.4288 35.3949C45.0925 35.4395 43.8815 35.047 42.9656 34.0475C42.7964 33.8386 42.5667 33.6871 42.308 33.6138C42.0494 33.5405 41.7743 33.5491 41.5207 33.6383C37.8403 34.5124 34.1599 35.381 30.4656 36.1939C29.4801 36.4111 28.6505 36.6199 28.7952 37.8838C28.7955 37.9893 28.7707 38.0933 28.7229 38.1873C28.528 38.6299 28.6867 38.8888 29.0931 39.1338C35.344 42.9255 41.5875 46.7303 47.8236 50.548C47.9436 50.6471 48.093 50.7038 48.2485 50.7093C48.404 50.7148 48.5571 50.6689 48.6838 50.5786C49.4443 50.0653 50.2941 49.699 51.1894 49.4985C51.4177 49.4344 51.6488 49.3537 51.632 49.0252ZM47.3253 56.9595C47.3171 57.6929 47.4555 58.4206 47.7324 59.0999C48.0093 59.7791 48.4191 60.3962 48.9378 60.9149C49.4564 61.4335 50.0735 61.8433 50.7527 62.1203C51.432 62.3972 52.1597 62.5356 52.8932 62.5274C54.0023 62.5329 55.088 62.2087 56.0124 61.5959C56.9369 60.9832 57.6584 60.1095 58.0854 59.0859C58.5124 58.0623 58.6256 56.9349 58.4105 55.8468C58.1955 54.7588 57.662 53.7592 56.8777 52.9749C56.0935 52.1907 55.0939 51.6571 54.0058 51.4421C52.9178 51.2271 51.7903 51.3403 50.7667 51.7672C49.7431 52.1942 48.8694 52.9157 48.2567 53.8402C47.644 54.7647 47.3198 55.8504 47.3253 56.9595ZM16.2563 9.05872C16.2648 8.438 16.1501 7.82176 15.9189 7.24563C15.6877 6.66951 15.3446 6.14493 14.9094 5.70223C14.4743 5.25954 13.9556 4.90751 13.3835 4.66651C12.8114 4.4255 12.1973 4.30031 11.5765 4.29816C10.3183 4.29594 9.11083 4.79362 8.21962 5.6817C7.32841 6.56978 6.82649 7.77552 6.82427 9.03367C6.82206 10.2918 7.31972 11.4993 8.2078 12.3905C9.09588 13.2817 10.3016 13.7837 11.5598 13.7859C12.1805 13.7908 12.7959 13.6716 13.3699 13.4354C13.944 13.1992 14.465 12.8507 14.9025 12.4103C15.34 11.97 15.6851 11.4467 15.9176 10.8711C16.1501 10.2956 16.2652 9.67938 16.2563 9.05872ZM7.20567 72.2796C8.34716 72.2866 9.44468 71.8399 10.2568 71.0377C11.0689 70.2355 11.5291 69.1435 11.5361 68.002C11.5431 66.8605 11.0964 65.763 10.2942 64.9509C9.49201 64.1388 8.40006 63.6786 7.25857 63.6716C6.11708 63.6646 5.01955 64.1113 4.20744 64.9135C3.39532 65.7157 2.93514 66.8076 2.92813 67.9491C2.92111 69.0906 3.36784 70.1881 4.17003 71.0003C4.97223 71.8124 6.06418 72.2726 7.20567 72.2796ZM47.3141 6.72855C47.3282 6.19893 47.2346 5.67197 47.0391 5.17954C46.8437 4.68711 46.5503 4.23946 46.1769 3.86366C45.8034 3.48786 45.3576 3.19173 44.8664 2.99318C44.3752 2.79463 43.8488 2.69779 43.3191 2.70852C42.7895 2.70079 42.2636 2.79751 41.7713 2.99315C41.2791 3.1888 40.8303 3.47953 40.4505 3.84874C40.0707 4.21794 39.7673 4.65838 39.5578 5.14487C39.3483 5.63136 39.2368 6.15437 39.2295 6.68401C39.2346 7.76693 39.6655 8.80439 40.4292 9.57222C41.1928 10.34 42.2279 10.7766 43.3108 10.7876C43.8404 10.7846 44.3642 10.6773 44.8522 10.4716C45.3403 10.2659 45.7829 9.96589 46.1548 9.58882C46.5267 9.21176 46.8205 8.76502 47.0195 8.2742C47.2184 7.78338 47.3185 7.25814 47.3141 6.72855ZM72.9015 33.7329C73.7334 33.7405 74.5351 33.4208 75.1335 32.8427C75.7319 32.2646 76.0791 31.4745 76.1002 30.6427C76.096 29.7843 75.7566 28.9616 75.1543 28.3499C74.5521 27.7383 73.7346 27.3862 72.8764 27.3688C72.0307 27.3791 71.2232 27.723 70.6299 28.3258C70.0365 28.9285 69.7053 29.7413 69.7083 30.5871C69.7021 31.0059 69.7808 31.4217 69.9397 31.8093C70.0985 32.1969 70.3343 32.5483 70.6327 32.8423C70.9311 33.1362 71.286 33.3667 71.6759 33.5198C72.0659 33.6729 72.4827 33.7454 72.9015 33.7329ZM43.5725 30.601C43.5658 30.96 43.6306 31.3167 43.7631 31.6504C43.8955 31.9841 44.093 32.2882 44.344 32.5449C44.5951 32.8016 44.8946 33.0059 45.2253 33.1458C45.5559 33.2857 45.9111 33.3585 46.2701 33.3599C46.9818 33.3468 47.6614 33.0617 48.1694 32.5631C48.6773 32.0645 48.975 31.3902 49.0012 30.6789C49.0105 30.3197 48.9476 29.9623 48.8162 29.6279C48.6848 29.2935 48.4876 28.9889 48.2363 28.7321C47.985 28.4753 47.6846 28.2716 47.3531 28.1331C47.0216 27.9945 46.6656 27.924 46.3063 27.9256C44.6972 27.9117 43.5836 29.0002 43.5725 30.601ZM26.7908 36.9428C26.7945 36.6163 26.7336 36.2922 26.6116 35.9893C26.4896 35.6864 26.3089 35.4106 26.0799 35.1777C25.8509 34.9449 25.5782 34.7596 25.2774 34.6325C24.9765 34.5054 24.6536 34.4391 24.327 34.4373C23.6676 34.4535 23.0397 34.7227 22.5733 35.1891C22.1069 35.6555 21.8377 36.2834 21.8214 36.9428C21.819 37.6025 22.0749 38.237 22.5343 38.7104C22.9937 39.1839 23.6202 39.4588 24.2797 39.4762C24.6129 39.482 24.9439 39.4202 25.2526 39.2946C25.5613 39.1691 25.8414 38.9823 26.0761 38.7456C26.3107 38.5089 26.495 38.2271 26.6178 37.9173C26.7407 37.6075 26.7995 37.276 26.7908 36.9428Z" />
<path d="M12.5591 33.6383C12.2362 36.7953 11.8882 40.2168 11.5346 43.6383C11.4761 44.195 11.4177 44.7797 11.3258 45.3448C11.2844 45.5933 11.1502 45.8168 10.9504 45.9701C10.7505 46.1234 10.4999 46.1951 10.2492 46.1707C9.99846 46.1463 9.76635 46.0277 9.5998 45.8387C9.43325 45.6497 9.34467 45.4045 9.35198 45.1527C9.4188 44.0085 9.54408 42.8671 9.65822 41.7285C9.93661 38.8749 10.215 36.0214 10.5435 33.1734C10.666 32.0598 11.0446 31.6645 11.7072 31.7313C12.3698 31.7981 12.6287 32.2741 12.5591 33.6383Z" />
<path d="M10.8944 28.4434C10.9108 28.2034 10.9462 27.9651 11.0002 27.7307C11.0557 27.5089 11.1849 27.3125 11.3668 27.1738C11.5486 27.0351 11.7722 26.9624 12.0008 26.9676C12.2294 26.9728 12.4494 27.0556 12.6248 27.2023C12.8001 27.3491 12.9203 27.5511 12.9657 27.7753C13.076 28.3395 13.0049 28.9243 12.7625 29.4456C12.6854 29.629 12.5485 29.7808 12.3741 29.8764C12.1997 29.9719 11.998 30.0056 11.802 29.9718C11.5915 29.9579 11.3917 29.8733 11.2351 29.7319C11.0786 29.5904 10.9742 29.4003 10.939 29.1923C10.9045 28.9442 10.8896 28.6938 10.8944 28.4434Z" />
</svg>
