<svg width="33" height="32" viewBox="0 0 33 32" fill="none" xmlns="http://www.w3.org/2000/svg">
<rect x="0.567627" width="32" height="32" rx="16" fill="#5865F2"/>
<path d="M23.3237 9.23789C22.1124 8.66493 20.8133 8.24279 19.4551 8.00101C19.4304 7.99635 19.4057 8.00801 19.3929 8.03133C19.2259 8.33763 19.0408 8.73722 18.9112 9.0513C17.4504 8.82585 15.997 8.82585 14.5662 9.0513C14.4365 8.73024 14.2448 8.33763 14.077 8.03133C14.0642 8.00879 14.0395 7.99713 14.0148 8.00101C12.6573 8.24202 11.3583 8.66415 10.1461 9.23789C10.1357 9.24256 10.1267 9.25034 10.1207 9.26044C7.65672 13.055 6.98173 16.7563 7.31286 20.4118C7.31435 20.4297 7.32409 20.4468 7.33758 20.4576C8.96324 21.6883 10.538 22.4354 12.0835 22.9306C12.1082 22.9384 12.1344 22.9291 12.1501 22.9081C12.5157 22.3934 12.8416 21.8508 13.121 21.2801C13.1375 21.2467 13.1218 21.2071 13.0881 21.1939C12.5712 20.9917 12.079 20.7453 11.6055 20.4654C11.568 20.4429 11.565 20.3877 11.5995 20.3612C11.6991 20.2843 11.7988 20.2042 11.8939 20.1233C11.9111 20.1086 11.9351 20.1055 11.9554 20.1148C15.0658 21.5787 18.4333 21.5787 21.507 20.1148C21.5273 20.1047 21.5513 20.1078 21.5692 20.1226C21.6644 20.2034 21.764 20.2843 21.8644 20.3612C21.8989 20.3877 21.8966 20.4429 21.8592 20.4654C21.3857 20.7507 20.8935 20.9917 20.3758 21.1931C20.3421 21.2063 20.3271 21.2467 20.3436 21.2801C20.629 21.85 20.9549 22.3926 21.3138 22.9073C21.3288 22.9291 21.3557 22.9384 21.3804 22.9306C22.9334 22.4354 24.5081 21.6883 26.1338 20.4576C26.148 20.4468 26.157 20.4304 26.1585 20.4126C26.5548 16.1865 25.4948 12.5155 23.3485 9.26121C23.3432 9.25034 23.3342 9.24256 23.3237 9.23789ZM13.5855 18.186C12.6491 18.186 11.8774 17.2998 11.8774 16.2114C11.8774 15.123 12.6341 14.2367 13.5855 14.2367C14.5444 14.2367 15.3086 15.1307 15.2936 16.2114C15.2936 17.2998 14.5369 18.186 13.5855 18.186ZM19.9009 18.186C18.9644 18.186 18.1928 17.2998 18.1928 16.2114C18.1928 15.123 18.9494 14.2367 19.9009 14.2367C20.8598 14.2367 21.6239 15.1307 21.6089 16.2114C21.6089 17.2998 20.8598 18.186 19.9009 18.186Z" fill="white"/>
</svg>
