<svg width="73" height="75" viewBox="0 0 73 75" fill="none" xmlns="http://www.w3.org/2000/svg">
<path d="M40.4064 0.722412C49.7285 0.722412 59.0507 0.722412 68.3728 0.722412C70.151 0.722412 71.5185 1.41165 72.3373 3.03549C72.591 3.54949 72.7185 4.11653 72.7095 4.68965C72.7095 21.0604 72.7095 37.4302 72.7095 53.7991C72.7095 56.0294 70.9891 57.6891 68.6623 57.758C67.7139 57.7884 66.7627 57.7994 65.8144 57.758C65.1444 57.7277 64.8825 57.9235 64.9045 58.6403C64.9569 60.1869 64.8467 61.7418 64.9377 63.2857C65.0672 65.4913 63.5178 67.6582 60.5872 67.6555C57.5876 67.6555 54.5908 67.6748 51.5913 67.6555C50.8883 67.6555 50.6153 67.8374 50.6401 68.579C50.6925 70.0016 50.6622 71.427 50.6401 72.8523C50.6401 73.8558 50.2376 74.2749 49.2313 74.2776C43.3352 74.2776 37.4372 74.2776 31.5373 74.2776C30.5751 74.2776 30.1588 73.8531 30.1588 72.8992C30.1588 71.4766 30.1147 70.0485 30.1588 68.6259C30.1891 67.8567 29.93 67.6527 29.1801 67.6555C21.1078 67.6803 13.0354 67.6693 4.96312 67.6748C4.36335 67.6902 3.76424 67.6243 3.18213 67.479C2.35071 67.2637 1.61485 66.7773 1.09103 66.0966C0.567214 65.416 0.285368 64.5801 0.290098 63.7213C0.290098 47.3285 0.290098 30.9348 0.290098 14.5402C0.294984 13.5134 0.701641 12.5294 1.42303 11.7987C2.14442 11.0681 3.1232 10.6489 4.14982 10.6309C5.14783 10.5978 6.15136 10.573 7.14661 10.6309C7.9351 10.6832 8.12533 10.3855 8.10052 9.64388C8.0509 8.09723 8.08121 6.54783 8.08672 4.99843C8.08672 2.39312 9.74088 0.730683 12.3517 0.727926C20.8982 0.727926 29.4448 0.727926 37.9913 0.727926L40.4064 0.722412ZM30.7571 55.6159C28.5294 54.4966 28.2758 53.6419 29.4475 51.5356C32.5537 45.9445 35.658 40.3516 38.7605 34.7569C39.1271 34.0952 39.5407 33.5245 40.3926 33.5107C41.2445 33.4969 41.6718 34.0621 42.0468 34.7238C45.2025 40.4215 48.3647 46.1256 51.5334 51.8361C52.5121 53.6033 52.1123 54.7254 50.2349 55.4808C50.2156 55.4808 50.2156 55.5552 50.2018 55.6159H61.6789C63.9782 55.6159 66.2775 55.6159 68.5713 55.6159C69.7761 55.6159 70.4185 55.0645 70.6114 53.8625C70.6524 53.5407 70.6671 53.2162 70.6556 52.892C70.6556 40.7449 70.6556 28.5969 70.6556 16.448C70.6556 15.3452 70.6556 15.3452 69.5528 15.3452C57.7053 15.3452 45.8578 15.3452 34.0103 15.3452C33.6004 15.3587 33.1927 15.2805 32.8169 15.1165C32.4411 14.9524 32.1066 14.7065 31.8378 14.3968C30.6495 13.1149 29.4034 11.8853 28.1904 10.6226C28.0859 10.5005 27.9561 10.4027 27.8099 10.336C27.6637 10.2693 27.5046 10.2354 27.344 10.2366C24.6422 10.2366 21.9431 10.2532 19.2441 10.2366C18.6927 10.2366 18.5521 10.4544 18.5686 10.9534C18.5934 11.7033 18.5686 12.4532 18.5686 13.2031C18.5686 14.6257 17.8684 15.3259 16.4568 15.3342C14.6593 15.3342 12.8728 15.359 11.0587 15.3342C10.3998 15.3342 10.1462 15.4831 10.1462 16.2054C10.1682 28.5528 10.1747 40.9003 10.1655 53.2477C10.1655 54.946 10.8409 55.6187 12.5199 55.6187H30.7516L30.7571 55.6159ZM2.36056 39.1211C2.36056 47.0243 2.36056 54.9212 2.36056 62.8115C2.3523 63.181 2.38093 63.5505 2.44603 63.9143C2.65556 64.9261 3.30895 65.4885 4.34005 65.4885C12.7101 65.4995 21.0802 65.5051 29.4503 65.5051C30.0265 65.5051 30.1836 65.2762 30.1671 64.7469C30.1395 63.8729 30.1423 62.9962 30.1671 62.1223C30.1601 61.6166 30.3423 61.1265 30.6778 60.748C31.0134 60.3696 31.4782 60.1302 31.9812 60.0766C32.3506 60.0187 32.7255 60.0077 33.0839 59.9801C33.3183 59.9608 33.5168 59.914 33.6022 59.6438C33.6774 59.4332 33.7011 59.2077 33.6714 58.9861C33.6418 58.7645 33.5596 58.5532 33.4318 58.3698C33.3039 58.1864 33.1341 58.0362 32.9364 57.9317C32.7388 57.8272 32.519 57.7714 32.2955 57.7691C25.7477 57.7691 19.2 57.7222 12.655 57.7911C9.95871 57.8187 8.02884 56.0405 8.04538 53.2036C8.12257 40.1605 8.08122 27.1174 8.08122 14.0743C8.08122 13.8482 8.08122 13.6249 8.08122 13.3988C8.10879 12.9632 7.9351 12.7537 7.47745 12.762C6.35262 12.762 5.22779 12.7454 4.10295 12.7813C3.25933 12.8089 2.68037 13.3327 2.44879 14.1598C2.35668 14.5487 2.32047 14.9488 2.34126 15.348L2.36056 39.1211ZM40.4064 2.88661C31.064 2.88661 21.7189 2.88661 12.371 2.88661C11.0063 2.88661 10.2123 3.53174 10.1903 4.81647C10.1406 7.41351 10.1903 10.0133 10.1655 12.6103C10.1655 13.0266 10.3419 13.2003 10.7499 13.1976C12.473 13.1976 14.1961 13.1976 15.922 13.1976C16.3851 13.1976 16.5312 12.9743 16.5202 12.5469C16.5009 11.8963 16.5202 11.2457 16.5202 10.5978C16.5202 8.80853 17.135 8.14686 18.9408 8.11653C21.7639 8.08621 24.587 8.11653 27.4129 8.11653C27.8496 8.10154 28.284 8.18466 28.6843 8.35976C29.0846 8.53486 29.4406 8.79749 29.726 9.12833C30.8287 10.3524 32.0087 11.5103 33.1391 12.7124C33.2756 12.8702 33.4452 12.9962 33.6357 13.0815C33.8262 13.1667 34.0331 13.2092 34.2418 13.2058C46.1114 13.2058 57.981 13.2058 69.8505 13.2058C70.4708 13.2058 70.6776 12.9963 70.6638 12.3788C70.6335 10.0299 70.6638 7.69196 70.6638 5.33202C70.6638 3.54001 70.0049 2.88937 68.2294 2.88937C58.9477 2.88569 49.6716 2.88477 40.4009 2.88661H40.4064ZM39.3284 38.4043L39.1823 38.3905C36.5797 43.0865 33.9717 47.7788 31.3581 52.4675C31.0355 53.0464 31.0218 53.278 31.7137 53.5868C34.1674 54.6896 35.5734 56.5919 35.7995 59.3074C35.8381 59.8285 36.0173 60.005 36.5191 60.0022C39.118 59.9875 41.7168 59.9875 44.3157 60.0022C44.8258 60.0022 44.9829 59.8065 45.0298 59.2992C45.2806 56.5643 46.6839 54.6344 49.2258 53.5951C49.8213 53.3525 49.8406 53.1677 49.5539 52.6577C47.3208 48.6684 45.1152 44.6626 42.9014 40.665C42.4741 39.8958 42.0412 39.1294 41.6139 38.3602C41.4926 39.5815 41.5119 40.756 41.4843 41.9277C41.4571 42.1592 41.5012 42.3935 41.6105 42.5994C41.7198 42.8053 41.8893 42.973 42.0964 43.0801C42.5773 43.3586 42.9677 43.77 43.2205 44.2649C43.4734 44.7598 43.5779 45.3172 43.5217 45.8701C43.4788 46.574 43.1984 47.2425 42.7263 47.7663C42.2542 48.2901 41.6183 48.6382 40.9227 48.7538C40.227 48.8694 39.5128 48.7455 38.8967 48.4025C38.2806 48.0595 37.7991 47.5175 37.5309 46.8654C37.2357 46.1782 37.2015 45.407 37.4344 44.6964C37.6674 43.9858 38.1516 43.3846 38.7963 43.0056C39.072 42.8237 39.3477 42.6721 39.3312 42.2723C39.3146 40.9903 39.3229 39.6973 39.3229 38.4043H39.3284ZM40.4119 72.1134C42.8352 72.1134 45.2586 72.0997 47.6819 72.1134C48.2995 72.1134 48.509 71.9177 48.509 71.2864C48.4833 68.489 48.4833 65.6916 48.509 62.8942C48.509 62.3125 48.3188 62.1085 47.7288 62.1113C42.8582 62.1296 37.9876 62.1296 33.117 62.1113C32.5188 62.1113 32.3423 62.318 32.3451 62.8942C32.3451 65.6677 32.3451 68.4412 32.3175 71.2119C32.3175 71.9039 32.5381 72.119 33.2218 72.1079C35.6121 72.0941 38.0106 72.1134 40.4064 72.1134H40.4119ZM55.2222 57.7773H48.3987C47.4945 57.7773 47.216 58.1633 47.1719 59.3074C47.1361 60.2172 47.795 59.9636 48.2747 59.9912C49.893 60.0849 50.6567 60.8817 50.665 62.5303C50.665 63.2306 50.7063 63.9308 50.665 64.6283C50.6236 65.3259 50.8662 65.5299 51.5555 65.5216C54.555 65.4885 57.5546 65.5216 60.5514 65.5051C62.1063 65.5051 62.8589 64.7745 62.8754 63.2251C62.892 61.6757 62.8534 60.1263 62.892 58.5769C62.9085 57.9428 62.6742 57.7498 62.0649 57.7663C59.7656 57.7911 57.4912 57.7746 55.2167 57.7746L55.2222 57.7773ZM41.4071 45.6468C41.407 45.5147 41.3788 45.3842 41.3244 45.2639C41.27 45.1436 41.1906 45.0362 41.0915 44.9488C40.9925 44.8615 40.876 44.7962 40.7498 44.7573C40.6236 44.7184 40.4905 44.7068 40.3595 44.7232C40.2332 44.7167 40.1068 44.737 39.9889 44.7829C39.871 44.8287 39.7641 44.899 39.6753 44.9891C39.5865 45.0792 39.5177 45.1871 39.4736 45.3057C39.4295 45.4243 39.411 45.5509 39.4194 45.6771C39.3918 46.2781 39.7916 46.6503 40.4064 46.6365C40.5386 46.6396 40.6701 46.6157 40.7928 46.5662C40.9155 46.5168 41.0267 46.4428 41.1199 46.3489C41.213 46.255 41.2861 46.1431 41.3345 46.02C41.3829 45.8969 41.4058 45.7652 41.4016 45.633L41.4071 45.6468Z" />
<path d="M49.689 27.9168C51.1663 28.8859 52.5614 29.9749 53.8603 31.1727C56.3518 33.5457 58.1608 36.5438 59.0985 39.8543C59.2722 40.4526 59.5424 40.6814 60.1461 40.629C60.57 40.5838 60.9986 40.6251 61.406 40.7503C61.798 40.8488 62.1462 41.0747 62.3957 41.3926C62.6452 41.7105 62.782 42.1024 62.7845 42.5065C62.8093 44.0559 62.8121 45.6053 62.7845 47.1547C62.799 47.5874 62.6517 48.01 62.3713 48.3398C62.0909 48.6697 61.6976 48.8831 61.2682 48.9385C59.5569 49.1567 57.8251 49.1613 56.1127 48.9522C55.112 48.8337 54.4916 48.0452 54.4586 47.0224C54.4227 45.5722 54.4172 44.1221 54.4586 42.6747C54.4916 41.5002 55.2222 40.7614 56.4601 40.6594C57.0115 40.6125 57.0694 40.4278 56.9095 39.9646C54.941 34.2522 51.0813 30.4669 45.3303 28.6088C44.8589 28.4544 44.6383 28.5095 44.5032 29.0692C44.2578 30.172 43.5962 30.6517 42.4631 30.6599C41.0626 30.6599 39.6621 30.6599 38.2643 30.6599C37.178 30.6599 36.4722 30.1306 36.282 29.094C36.1662 28.4626 35.8768 28.4709 35.3998 28.6198C31.5094 29.798 28.1547 32.3021 25.9187 35.6969C25.0432 37.0078 24.3582 38.4364 23.8841 39.9398C23.7297 40.4195 23.8096 40.596 24.35 40.6511C25.7753 40.7945 26.4232 41.5443 26.4342 42.9835C26.4489 44.2333 26.4489 45.4831 26.4342 46.7329C26.4342 48.1472 25.7229 48.9605 24.3196 49.035C22.9209 49.1053 21.5195 49.1053 20.1208 49.035C18.814 48.9715 18.1496 48.3264 18.0697 47.0086C17.9847 45.5865 17.9782 44.1609 18.0504 42.7381C18.122 41.3431 18.9326 40.6097 20.3662 40.6594C21.2319 40.6869 21.5462 40.3837 21.797 39.5704C23.1918 34.8917 26.3196 30.9217 30.5421 28.4709L31.1817 28.0877C31.201 28.0877 31.2037 28.0463 31.2672 27.9278H29.6957C27.5701 27.9278 25.4445 27.9278 23.3216 27.9278C23.09 27.9 22.8555 27.9465 22.6519 28.0604C22.4483 28.1743 22.286 28.3499 22.1885 28.5619C21.7403 29.3207 21.0482 29.9053 20.2251 30.2202C19.4019 30.5351 18.4964 30.5619 17.6561 30.296C16.002 29.8025 14.7365 28.0353 14.8496 26.3729C14.8946 25.4781 15.2421 24.6251 15.8351 23.9535C16.4281 23.2819 17.2314 22.8314 18.1138 22.6758C18.9693 22.5072 19.8567 22.6376 20.6276 23.0451C21.3985 23.4526 22.006 24.1125 22.3484 24.9145C22.6407 25.6368 23.0239 25.7994 23.7269 25.7939C27.5517 25.7608 31.3756 25.7608 35.1985 25.7939C35.9153 25.7939 36.1497 25.5899 36.1387 24.8648C36.1166 23.0508 36.872 22.3422 38.6999 22.3395C39.8495 22.3395 40.9992 22.3395 42.1488 22.3395C43.712 22.3395 44.4977 23.1169 44.5528 24.6746C44.5914 25.7774 44.5915 25.7774 45.6694 25.7774C49.4933 25.7774 53.3172 25.7774 57.1411 25.7774C57.7503 25.7774 58.0619 25.612 58.299 25.0137C58.5707 24.3535 59.0164 23.7794 59.5885 23.3524C60.1607 22.9254 60.8379 22.6615 61.5481 22.5889C62.2583 22.5163 62.975 22.6376 63.6217 22.94C64.2684 23.2423 64.8211 23.7144 65.2208 24.3059C65.6206 24.8974 65.8524 25.5862 65.8917 26.2991C65.931 27.0119 65.7763 27.7221 65.444 28.354C65.1117 28.9858 64.6143 29.5158 64.0047 29.8874C63.3951 30.259 62.6961 30.4583 61.9822 30.4642C60.5652 30.4642 59.3907 29.8577 58.6739 28.6198C58.3403 28.0684 57.9544 27.9057 57.3451 27.914C54.828 27.9306 52.2585 27.9168 49.689 27.9168ZM58.5802 42.785C58.0564 42.785 57.5326 42.785 57.0087 42.785C56.6696 42.785 56.4959 42.9338 56.5014 43.2812C56.5014 44.304 56.4711 45.3269 56.5814 46.3497C56.631 46.8156 56.8571 46.9287 57.2789 46.9204C58.2301 46.9066 59.1784 46.8901 60.1268 46.9204C60.6396 46.9204 60.7719 46.6916 60.7554 46.2339C60.7334 45.5336 60.7554 44.8334 60.7388 44.1359C60.7058 42.7932 60.6975 42.7932 59.3301 42.7932L58.5802 42.785ZM42.4934 26.5686H42.4713C42.4713 26.0944 42.4548 25.6202 42.4713 25.1488C42.4879 24.6774 42.2867 24.4789 41.8097 24.4871C40.8613 24.5055 39.9138 24.5055 38.9673 24.4871C38.471 24.4871 38.3111 24.7049 38.3222 25.1681C38.3442 26.1165 38.3497 27.064 38.3387 28.0105C38.3387 28.4599 38.5179 28.6363 38.9645 28.6281C39.935 28.6078 40.9073 28.6078 41.8814 28.6281C42.3363 28.6281 42.51 28.4351 42.4962 27.9967C42.4824 27.5584 42.4934 27.029 42.4934 26.5686ZM22.1885 42.785C20.1732 42.785 20.1732 42.785 20.1842 44.7782C20.1842 46.9259 20.1842 46.9259 22.3539 46.9149C24.3417 46.9149 24.3417 46.9149 24.3279 44.883C24.3169 42.785 24.3169 42.785 22.1885 42.785ZM61.9933 28.3083C63.0961 28.2917 63.7936 27.5639 63.7605 26.4335C63.7488 25.9619 63.5502 25.5143 63.2085 25.1891C62.8667 24.8638 62.4098 24.6877 61.9381 24.6994C61.4665 24.7111 61.0189 24.9097 60.6937 25.2514C60.3684 25.5932 60.1923 26.0501 60.204 26.5218C60.1959 26.759 60.2367 26.9954 60.324 27.2162C60.4113 27.437 60.5431 27.6374 60.7112 27.805C60.8793 27.9727 61.0802 28.1038 61.3012 28.1904C61.5223 28.277 61.7588 28.3171 61.996 28.3083H61.9933ZM20.6005 26.5162C20.6064 26.2793 20.5653 26.0435 20.4797 25.8224C20.394 25.6014 20.2655 25.3995 20.1015 25.2283C19.9375 25.0571 19.7413 24.9201 19.5241 24.8251C19.3069 24.73 19.0731 24.6789 18.8361 24.6746C18.3564 24.6826 17.8993 24.8797 17.5642 25.2231C17.2291 25.5664 17.0431 26.0282 17.0468 26.508C17.0439 26.7452 17.0884 26.9806 17.1778 27.2004C17.2673 27.4202 17.3998 27.6198 17.5675 27.7876C17.7353 27.9553 17.9349 28.0878 18.1547 28.1773C18.3744 28.2667 18.6099 28.3112 18.8471 28.3083C19.9306 28.311 20.6088 27.619 20.6033 26.5162H20.6005Z" />
<path d="M59.0185 10.8541C58.6482 10.8518 58.2819 10.7765 57.9406 10.6326C57.5993 10.4887 57.2897 10.279 57.0295 10.0154C56.7693 9.75185 56.5635 9.43961 56.4239 9.09653C56.2844 8.75345 56.2138 8.38624 56.2161 8.01587C56.2185 7.64549 56.2938 7.27921 56.4377 6.93793C56.5816 6.59665 56.7913 6.28706 57.0548 6.02683C57.3184 5.7666 57.6306 5.56083 57.9737 5.42126C58.3168 5.2817 58.684 5.21108 59.0544 5.21344C59.7995 5.21766 60.5134 5.51347 61.0431 6.03752C61.5728 6.56157 61.8763 7.27221 61.8885 8.01725C61.8908 8.39322 61.8179 8.76586 61.674 9.11324C61.5302 9.46062 61.3183 9.77573 61.0509 10.04C60.7835 10.3044 60.466 10.5125 60.1169 10.6523C59.7679 10.7922 59.3945 10.8608 59.0185 10.8541Z" />
<path d="M52.3743 10.8541C51.9992 10.86 51.6268 10.7907 51.279 10.6502C50.9312 10.5098 50.6151 10.301 50.3493 10.0363C50.0836 9.77156 49.8736 9.45625 49.7318 9.10898C49.5899 8.76172 49.5192 8.38955 49.5236 8.01447C49.5359 7.27063 49.8387 6.56111 50.3673 6.03765C50.8959 5.51419 51.6083 5.21836 52.3523 5.21342C52.7269 5.20809 53.0988 5.27851 53.4455 5.42045C53.7923 5.56238 54.1068 5.77291 54.3702 6.03939C54.6336 6.30588 54.8404 6.62283 54.9783 6.97123C55.1162 7.31963 55.1823 7.69229 55.1726 8.06685C55.1767 8.43495 55.107 8.80014 54.9677 9.14088C54.8284 9.48161 54.6223 9.791 54.3614 10.0508C54.1006 10.3106 53.7904 10.5155 53.4491 10.6535C53.1079 10.7914 52.7424 10.8597 52.3743 10.8541Z" />
<path d="M65.7207 10.8541C65.1612 10.8612 64.6122 10.7017 64.1436 10.3959C63.6749 10.0901 63.3079 9.65185 63.0891 9.13684C62.8703 8.62184 62.8096 8.05338 62.9148 7.50379C63.02 6.9542 63.2863 6.44833 63.6798 6.05052C64.0733 5.65271 64.5763 5.38095 65.1247 5.26981C65.6731 5.15867 66.2422 5.21318 66.7595 5.4264C67.2769 5.63962 67.7191 6.00192 68.03 6.46719C68.3408 6.93247 68.5062 7.4797 68.5052 8.03926C68.5081 8.40717 68.4383 8.77203 68.2998 9.11288C68.1612 9.45372 67.9567 9.76384 67.698 10.0254C67.4392 10.287 67.1313 10.4948 66.792 10.637C66.4527 10.7793 66.0886 10.853 65.7207 10.8541Z" />
</svg>
