<svg width="33" height="32" viewBox="0 0 33 32" fill="none" xmlns="http://www.w3.org/2000/svg">
<rect x="0.90094" width="32" height="32" rx="16" fill="#191717"/>
<path fill-rule="evenodd" clip-rule="evenodd" d="M16.494 6.6665C14.0575 6.66777 11.7009 7.53073 9.84557 9.10109C7.99023 10.6715 6.75716 12.8468 6.36685 15.2382C5.97653 17.6295 6.45441 20.081 7.71505 22.1542C8.9757 24.2273 10.9369 25.7871 13.2479 26.5544C13.7578 26.6491 13.9499 26.3331 13.9499 26.0644C13.9499 25.7957 13.9397 25.0167 13.9363 24.165C11.0811 24.7818 10.4777 22.9601 10.4777 22.9601C10.0121 21.7772 9.33904 21.4663 9.33904 21.4663C8.4077 20.8343 9.40873 20.8461 9.40873 20.8461C10.4403 20.9188 10.9825 21.8989 10.9825 21.8989C11.8968 23.4586 13.3839 23.0074 13.9685 22.7438C14.0603 22.0831 14.3271 21.6336 14.6212 21.3784C12.3404 21.1215 9.94407 20.2462 9.94407 16.3359C9.92994 15.3217 10.3084 14.341 11.0012 13.5966C10.8958 13.3398 10.544 12.3022 11.1014 10.8928C11.1014 10.8928 11.9631 10.6191 13.9244 11.9389C15.6066 11.4814 17.3815 11.4814 19.0637 11.9389C21.0233 10.6191 21.8832 10.8928 21.8832 10.8928C22.4424 12.2988 22.0906 13.3364 21.9852 13.5966C22.6802 14.3411 23.0594 15.3236 23.044 16.3392C23.044 20.258 20.6426 21.1215 18.3584 21.3733C18.7255 21.691 19.0535 22.3112 19.0535 23.2643C19.0535 24.6297 19.0416 25.7281 19.0416 26.0644C19.0416 26.3364 19.2269 26.6541 19.7469 26.5544C22.0583 25.787 24.0196 24.227 25.2803 22.1534C26.5409 20.0799 27.0185 17.6281 26.6278 15.2365C26.237 12.8449 25.0033 10.6695 23.1474 9.09945C21.2914 7.52936 18.9342 6.66697 16.4974 6.6665H16.494Z" fill="white"/>
<path d="M10.1172 21.3196C10.0951 21.3703 10.0136 21.3855 9.94727 21.35C9.88099 21.3145 9.83171 21.2486 9.8555 21.1962C9.8793 21.1438 9.95918 21.1303 10.0255 21.1658C10.0917 21.2013 10.1427 21.2689 10.1172 21.3196Z" fill="white"/>
<path d="M10.5335 21.7809C10.4983 21.7985 10.458 21.8035 10.4196 21.7948C10.3811 21.7862 10.3469 21.7646 10.3227 21.7336C10.2565 21.6626 10.2429 21.5646 10.2938 21.5207C10.3448 21.4767 10.4366 21.497 10.5029 21.568C10.5692 21.639 10.5845 21.737 10.5335 21.7809Z" fill="white"/>
<path d="M10.9381 22.3673C10.8752 22.4112 10.7682 22.3673 10.7087 22.2794C10.6922 22.2636 10.6792 22.2447 10.6702 22.2238C10.6613 22.2029 10.6567 22.1805 10.6567 22.1577C10.6567 22.135 10.6613 22.1125 10.6702 22.0916C10.6792 22.0707 10.6922 22.0518 10.7087 22.0361C10.7716 21.9938 10.8786 22.0361 10.9381 22.1223C10.9976 22.2084 10.9993 22.3233 10.9381 22.3673Z" fill="white"/>
<path d="M11.4871 22.9352C11.431 22.9977 11.3171 22.9808 11.2237 22.8963C11.1302 22.8118 11.1081 22.6969 11.1642 22.6361C11.2202 22.5752 11.3341 22.5921 11.431 22.6749C11.5279 22.7577 11.5466 22.8743 11.4871 22.9352Z" fill="white"/>
<path d="M12.2569 23.2665C12.2314 23.3459 12.1158 23.3814 12.0002 23.3476C11.8847 23.3138 11.8082 23.2192 11.8303 23.1381C11.8524 23.0569 11.9696 23.0198 12.0869 23.0569C12.2042 23.0941 12.279 23.1837 12.2569 23.2665Z" fill="white"/>
<path d="M13.0965 23.324C13.0965 23.4068 13.0014 23.4778 12.879 23.4795C12.7566 23.4812 12.6564 23.4136 12.6564 23.3308C12.6564 23.248 12.7515 23.177 12.8739 23.1753C12.9963 23.1736 13.0965 23.2395 13.0965 23.324Z" fill="white"/>
<path d="M13.8783 23.1933C13.8936 23.2761 13.8086 23.3623 13.6862 23.3826C13.5638 23.4029 13.4568 23.3539 13.4415 23.2727C13.4262 23.1916 13.5146 23.1038 13.6335 23.0818C13.7525 23.0598 13.863 23.1105 13.8783 23.1933Z" fill="white"/>
</svg>
