<svg width="49" height="53" viewBox="0 0 49 53" fill="none" xmlns="http://www.w3.org/2000/svg">
<path d="M34.2028 0.507324C34.7075 0.66404 35.1479 0.979943 35.4581 1.40777C35.7683 1.8356 35.9317 2.35236 35.9238 2.88075C35.9135 2.9975 35.9466 3.11394 36.0168 3.20776C36.0871 3.30157 36.1895 3.36616 36.3044 3.38915C37.1136 3.62807 37.894 3.95538 38.6316 4.36516C38.7271 4.43125 38.8443 4.45823 38.9591 4.44053C39.0739 4.42283 39.1776 4.3618 39.2487 4.27001C40.3797 3.21787 41.6439 3.24234 42.7368 4.32438C43.479 5.05843 44.2212 5.79792 44.9553 6.54012C46.0101 7.60857 46.0428 8.9054 45.026 9.9956C44.9249 10.0687 44.8565 10.1784 44.8351 10.3013C44.8138 10.4242 44.8413 10.5506 44.9118 10.6535C45.3121 11.3768 45.6321 12.1417 45.8661 12.9345C45.8898 13.0583 45.9584 13.169 46.0588 13.2453C46.1591 13.3216 46.2842 13.3581 46.4098 13.3478C47.9649 13.4538 48.805 14.3564 48.8077 15.8979C48.8077 16.9854 48.8077 18.0538 48.8077 19.1331C48.8077 20.4082 48.0138 21.3516 46.7605 21.4739C46.1597 21.5338 45.8824 21.7676 45.7356 22.3385C45.552 22.9886 45.2842 23.612 44.939 24.1926C44.8588 24.2986 44.8235 24.4319 44.8408 24.5637C44.8581 24.6955 44.9266 24.8151 45.0314 24.8968C46.0401 25.9625 46.0237 27.2566 44.9934 28.3115C44.2412 29.0836 43.4781 29.8466 42.7042 30.6006C41.6466 31.6337 40.358 31.6528 39.2841 30.6496C39.2109 30.5488 39.1017 30.4801 38.9791 30.4578C38.8566 30.4356 38.7301 30.4614 38.6262 30.5299C37.8988 30.9245 37.1338 31.2451 36.3424 31.4869C36.2213 31.5162 36.1139 31.5861 36.0381 31.6851C35.9624 31.7841 35.923 31.9061 35.9265 32.0307C35.7715 33.6619 34.9097 34.4313 33.2703 34.434H30.2797C28.7926 34.434 27.8737 33.6184 27.7405 32.1258C27.7491 31.9689 27.7003 31.8143 27.6033 31.6907C27.5062 31.5671 27.3675 31.4831 27.2131 31.4543C26.4576 31.2247 25.7285 30.9158 25.0381 30.5327C24.9424 30.4656 24.8247 30.4376 24.709 30.4543C24.5934 30.4709 24.4884 30.5311 24.4155 30.6224C23.2492 31.6827 22.0095 31.6473 20.8812 30.5327C20.139 29.7959 19.3941 29.0618 18.6655 28.3142C17.6405 27.2621 17.6242 25.9652 18.6355 24.8968C18.7385 24.8135 18.805 24.6934 18.8207 24.5618C18.8365 24.4303 18.8003 24.2979 18.7198 24.1926C18.3375 23.5025 18.0303 22.7734 17.8036 22.0177C17.7836 21.8852 17.7154 21.7647 17.6121 21.6794C17.5087 21.5941 17.3775 21.55 17.2436 21.5555C15.7184 21.5011 14.7397 20.3838 14.8402 18.8368C14.9028 17.8445 14.8402 16.8467 14.8402 15.8462C14.8402 14.408 15.7211 13.4456 17.143 13.3613C17.2995 13.3757 17.4557 13.3301 17.5799 13.2337C17.704 13.1373 17.7869 12.9973 17.8118 12.8421C18.0293 12.0969 18.3312 11.3791 18.7117 10.7025C18.7912 10.5962 18.8261 10.4631 18.8088 10.3316C18.7915 10.2 18.7235 10.0804 18.6192 9.99831C17.6133 8.92986 17.6351 7.61945 18.6573 6.5809C19.4131 5.81242 20.1761 5.04937 20.9464 4.29176C21.9931 3.25865 23.3036 3.23691 24.3611 4.24283C24.4398 4.34942 24.5576 4.42045 24.6886 4.44033C24.8195 4.46021 24.9531 4.42731 25.0598 4.34885C25.7658 3.95247 26.5147 3.6378 27.2919 3.4109C27.4168 3.39399 27.5307 3.33054 27.6109 3.23326C27.691 3.13598 27.7315 3.01202 27.7242 2.88619C27.7161 2.35813 27.879 1.84163 28.1887 1.41385C28.4984 0.986067 28.9382 0.669966 29.4424 0.512767L34.2028 0.507324ZM33.6863 13.7093C33.6863 12.7469 33.67 11.7872 33.6863 10.8248C33.7135 9.66119 34.3279 8.92171 35.2957 8.83743C35.8233 8.81491 36.3437 8.96578 36.7774 9.26698C39.4608 10.9662 40.9833 13.4157 41.0866 16.5776C41.2089 20.2641 39.5451 23.0508 36.3424 24.8968C36.2189 24.9471 36.1137 25.0339 36.0408 25.1457C35.9679 25.2574 35.9309 25.3887 35.9346 25.5221C35.9473 26.6331 35.9473 27.7451 35.9346 28.8579C35.9346 29.3038 36.1168 29.3337 36.4621 29.1869C37.1593 28.8899 37.8368 28.5485 38.4902 28.1647C38.711 28.0016 38.9854 27.928 39.2582 27.9588C39.531 27.9895 39.7821 28.1223 39.961 28.3305C40.1752 28.5211 40.3777 28.7245 40.5673 28.9395C40.8392 29.2712 41.0757 29.225 41.353 28.9395C41.8261 28.4365 42.329 27.9581 42.8157 27.4687C43.6992 26.5905 43.6992 26.5905 42.8157 25.6852C42.2719 25.1224 42.204 24.682 42.6145 24.0105C43.1644 23.1003 43.5983 22.1249 43.9059 21.1069C44.4034 19.4757 44.4034 19.4757 46.1434 19.4105C46.5104 19.4105 46.6654 19.2664 46.6599 18.9021C46.6599 18.1952 46.6599 17.4856 46.6599 16.7788C46.6599 15.5363 46.6599 15.5363 45.3984 15.5146C44.6562 15.5146 44.2919 15.2427 44.1179 14.5467C43.7968 13.2528 43.2866 12.0133 42.6036 10.8683C42.2067 10.1995 42.2719 9.78082 42.8075 9.23708C42.9842 9.05764 43.1555 8.86733 43.3513 8.69334C43.4142 8.65743 43.4668 8.60591 43.504 8.54375C43.5412 8.48159 43.5617 8.41088 43.5636 8.33847C43.5656 8.26605 43.5488 8.19436 43.5149 8.13032C43.481 8.06629 43.4312 8.01206 43.3703 7.97288C42.8864 7.50527 42.4106 7.02677 41.9348 6.551C40.986 5.60217 40.986 5.60217 40.0045 6.52381C39.5233 6.97783 39.0911 7.06755 38.5392 6.73587C37.323 6.00732 36.0055 5.4631 34.6297 5.12096C34.0587 4.97959 33.8141 4.60441 33.7842 4.00901C33.7842 3.69092 33.7842 3.37012 33.7842 3.04931C33.7842 2.7285 33.6346 2.56267 33.2975 2.5681C32.607 2.5681 31.9164 2.5681 31.2231 2.5681C29.6789 2.5681 29.9154 2.40498 29.8937 3.87308C29.8937 4.63975 29.6218 4.9959 28.885 5.17262C27.6414 5.4785 26.4503 5.96779 25.3507 6.6244C24.565 7.08658 24.1926 7.03493 23.5564 6.40691C23.4014 6.25194 23.2356 6.10513 23.0942 5.93929C22.8223 5.63208 22.6048 5.66742 22.3411 5.93929C21.8273 6.48303 21.2917 6.98871 20.7697 7.51614C19.859 8.43778 19.8862 8.21757 20.7697 9.12018C21.4249 9.78626 21.4848 10.1506 21.009 10.9526C20.4858 11.8194 20.073 12.7483 19.7801 13.7175C19.2744 15.414 19.2826 15.4248 17.4964 15.4901C17.1539 15.5037 17.0043 15.6179 17.007 15.9659C17.0179 16.9428 17.0179 17.9206 17.007 18.8993C17.007 19.2745 17.181 19.4077 17.5372 19.3887C17.8254 19.3724 18.1108 19.3887 18.399 19.3887C18.664 19.3715 18.9262 19.4518 19.136 19.6146C19.3459 19.7774 19.4889 20.0113 19.5382 20.2723C19.867 21.634 20.4054 22.9364 21.134 24.1328C21.284 24.3529 21.348 24.6203 21.3139 24.8844C21.2798 25.1484 21.15 25.3908 20.9492 25.5656C20.7814 25.7599 20.5997 25.9416 20.4054 26.1093C20.0384 26.4111 20.0139 26.6721 20.3864 27.0065C20.8866 27.4578 21.3461 27.9553 21.8219 28.4311C22.7 29.3065 22.7 29.3065 23.6026 28.4311C23.6137 28.4187 23.6255 28.4069 23.638 28.3958C24.1817 27.8792 24.5841 27.8221 25.2284 28.1973C25.8712 28.5676 26.5348 28.9008 27.2158 29.1951C27.5828 29.3555 27.735 29.2657 27.7296 28.8471C27.7296 27.8031 27.7079 26.7564 27.7296 25.7124C27.7483 25.5318 27.7089 25.35 27.6169 25.1935C27.5249 25.037 27.3853 24.9139 27.2185 24.8424C26.0012 24.1762 24.9547 23.2372 24.161 22.0989C23.3673 20.9607 22.8479 19.6541 22.6436 18.2816C22.4392 16.909 22.5554 15.5078 22.9831 14.1877C23.4108 12.8676 24.1384 11.6645 25.1088 10.6726C25.8292 9.93578 26.6177 9.26154 27.6263 8.94345C28.7138 8.6009 29.5865 9.10386 29.8774 10.1913C29.9619 10.5694 29.9939 10.9573 29.9725 11.3441C29.9725 13.0976 29.9535 14.8512 29.9725 16.6048C29.9898 17.064 30.1664 17.5029 30.472 17.8462C30.7776 18.1895 31.1931 18.4157 31.6473 18.4861C32.4629 18.5813 33.3573 17.9288 33.602 17.0397C33.6575 16.8111 33.6831 16.5763 33.6781 16.341C33.6917 15.4629 33.6863 14.5848 33.6863 13.7093ZM29.8801 28.1021C29.8801 29.2984 29.8964 30.4973 29.8801 31.6936C29.8801 32.1421 30.0487 32.2862 30.4755 32.2781C31.3536 32.259 32.2291 32.2781 33.1072 32.2781C33.7542 32.2781 33.776 32.2509 33.7787 31.5794C33.7787 29.3881 33.8141 27.1941 33.7624 25.0055C33.7379 24.073 34.0751 23.5837 34.9369 23.2085C39.6212 21.1695 40.3743 14.6228 36.3207 11.548C36.2065 11.461 36.0923 11.2761 35.9374 11.3631C35.7824 11.4501 35.8585 11.635 35.8585 11.7791C35.8585 13.3314 35.8585 14.8811 35.8585 16.4335C35.8735 17.3536 35.57 18.2507 34.9994 18.9727C34.056 20.1472 32.8571 20.8622 31.3047 20.604C29.2195 20.2397 27.8275 18.5024 27.8166 16.3737C27.8166 14.824 27.8166 13.2716 27.8166 11.722C27.8166 11.5969 27.8791 11.4229 27.7215 11.3631C27.5638 11.3033 27.504 11.4365 27.417 11.5099C25.2991 13.2009 24.3829 15.4112 24.8043 18.0756C25.2012 20.5958 26.6883 22.3466 29.0319 23.3526C29.3046 23.4442 29.5387 23.6248 29.6965 23.8654C29.8542 24.106 29.9266 24.3926 29.9018 24.6793C29.8665 25.8103 29.8801 26.9494 29.8801 28.1021Z" fill="white"/>
<path d="M0.985707 42.0955C0.985707 40.3773 0.985707 38.6564 0.985707 36.93C0.985707 35.2036 2.12757 34.0645 3.82947 34.0563C5.10998 34.0563 6.39049 34.0563 7.67372 34.0563C8.17436 34.0364 8.67051 34.1576 9.10555 34.4062C9.5406 34.6547 9.89702 35.0205 10.1341 35.4619C10.2048 35.6018 10.3153 35.7175 10.4518 35.7945C10.5883 35.8714 10.7446 35.9061 10.9008 35.8942C11.7093 35.9203 12.5144 35.7796 13.2661 35.4809C14.6827 34.8874 16.191 34.5425 17.7247 34.4614C19.6769 34.4019 21.5979 34.9604 23.2138 36.0573C23.9813 36.5498 24.6989 37.1162 25.3561 37.7483C25.4914 37.8836 25.6534 37.9892 25.8317 38.0585C26.01 38.1278 26.2008 38.1592 26.392 38.1507C28.2461 38.167 30.1003 38.0854 31.9544 38.1996C32.6692 38.2169 33.3575 38.4734 33.9092 38.9282C34.2925 39.2599 34.5889 39.2001 34.9967 39.0016C37.4435 37.732 39.8903 36.4814 42.3372 35.2281C42.8404 34.9475 43.3993 34.7816 43.9741 34.7421C44.5489 34.7026 45.1253 34.7906 45.6621 34.9997C46.236 35.2211 46.7437 35.5856 47.1369 36.0586C47.5301 36.5316 47.7958 37.0973 47.9086 37.702C48.0214 38.3066 47.9776 38.9301 47.7814 39.5131C47.5852 40.096 47.2431 40.6191 46.7877 41.0325C45.5507 42.2015 44.069 43.0824 42.6634 44.0367C42.4391 44.1792 42.1674 44.2269 41.9079 44.1693C41.6485 44.1117 41.4225 43.9535 41.2796 43.7295C41.1948 43.6172 41.1344 43.4885 41.102 43.3516C41.0697 43.2147 41.0662 43.0725 41.0918 42.9342C41.1174 42.7959 41.1714 42.6644 41.2506 42.5481C41.3297 42.4318 41.4322 42.3332 41.5514 42.2586C42.6389 41.4566 43.7264 40.6845 44.8383 39.9015C45.2425 39.6507 45.5523 39.2731 45.7192 38.8276C45.8048 38.5837 45.8249 38.3216 45.7774 38.0675C45.73 37.8134 45.6166 37.5763 45.4487 37.3797C45.2808 37.1832 45.0642 37.0342 44.8207 36.9477C44.5771 36.8611 44.3151 36.84 44.0608 36.8865C43.7762 36.9333 43.5009 37.025 43.2452 37.1583C40.7984 38.4144 38.3515 39.6759 35.9047 40.9156C35.7474 40.972 35.615 41.0818 35.5305 41.2259C35.446 41.37 35.4149 41.5393 35.4425 41.704C35.66 44.0339 33.6509 45.8174 31.4732 45.7685C28.6267 45.7059 25.7639 45.7549 22.9256 45.7494C22.1644 45.7494 21.7212 45.3471 21.724 44.6892C21.716 44.4502 21.7938 44.2162 21.9434 44.0297C22.0931 43.8432 22.3046 43.7164 22.5396 43.6724C22.8213 43.6224 23.1072 43.5996 23.3932 43.6044C26.1119 43.6044 28.8306 43.6044 31.5493 43.6044C32.316 43.6044 32.9087 43.3325 33.2132 42.6175C33.7053 41.4784 32.8924 40.3093 31.582 40.2957C29.8094 40.2794 28.0477 40.2685 26.2696 40.2957C25.8741 40.3172 25.4785 40.2557 25.1082 40.1153C24.7378 39.9748 24.4009 39.7585 24.1191 39.4801C23.6395 39.0308 23.1358 38.6079 22.6102 38.2132C20.2069 36.3754 17.5807 36.2204 14.8021 37.1774C13.943 37.4737 13.1274 37.9033 12.2031 37.993C11.8697 38.0368 11.5332 38.0522 11.1971 38.0392C10.6887 37.9984 10.5202 38.1751 10.5256 38.6944C10.5501 40.9863 10.5256 43.2809 10.5256 45.5727C10.5256 45.657 10.5256 45.7413 10.5256 45.8256C10.5256 46.0757 10.648 46.2089 10.9008 46.1872C13.4319 45.9452 15.7347 46.9402 18.1054 47.5465C21.0053 48.286 23.8989 49.0735 26.7862 49.9091C27.6537 50.1876 28.5753 50.2544 29.4739 50.104C30.3726 49.9536 31.2222 49.5903 31.9517 49.0445L33.9309 47.6417C34.0511 47.5346 34.1913 47.4526 34.3435 47.4003C34.4956 47.3481 34.6567 47.3266 34.8172 47.3372C35.0208 47.3544 35.2146 47.4318 35.3739 47.5597C35.5332 47.6875 35.6508 47.8599 35.7117 48.0549C35.7942 48.2534 35.8077 48.4738 35.75 48.6808C35.6923 48.8878 35.5668 49.0695 35.3936 49.1968C34.1076 50.1483 32.8462 51.1406 31.3617 51.7877C29.7033 52.5109 28.0205 52.4483 26.3158 51.9861C22.0719 50.8334 17.8226 49.7024 13.5869 48.5307C12.6027 48.2588 11.6186 48.3023 10.6262 48.2914C10.5337 48.2921 10.4437 48.3218 10.369 48.3765C10.2944 48.4311 10.2388 48.5079 10.2103 48.5959C9.63933 49.7079 8.68778 50.1836 7.49156 50.1728C6.11046 50.1592 4.72392 50.2815 3.34826 50.1075C2.68584 50.0373 2.07431 49.7197 1.63583 49.2182C1.19735 48.7167 0.964209 48.0683 0.982986 47.4024C0.980267 45.638 0.985707 43.8681 0.985707 42.0955ZM3.13621 42.0955C3.13621 43.7811 3.13621 45.4667 3.13621 47.155C3.13621 47.8592 3.30476 48.0277 3.99803 48.0304C5.16164 48.0304 6.32523 48.0304 7.48883 48.0304C8.14676 48.0304 8.36699 47.8157 8.36699 47.1496C8.36699 43.7947 8.36699 40.4416 8.36699 37.0904C8.36699 36.4216 8.18755 36.2422 7.53234 36.2367C6.35243 36.2367 5.17432 36.2367 3.99803 36.2367C3.2667 36.2367 3.13891 36.3645 3.13891 37.0931C3.13348 38.7488 3.13621 40.4181 3.13621 42.0874V42.0955Z" fill="white"/>
<path d="M37.3945 45.7539C37.3934 45.6152 37.42 45.4776 37.4727 45.3493C37.5253 45.221 37.603 45.1044 37.7012 45.0065C37.7994 44.9085 37.9162 44.8311 38.0446 44.7788C38.1731 44.7265 38.3107 44.7003 38.4494 44.7017C38.7274 44.7135 38.9903 44.8314 39.184 45.0312C39.3777 45.231 39.4874 45.4974 39.4906 45.7756C39.4823 46.0546 39.367 46.3197 39.1687 46.5161C38.9703 46.7124 38.704 46.825 38.4249 46.8305C38.2863 46.8284 38.1495 46.7987 38.0224 46.7433C37.8953 46.6879 37.7805 46.6078 37.6846 46.5076C37.5887 46.4074 37.5137 46.2892 37.4639 46.1598C37.4141 46.0304 37.3905 45.8924 37.3945 45.7539Z" fill="white"/>
</svg>
