<svg width="29" height="27" viewBox="0 0 29 27" fill="none" xmlns="http://www.w3.org/2000/svg">
<g id="icon_contratos">
<path id="Vector" d="M0.52417 20.965C5.65414 20.965 10.7837 20.9628 15.913 20.9583C16.1476 20.9583 16.2481 21.031 16.2392 21.2767C16.2269 21.8588 16.2302 22.4419 16.2392 23.024C16.2407 23.5663 16.3535 24.1026 16.5704 24.5997C16.7873 25.0967 17.1039 25.5441 17.5004 25.914C17.5608 25.9721 17.6233 26.0258 17.6792 26.0883C17.7674 26.1844 17.7295 26.2358 17.6122 26.2436C17.5284 26.2436 17.4457 26.2436 17.3619 26.2436C12.8933 26.2436 8.43362 26.2257 3.97059 26.2525C2.15633 26.2637 0.833625 25.0549 0.555454 23.5904C0.548527 23.5635 0.538398 23.5377 0.525288 23.5133L0.52417 20.965Z" />
<path id="Vector_2" d="M10.8183 20.192H5.18786C4.78568 20.192 4.78121 20.192 4.78345 19.7943C4.80691 16.1703 4.81138 12.5473 4.86277 8.92442C4.88958 6.97387 4.87506 5.02332 4.89963 3.07388C4.90857 2.40359 5.08843 1.79586 5.59115 1.31995C6.01998 0.914004 6.59163 0.693614 7.18198 0.706633C12.8579 0.702165 18.5338 0.702165 24.2096 0.706633C24.289 0.706633 24.3962 0.673117 24.4331 0.756903C24.4867 0.860798 24.3772 0.923359 24.3214 0.987037C23.736 1.65063 23.5002 2.42593 23.5014 3.30625C23.5081 9.85054 23.5081 16.3956 23.5014 22.9413C23.514 23.6935 23.2645 24.4266 22.7957 25.0149C22.3268 25.6031 21.6679 26.0099 20.9319 26.1655C19.0115 26.6067 17.0565 25.0762 17.0286 23.1033C17.0185 22.3459 17.0286 21.5874 17.023 20.8288C17.023 20.3194 16.8934 20.1943 16.3806 20.1943L10.8183 20.192ZM18.11 7.55367C18.11 6.83199 18.0977 6.2399 18.1156 5.64892C18.1245 5.33724 18.0038 5.15961 17.7257 5.02555C16.5683 4.46697 15.4176 3.89946 14.2681 3.32748C14.1553 3.26487 14.0284 3.23203 13.8994 3.23203C13.7704 3.23203 13.6436 3.26487 13.5308 3.32748C12.3812 3.89946 11.2294 4.46921 10.0676 5.02443C9.94291 5.07118 9.83708 5.15766 9.76641 5.27051C9.69575 5.38337 9.66419 5.51634 9.67659 5.64892C9.68999 6.73033 9.67658 7.81173 9.68552 8.88867C9.70116 10.1499 10.2441 11.1476 11.2663 11.8759C12.0036 12.3999 12.7588 12.9015 13.5073 13.4109C13.8425 13.6343 13.9542 13.6399 14.2893 13.4165C15.0713 12.8858 15.8533 12.3574 16.6186 11.8134C17.3517 11.2952 17.8589 10.5162 18.0362 9.63604C18.1982 8.90543 18.0731 8.16028 18.11 7.55367ZM14.1262 15.0989H8.5248C8.423 15.0953 8.32107 15.099 8.21982 15.1101C8.12594 15.1131 8.03669 15.1515 7.96997 15.2176C7.90324 15.2837 7.86399 15.3726 7.86009 15.4665C7.84222 15.7011 7.97181 15.8295 8.18295 15.8809C8.27389 15.8979 8.36648 15.9043 8.45889 15.8999H19.7734C19.8845 15.9085 19.9961 15.8968 20.103 15.8653C20.1884 15.8405 20.2622 15.786 20.3112 15.7117C20.3601 15.6374 20.381 15.5481 20.37 15.4598C20.3666 15.3754 20.3336 15.2949 20.2768 15.2324C20.22 15.1699 20.1431 15.1294 20.0594 15.1179C19.9487 15.0997 19.8363 15.0941 19.7243 15.1012L14.1262 15.0989ZM14.1162 17.3712C12.185 17.3712 10.2538 17.3712 8.32259 17.3712C8.03102 17.3712 7.87573 17.5064 7.86121 17.7376C7.84669 17.9689 7.99191 18.1208 8.27791 18.1599C8.34209 18.1668 8.40663 18.1698 8.47117 18.1689H19.7544C19.8841 18.1751 20.0137 18.155 20.1354 18.1097C20.2119 18.0775 20.2759 18.0213 20.3177 17.9496C20.3595 17.8779 20.3767 17.7945 20.3669 17.712C20.357 17.6296 20.3206 17.5526 20.2631 17.4928C20.2056 17.4329 20.1302 17.3934 20.0482 17.3802C19.9471 17.3675 19.845 17.3637 19.7433 17.369L14.1162 17.3712Z" />
<path id="Vector_3" d="M26.633 7.00402C25.9627 7.00402 25.2846 6.99732 24.6098 7.00402C24.3808 7.00402 24.3048 6.92694 24.3059 6.69904C24.3137 5.48022 24.297 4.26029 24.3137 3.04036C24.3155 2.42622 24.559 1.83746 24.9916 1.40153C25.4242 0.965593 26.011 0.717549 26.6251 0.71109C27.9914 0.71109 28.8985 1.7601 28.9343 2.84262C28.9767 4.14411 28.9443 5.44782 28.9522 6.75266C28.9522 6.95151 28.8673 7.00402 28.6852 7.0029C28.0015 7.00067 27.3167 7.00402 26.633 7.00402Z" />
<path id="Vector_4" d="M17.3404 7.56486C17.3147 8.05864 17.3918 8.6619 17.2979 9.25846C17.1806 10.0114 16.8511 10.6538 16.2299 11.1062C15.5217 11.6257 14.7832 12.1027 14.0626 12.6043C14.0128 12.6449 13.95 12.6661 13.8857 12.664C13.8215 12.662 13.7602 12.6368 13.713 12.5932C13.0069 12.1027 12.2819 11.6391 11.5904 11.1252C10.8084 10.5443 10.4732 9.72096 10.4598 8.76356C10.4487 7.84861 10.4598 6.93255 10.4542 6.0176C10.4468 5.92616 10.4698 5.83483 10.5194 5.75771C10.5691 5.68058 10.6428 5.62195 10.7291 5.59085C11.7107 5.11643 12.6889 4.63456 13.6638 4.14525C13.7351 4.1046 13.8158 4.08322 13.8979 4.08322C13.9799 4.08322 14.0606 4.1046 14.1319 4.14525C15.1072 4.63345 16.0836 5.11941 17.0667 5.59196C17.1563 5.62452 17.2322 5.68635 17.2823 5.76744C17.3324 5.84854 17.3536 5.94415 17.3426 6.03882C17.3314 6.51585 17.3404 6.98729 17.3404 7.56486ZM15.7596 7.39282C15.7474 7.34664 15.7317 7.30144 15.7127 7.25764C15.5797 7.00069 15.277 6.96718 15.0424 7.20067C14.5665 7.6654 14.0962 8.13572 13.6314 8.61163C13.4851 8.76133 13.3745 8.78702 13.227 8.61722C13.0796 8.44741 12.9321 8.31111 12.7802 8.16477C12.5701 7.96368 12.3333 7.94134 12.168 8.10109C12.0026 8.26085 12.0048 8.48763 12.2193 8.71106C12.5076 9.00897 12.801 9.30352 13.0997 9.59473C13.3231 9.81145 13.532 9.81816 13.7532 9.59473C14.3721 8.98476 14.9821 8.36586 15.5965 7.75366C15.6478 7.70856 15.6888 7.65305 15.717 7.59083C15.7451 7.5286 15.7596 7.4611 15.7596 7.39282Z" />
</g>
</svg>
