<svg width="52" height="54" viewBox="0 0 52 54" fill="none" xmlns="http://www.w3.org/2000/svg">
<path d="M27.2709 0.507324C28.8502 1.01704 29.8306 2.03368 30.0061 3.72716C30.0311 3.98062 30.201 4.00569 30.396 4.05861C30.721 4.10223 31.0422 4.17019 31.357 4.26194C32.049 4.50011 32.6496 4.94823 33.0749 5.54384C33.5003 6.13946 33.7293 6.85292 33.73 7.58484C33.7495 8.82709 33.744 10.0721 33.73 11.3144C33.7185 11.4589 33.7463 11.6039 33.8106 11.7338C33.8748 11.8638 33.9731 11.9739 34.0949 12.0525C34.4462 12.2936 34.7311 12.6192 34.9234 12.9994C35.1156 13.3796 35.2091 13.802 35.1951 14.2278C35.1951 16.2305 35.1951 18.2331 35.1951 20.2358C35.2018 20.6664 35.1223 21.0939 34.9611 21.4933C34.7999 21.8926 34.5604 22.2557 34.2566 22.561C33.9529 22.8662 33.5911 23.1076 33.1926 23.2708C32.7941 23.4341 32.3669 23.5158 31.9363 23.5113C30.8389 23.4807 30.0478 23.6896 29.4657 24.6951C29.0423 25.4276 28.2931 25.9067 27.6107 26.4136C27.2458 26.6922 27.14 27.9372 27.438 28.2798C27.5661 28.4274 27.6748 28.3522 27.8029 28.2798C28.1675 28.0722 28.5858 27.9783 29.0041 28.01C29.4225 28.0418 29.8218 28.1978 30.1509 28.4581C31.4906 29.4747 33.1117 29.8507 34.6074 30.5025C34.8162 30.5851 35.0183 30.6838 35.2118 30.7977C35.3927 30.9027 35.5276 31.0716 35.59 31.2711C35.6524 31.4707 35.6377 31.6864 35.5489 31.8757C35.4598 32.066 35.2996 32.2137 35.1027 32.2872C34.9058 32.3606 34.688 32.3539 34.496 32.2684C33.8192 31.9898 33.1646 31.689 32.4794 31.4328C32.3184 31.3555 32.1359 31.3352 31.9619 31.3751C31.7878 31.4151 31.6324 31.513 31.5213 31.6528C30.1788 33.026 28.8056 34.3657 27.4603 35.7333C26.9032 36.3071 26.257 36.6553 25.4298 36.5689C25.3267 36.5689 25.1902 36.5216 25.1513 36.6246C24.8226 37.2653 24.1764 37.7666 24.3324 38.6161C24.9786 42.1981 25.6248 45.78 26.2459 49.3647C26.3183 49.7769 26.4659 49.9218 26.8781 49.9218C28.1232 49.9023 29.371 49.9218 30.6161 49.9218C30.7888 49.91 30.9611 49.9508 31.1102 50.0388C31.2594 50.1268 31.3784 50.2579 31.4517 50.4148C31.5007 50.5295 31.5228 50.6538 31.5164 50.7784C31.5101 50.9029 31.4753 51.0244 31.4149 51.1335C31.3544 51.2425 31.2698 51.3364 31.1676 51.4078C31.0654 51.4792 30.9482 51.5264 30.825 51.5456C30.5476 51.5792 30.2687 51.5988 29.9894 51.6041C21.8024 51.6041 13.6181 51.6041 5.43673 51.6041C4.79538 51.6253 4.15441 51.5521 3.53435 51.3868C2.68781 51.1395 1.94014 50.6329 1.39654 49.9384C0.85293 49.2439 0.540747 48.3964 0.50392 47.5152C0.398078 45.3148 0.317303 43.0922 0.852086 40.9196C2.24475 35.2682 5.74033 31.5609 11.2664 29.7783C12.0416 29.4844 12.7763 29.0932 13.4529 28.614C14.3163 28.0709 15.1714 27.8119 16.1296 28.3355C16.3691 28.4664 16.4304 28.3021 16.4945 28.1294C16.6226 27.7876 16.6376 27.4137 16.5374 27.0627C16.4371 26.7117 16.2268 26.4022 15.9374 26.1797C14.0508 24.7872 12.7817 22.7137 12.4 20.4001C12.336 20.0297 12.1828 19.8932 11.8235 19.9099C11.4952 19.9252 11.1662 19.9028 10.843 19.843C10.2411 19.7376 9.69436 19.4269 9.29573 18.9638C8.89709 18.5007 8.67123 17.9137 8.65657 17.3028C8.638 16.25 8.638 15.1971 8.65657 14.1443C8.65593 13.7353 8.75534 13.3325 8.94614 12.9708C9.13694 12.6091 9.41333 12.2996 9.7512 12.0692C9.87247 11.9912 9.97057 11.8821 10.0352 11.7532C10.0999 11.6244 10.1288 11.4805 10.1189 11.3367C10.1411 10.0081 10.0269 8.67946 10.1857 7.35365C10.3592 5.76087 11.0242 4.26157 12.0882 3.06374C13.1523 1.86591 14.5628 1.02892 16.124 0.668869C16.3078 0.624304 16.4889 0.568595 16.6811 0.518459L27.2709 0.507324ZM13.7565 49.9134C14.8288 49.9134 15.9012 49.9134 16.9735 49.9134C17.3635 49.9134 17.5501 49.8299 17.6253 49.3953C18.2297 45.8775 18.8341 42.3568 19.511 38.8529C19.6948 37.9003 19.1127 37.3349 18.7478 36.6386C18.6921 36.5355 18.5751 36.5466 18.4693 36.5633C17.5947 36.6859 16.9429 36.2987 16.3524 35.6999C15.0071 34.3323 13.6367 32.9898 12.2914 31.625C12.1953 31.5021 12.0603 31.4154 11.9086 31.3789C11.7569 31.3425 11.5973 31.3586 11.4558 31.4244C6.6957 33.0956 3.68476 36.3656 2.47315 41.2622C1.99407 43.2119 2.1779 45.1784 2.16397 47.142C2.15004 48.7798 3.2781 49.8911 4.94929 49.9051C5.76261 49.9051 6.57593 49.9051 7.38924 49.9051C8.20255 49.9051 8.22484 49.9051 8.22484 49.0695C8.22484 48.1531 8.22484 47.2367 8.22484 46.3231C8.21882 46.1029 8.30002 45.8892 8.45077 45.7285C8.60152 45.5679 8.80963 45.4732 9.0298 45.4653C9.23967 45.4664 9.44194 45.5439 9.59881 45.6833C9.75567 45.8228 9.85638 46.0146 9.88211 46.2229C9.90756 46.3934 9.91781 46.5658 9.91274 46.7381C9.91274 47.4985 9.91274 48.2589 9.91274 49.0193C9.91274 49.9023 9.91275 49.9023 10.7706 49.9023L13.7565 49.9134ZM26.7918 24.7926C26.5133 24.7926 26.2514 24.7926 25.9813 24.7926C25.4755 24.7906 24.9859 24.6145 24.5948 24.2939C24.2037 23.9733 23.9349 23.5278 23.8338 23.0322C23.6249 21.9181 24.1597 20.804 25.2265 20.5004C26.4319 20.1647 27.706 20.1647 28.9114 20.5004C29.03 20.5299 29.1398 20.5871 29.2317 20.6675C29.5855 21.0017 29.6774 20.8263 29.7582 20.4475C30.0729 18.9935 29.8947 17.5257 29.9364 16.0606C29.9364 15.782 29.7275 15.7431 29.5242 15.6873C28.5466 15.4088 28.0786 14.8211 28.0731 13.8184C28.0675 12.8157 28.0731 11.8492 28.0731 10.8659C28.0731 9.41201 27.0007 8.52627 25.5663 8.78809C24.5329 8.97749 23.5274 9.30894 22.4606 9.34515C21.068 9.40086 19.7533 9.11397 18.4191 8.80759C16.8955 8.45664 15.7926 9.38694 15.7814 10.9523C15.7814 11.8854 15.7814 12.8185 15.7814 13.7376C15.7814 14.8517 15.3831 15.3865 14.3024 15.6706C14.2388 15.6789 14.1775 15.7002 14.1225 15.7332C14.0675 15.7663 14.02 15.8103 13.9828 15.8627C13.9457 15.915 13.9197 15.9744 13.9067 16.0372C13.8936 16.1001 13.8937 16.1649 13.9069 16.2277C13.9208 17.0633 13.8874 17.8989 13.9069 18.715C13.9097 19.8729 14.1734 21.0154 14.6784 22.0574C16.2131 24.9959 18.706 26.4331 21.9816 26.5139C23.7446 26.567 25.4627 25.9522 26.7918 24.7926ZM21.82 2.09774C20.4719 2.15902 18.8118 2.00582 17.1546 2.1813C14.5865 2.45983 12.3304 4.55161 11.9293 7.08068C11.6954 8.57362 11.8458 10.0805 11.829 11.579C11.8095 13.4591 11.6257 13.2056 13.3833 13.8323C13.464 13.8602 13.5448 13.888 13.6256 13.9242C14.0044 14.0913 14.1659 13.9799 14.1464 13.5566C14.1158 12.799 14.0879 12.0386 14.0963 11.2782C14.1102 10.3785 14.1799 9.48442 14.723 8.70453C15.6923 7.31187 17.3523 6.7353 19.1962 7.27287C20.9926 7.82163 22.912 7.82163 24.7084 7.27287C25.3917 7.06697 26.1158 7.03633 26.8141 7.18375C28.6385 7.5542 29.747 8.98863 29.7693 10.9718C29.7805 11.8519 29.7805 12.7321 29.7693 13.6123C29.7693 13.9855 29.9002 14.0746 30.2372 13.9409C30.5743 13.8072 30.9475 13.6624 31.3124 13.5621C31.8472 13.4117 32.0505 13.0775 32.0421 12.5288C32.0254 10.9579 32.0421 9.38694 32.0421 7.81601C32.0421 6.48741 31.4043 5.8245 30.0646 5.73259C29.6376 5.72127 29.2302 5.55167 28.9213 5.25672C28.6125 4.96177 28.4243 4.56254 28.3934 4.1366C28.2207 2.69102 27.5578 2.11724 26.0927 2.11167L21.82 2.09774ZM21.9091 49.9134H23.9341C24.6555 49.9134 24.6555 49.9134 24.5273 49.2004L23.4912 43.393C23.2489 42.0337 22.9982 40.6773 22.7698 39.318C22.7057 38.9309 22.547 38.722 22.1264 38.7833C21.9887 38.8028 21.849 38.8028 21.7114 38.7833C21.3465 38.7359 21.1905 38.8891 21.132 39.2512C20.9008 40.6299 20.6446 42.0031 20.3967 43.379C20.043 45.365 19.6948 47.3537 19.3244 49.3369C19.2408 49.7936 19.3466 49.9524 19.8341 49.9246C20.5165 49.8828 21.21 49.9134 21.9091 49.9134ZM26.0398 29.2324C25.8422 28.872 25.7129 28.4782 25.6582 28.0709C25.6248 27.6531 25.4604 27.5528 25.051 27.7032C24.022 28.0664 22.936 28.241 21.8451 28.2185C20.7714 28.2086 19.7068 28.0204 18.6949 27.6615C18.3829 27.55 18.2687 27.5807 18.2464 27.94C18.234 28.3039 18.1387 28.6601 17.9679 28.9817C17.798 29.2742 17.8732 29.4274 18.1489 29.5973C19.3114 30.3159 20.4654 31.0466 21.6111 31.7893C21.7038 31.8647 21.8189 31.9072 21.9383 31.9102C22.0578 31.9133 22.1748 31.8766 22.2712 31.806C23.4494 31.0484 24.636 30.3047 25.8169 29.5527C25.9061 29.4775 26.0565 29.4246 26.0314 29.2324H26.0398ZM18.1462 34.8838C18.3387 34.8725 18.519 34.7853 18.6475 34.6415C19.1517 34.2209 19.6391 33.7808 20.1627 33.3853C20.4998 33.129 20.4413 33.0065 20.1154 32.8059C18.7645 31.9704 17.3858 31.171 16.1017 30.2407C15.2856 29.6502 14.6422 29.6836 13.9041 30.2852C13.659 30.4886 13.5977 30.5944 13.84 30.8423C15.1185 32.1013 16.3831 33.3742 17.6559 34.6415C17.7137 34.7146 17.7867 34.7742 17.87 34.8161C17.9532 34.8579 18.0447 34.8811 18.1378 34.8838H18.1462ZM28.8502 29.6892C28.7362 29.7245 28.6253 29.7693 28.5187 29.8229C26.8828 30.8534 25.2487 31.8868 23.6165 32.9229C23.4633 33.0204 23.3659 33.1095 23.5608 33.2711C24.1736 33.7724 24.7752 34.2905 25.3964 34.7863C25.4495 34.8322 25.5112 34.8669 25.578 34.8884C25.6448 34.9099 25.7153 34.9178 25.7851 34.9116C25.855 34.9053 25.923 34.8851 25.9849 34.8521C26.0468 34.8191 26.1015 34.774 26.1456 34.7195C27.464 33.4011 28.7824 32.0836 30.1008 30.7671C30.1788 30.6919 30.3431 30.586 30.1955 30.4886C29.7775 30.1738 29.3264 29.9058 28.8502 29.6892ZM22.0651 37.1148C22.6835 37.2931 23.1235 36.9533 23.3826 36.2792C23.432 36.1702 23.4927 36.0666 23.5636 35.9701C23.6045 35.9254 23.6347 35.8721 23.6521 35.8141C23.6695 35.7562 23.6735 35.695 23.6638 35.6352C23.6542 35.5755 23.6311 35.5187 23.5964 35.4691C23.5617 35.4195 23.5162 35.3785 23.4633 35.3489C23.0316 35.0064 22.6082 34.6554 22.1932 34.2905C22.1582 34.253 22.1154 34.2235 22.0679 34.204C22.0204 34.1845 21.9693 34.1755 21.9179 34.1776C21.8666 34.1797 21.8164 34.1929 21.7706 34.2162C21.7249 34.2396 21.6847 34.2725 21.6529 34.3128C21.2323 34.6693 20.8173 35.0175 20.3828 35.3712C20.2519 35.4826 20.1349 35.5801 20.2073 35.803C20.5165 36.7444 20.9816 37.1009 22.0651 37.1009V37.1148ZM10.3668 14.0663C10.3668 15.0105 10.3668 15.9547 10.3668 16.899C10.3668 17.9574 10.7233 18.2916 11.7845 18.2248C12.0881 18.2081 12.2274 18.0994 12.2246 17.793C12.2246 17.0522 12.2246 16.3113 12.2246 15.5648C12.2367 15.4613 12.2109 15.3569 12.152 15.2709C12.0931 15.1848 12.0051 15.123 11.9042 15.0968C11.3099 14.883 10.7785 14.5239 10.3584 14.0524L10.3668 14.0663ZM33.4849 14.0663C33.0768 14.5355 32.5523 14.889 31.9641 15.0913C31.8632 15.1164 31.7749 15.1775 31.7159 15.2632C31.6569 15.3489 31.6313 15.4532 31.6438 15.5564C31.6438 16.3001 31.6438 17.041 31.6438 17.7847C31.6309 17.8529 31.6357 17.9232 31.6576 17.989C31.6795 18.0548 31.7179 18.1139 31.7692 18.1607C32.3012 18.5395 33.4404 18.0744 33.4654 17.4198C33.5184 16.2973 33.4849 15.1776 33.4849 14.0607V14.0663ZM31.7831 21.8485C32.6716 21.8485 33.3095 21.3722 33.4543 20.6174C33.5991 19.8625 33.5184 19.7818 32.7914 19.8904C32.3903 19.9572 31.875 19.7121 31.616 20.0519C31.3569 20.3918 31.3876 20.829 31.2845 21.2246C31.1313 21.8429 31.1369 21.8513 31.7831 21.8429V21.8485ZM27.0286 23.0991C27.3739 23.0991 27.7193 23.0991 28.0647 23.0991C28.1343 23.1044 28.2043 23.0947 28.2699 23.0707C28.3355 23.0466 28.3951 23.0087 28.4448 22.9596C28.4944 22.9105 28.533 22.8512 28.5577 22.7859C28.5825 22.7206 28.5929 22.6507 28.5883 22.581C28.597 22.5112 28.5908 22.4403 28.57 22.3731C28.5491 22.3059 28.5143 22.2439 28.4676 22.1912C28.421 22.1385 28.3637 22.0963 28.2995 22.0675C28.2353 22.0386 28.1657 22.0238 28.0953 22.024C27.3879 21.9942 26.6804 21.9942 25.9729 22.024C25.9017 22.0232 25.8311 22.0375 25.7657 22.0659C25.7004 22.0942 25.6417 22.1361 25.5936 22.1886C25.5456 22.2412 25.5091 22.3033 25.4866 22.3709C25.4641 22.4385 25.4562 22.5101 25.4632 22.581C25.4613 22.6513 25.4737 22.7212 25.4998 22.7865C25.5259 22.8517 25.5651 22.911 25.6149 22.9605C25.6647 23.0101 25.7242 23.049 25.7896 23.0747C25.855 23.1004 25.925 23.1125 25.9952 23.1102C26.3378 23.1074 26.6832 23.0935 27.0286 23.0935V23.0991Z" fill="white"/>
<path d="M40.8132 53.6084C39.4072 53.606 38.0154 53.3267 36.7173 52.7865C35.4192 52.2462 34.2402 51.4556 33.2477 50.4597C32.2551 49.4638 31.4685 48.2821 30.9326 46.9822C30.3967 45.6823 30.1221 44.2896 30.1245 42.8835C30.1269 41.4775 30.4062 40.0857 30.9465 38.7876C31.4867 37.4895 32.2774 36.3105 33.2733 35.318C34.2692 34.3254 35.4508 33.5388 36.7507 33.0029C38.0506 32.467 39.4434 32.1925 40.8494 32.1948C46.7348 32.1948 51.6342 37.0608 51.5729 42.9267C51.5722 44.3358 51.2928 45.7309 50.7509 47.0316C50.209 48.3324 49.4152 49.5131 48.4151 50.5059C47.4151 51.4986 46.2286 52.2838 44.924 52.8163C43.6194 53.3488 42.2223 53.618 40.8132 53.6084ZM40.88 33.8967C39.0964 33.8912 37.351 34.4142 35.8642 35.3995C34.3774 36.3849 33.2157 37.7885 32.5256 39.4333C31.8356 41.0782 31.6481 42.8905 31.9869 44.6417C32.3257 46.393 33.1755 48.0046 34.4292 49.2734C35.6829 50.5422 37.2842 51.4114 39.0313 51.7711C40.7783 52.1309 42.5928 51.9652 44.2457 51.2949C45.8987 50.6246 47.3162 49.4799 48.3193 48.005C49.3224 46.53 49.8662 44.7911 49.8822 43.0075C49.8921 41.8174 49.6668 40.6371 49.2193 39.5343C48.7717 38.4316 48.1107 37.4281 47.2743 36.5815C46.4378 35.7349 45.4423 35.062 44.345 34.6012C43.2477 34.1405 42.0702 33.901 40.88 33.8967Z" fill="white"/>
<path d="M46.2975 41.3235C46.2975 41.7859 46.3114 42.1145 46.2975 42.4376C46.2752 42.9278 46.2752 43.3345 46.8406 43.6214C47.3503 43.8776 47.264 44.6798 46.7236 44.9389C46.5719 44.9967 46.4451 45.1057 46.3653 45.2471C46.2854 45.3885 46.2575 45.5534 46.2863 45.7132C46.3003 45.9709 46.2807 46.2293 46.2278 46.4819C46.1723 46.6623 46.0574 46.8186 45.9017 46.9254C45.7461 47.0321 45.5588 47.083 45.3705 47.0698C45.1823 47.0565 45.004 46.9799 44.8648 46.8524C44.7256 46.725 44.6337 46.5541 44.604 46.3677C44.5841 46.0895 44.5841 45.8103 44.604 45.5321C44.6207 45.1951 44.4731 45.0698 44.1444 45.0753C43.5038 45.0893 42.8632 45.0753 42.2253 45.0753C41.2337 45.0586 40.8661 44.4598 41.3396 43.6103C42.1056 42.2371 42.8938 40.8779 43.6793 39.5186C43.7963 39.307 43.9364 39.1089 44.0971 38.9281C44.243 38.7428 44.44 38.6043 44.6637 38.5296C44.8874 38.4548 45.128 38.4472 45.356 38.5075C45.5844 38.5641 45.7907 38.6872 45.9489 38.8613C46.1071 39.0353 46.21 39.2525 46.2445 39.4852C46.3699 40.1453 46.2613 40.8054 46.2975 41.3235ZM44.5928 41.4488L44.4926 41.4154C44.1778 41.9725 43.8603 42.5156 43.5483 43.0699C43.501 43.1535 43.4091 43.2899 43.5261 43.3484C43.8065 43.4385 44.1066 43.4481 44.3923 43.3763C44.6151 43.3401 44.5901 43.1228 44.5928 42.9557C44.5956 42.446 44.5928 41.9446 44.5928 41.4488Z" fill="white"/>
<path d="M37.7326 47.368C37.1978 47.368 36.6602 47.368 36.1254 47.368C35.9251 47.3834 35.7247 47.3386 35.5501 47.2394C35.3754 47.1401 35.2343 46.9909 35.145 46.8109C34.95 46.4015 35.145 46.0728 35.3622 45.7581C36.131 44.6969 36.9109 43.6385 37.6824 42.58C37.9214 42.2624 38.1163 41.9138 38.2618 41.5439C38.3166 41.4305 38.3467 41.3067 38.35 41.1808C38.3533 41.0549 38.3299 40.9297 38.2811 40.8135C38.2324 40.6974 38.1595 40.5929 38.0674 40.5071C37.9752 40.4212 37.8658 40.3559 37.7465 40.3156C37.6345 40.2686 37.5143 40.2444 37.3929 40.2445C37.2715 40.2446 37.1514 40.269 37.0395 40.3163C36.9277 40.3635 36.8264 40.4326 36.7416 40.5195C36.6569 40.6065 36.5904 40.7095 36.546 40.8225L36.5293 40.8699C36.2118 41.5829 35.833 41.8141 35.3372 41.5996C34.8414 41.3851 34.6993 40.8559 34.9946 40.1763C35.1283 39.8568 35.3241 39.567 35.5706 39.3237C35.8171 39.0803 36.1095 38.8884 36.4307 38.7588C36.7519 38.6293 37.0957 38.5648 37.442 38.569C37.7884 38.5733 38.1304 38.6462 38.4484 38.7836C38.7631 38.9162 39.0484 39.1101 39.2875 39.3539C39.5266 39.5977 39.7149 39.8866 39.8414 40.2038C39.9679 40.5211 40.03 40.8603 40.0242 41.2018C40.0184 41.5432 39.9448 41.8801 39.8076 42.1929C39.4314 43.0062 38.9642 43.7743 38.415 44.4824C38.259 44.708 38.0779 44.9197 37.922 45.1481C37.83 45.2846 37.6212 45.4099 37.6936 45.5798C37.766 45.7497 38.0027 45.669 38.1643 45.6745C38.5459 45.6745 38.9247 45.6745 39.3063 45.6745C39.933 45.6885 40.348 46.0338 40.348 46.5101C40.348 46.9864 39.9302 47.3457 39.3007 47.3457C38.7826 47.3457 38.2618 47.3457 37.7437 47.3457L37.7326 47.368Z" fill="white"/>
</svg>
