<svg width="40" height="51" viewBox="0 0 40 51" fill="none" xmlns="http://www.w3.org/2000/svg">
<path d="M9.17488 50.1427C8.84216 49.9079 8.61232 49.5543 8.53285 49.155C8.12997 47.611 7.7011 46.0722 7.30861 44.5231C7.21504 44.1566 7.07208 44.0734 6.70818 44.1748C5.17202 44.6037 3.62806 45.0039 2.0919 45.4224C1.57205 45.5628 1.09119 45.607 0.724693 45.1365C0.358198 44.6661 0.516747 44.206 0.784471 43.7433C2.68972 40.4475 4.57938 37.1412 6.50283 33.8506C6.76276 33.4165 6.81476 33.1462 6.40147 32.7459C5.57942 31.9309 5.0518 30.8656 4.9017 29.7177C4.75862 28.7347 4.24997 27.8417 3.47731 27.2173C1.46809 25.5225 0.839067 23.1884 1.72281 20.7191C2.07509 19.7753 2.07509 18.7361 1.72281 17.7924C0.844266 15.3231 1.46288 13.0123 3.45131 11.3306C4.24737 10.6832 4.7707 9.75994 4.91729 8.74436C5.10064 7.57834 5.64565 6.49939 6.47537 5.65987C7.30509 4.82036 8.37758 4.26272 9.54136 4.0657C10.4381 3.90715 11.2829 3.63163 11.8651 2.90123C12.7879 1.70233 14.0962 0.858601 15.569 0.51252H17.5055L18.9767 0.969991C19.6854 1.2053 20.4513 1.2053 21.16 0.969991C21.6461 0.808837 22.14 0.66068 22.6312 0.507324H24.5651C26.0293 0.82899 27.3328 1.6575 28.2456 2.84665C28.8278 3.59264 29.6778 3.90195 30.5849 4.0657C31.7504 4.2482 32.8277 4.79614 33.6616 5.63048C34.4954 6.46483 35.0428 7.54246 35.2246 8.70797C35.3858 9.76885 35.9431 10.7292 36.7842 11.3956C37.6617 12.1108 38.2995 13.0774 38.6117 14.1655C38.9239 15.2537 38.8957 16.4114 38.5309 17.4831C38.0954 18.6176 38.0954 19.8731 38.5309 21.0076C38.8998 22.0693 38.9354 23.2183 38.6329 24.3007C38.3305 25.3831 37.7045 26.3472 36.8387 27.0639C35.9539 27.7567 35.3724 28.7659 35.2168 29.8789C35.0603 30.9608 34.5504 31.9606 33.7664 32.7225C33.3973 33.0864 33.4259 33.3437 33.6625 33.7622C35.6119 37.11 37.538 40.4709 39.4744 43.8265C39.6979 44.2138 39.7993 44.6063 39.5732 45.0169C39.347 45.4276 38.874 45.6148 38.2735 45.4562C36.6984 45.0403 35.1258 44.6297 33.5585 44.1878C33.153 44.0734 33.0023 44.154 32.8983 44.5725C32.5266 46.0748 32.1185 47.5668 31.7156 49.0666C31.6413 49.5005 31.3995 49.8879 31.0424 50.1453H30.1717C29.9221 49.9215 29.7114 49.6581 29.5478 49.3655C27.4563 45.7265 25.3613 42.0928 23.2628 38.4642C23.1407 38.2511 23.0367 38.0276 22.743 37.9938C22.203 37.9 21.6736 37.7528 21.1626 37.5545C20.4216 37.3125 19.6216 37.3207 18.8857 37.5779C18.5137 37.7332 18.1271 37.8508 17.7316 37.9288C17.5525 37.9496 17.3819 38.0166 17.2366 38.1232C17.0912 38.2298 16.9761 38.3724 16.9025 38.537C14.9963 41.8848 13.0729 45.2266 11.1321 48.5623C10.8098 49.116 10.5629 49.7268 10.0456 50.1505L9.17488 50.1427ZM23.4578 35.9819C24.0427 36.004 24.6244 35.8846 25.1533 35.6339C25.6823 35.3833 26.143 35.0087 26.4963 34.542C27.4014 33.4121 28.7023 32.6687 30.1353 32.4626C31.791 32.2026 32.9425 31.0771 33.2102 29.4682C33.4329 27.9704 34.2012 26.6078 35.3676 25.6421C36.7608 24.4621 37.1091 23.0429 36.4853 21.3325C35.99 20.0039 35.99 18.5413 36.4853 17.2127C37.1195 15.4244 36.7608 14.065 35.3234 12.833C34.1955 11.8951 33.4547 10.5729 33.244 9.12125C33.1353 8.35531 32.7817 7.64514 32.2358 7.09695C31.69 6.54876 30.9813 6.19204 30.2159 6.08013C28.7812 5.87061 27.4734 5.14178 26.5405 4.03191C25.2409 2.52954 23.9413 2.18904 22.0958 2.83886C20.782 3.31943 19.3393 3.31204 18.0305 2.81806C16.3202 2.18904 14.8542 2.55813 13.6898 3.96433C12.7623 5.1 11.4477 5.85265 9.99883 6.07752C8.32751 6.36604 7.20723 7.44993 6.92651 9.12645C6.69792 10.6069 5.92942 11.9504 4.76913 12.898C3.42792 14.0364 3.05623 15.4816 3.65666 17.1296C4.18977 18.514 4.18421 20.0481 3.64107 21.4287C3.03284 23.0169 3.47471 24.566 4.78993 25.6499C5.92375 26.5571 6.67824 27.8547 6.90573 29.2889C7.21244 31.072 8.30152 32.1662 10.0794 32.4704C11.514 32.6983 12.8118 33.4538 13.7184 34.5887C14.8153 35.9248 16.3514 36.3484 17.976 35.7272C19.3242 35.193 20.8255 35.193 22.1738 35.7272C22.5795 35.9003 23.0167 35.987 23.4578 35.9819ZM36.5398 42.8726C36.3995 42.6126 36.3319 42.4645 36.2513 42.3293L32.0925 35.119C31.6038 34.2742 31.6091 34.3106 30.6525 34.4406C30.1081 34.5083 29.5828 34.685 29.1081 34.9601C28.6334 35.2351 28.219 35.603 27.8895 36.0417C27.3231 36.7512 26.5722 37.2908 25.7191 37.6013C25.3318 37.7442 25.2747 37.8742 25.4878 38.2433C27.0084 40.8425 28.5055 43.4678 30.0131 46.08C30.0703 46.1814 30.0989 46.34 30.2938 46.34C30.338 46.1918 30.3874 46.0411 30.429 45.8877C30.7097 44.848 30.9826 43.8083 31.2711 42.7686C31.5077 41.9186 31.9418 41.6717 32.7839 41.8796C32.9555 41.9212 33.1244 41.9706 33.3038 42.0174L36.5398 42.8726ZM3.74242 42.7946C3.96028 42.8132 4.17932 42.7765 4.37925 42.688C5.41895 42.4151 6.45865 42.124 7.49835 41.8563C8.22354 41.6691 8.68882 41.9342 8.90196 42.6542C9.0839 43.2728 9.23466 43.8993 9.40361 44.5231C9.57256 45.1469 9.74151 45.7499 9.92346 46.4205C9.99072 46.3612 10.0525 46.296 10.108 46.2256C11.6676 43.5172 13.2271 40.807 14.7867 38.0951C14.94 37.8352 14.8075 37.7702 14.5995 37.6949C13.5716 37.3018 12.6722 36.6326 12.0003 35.761C11.5139 35.1491 10.8305 34.7247 10.0664 34.5602C9.76415 34.5187 9.46531 34.4553 9.17227 34.3704C8.7226 34.2015 8.51207 34.3886 8.29893 34.7629C6.9993 37.0632 5.66068 39.3506 4.34545 41.6457C4.10483 42.0065 3.90271 42.3916 3.74242 42.7946Z" fill="white"/>
<path d="M32.7011 19.6093C32.7895 25.8735 27.9237 31.4645 21.4957 32.1559C18.482 32.4837 15.4508 31.7186 12.9537 29.9999C10.4565 28.2813 8.65939 25.7232 7.88932 22.7911C7.11924 19.8591 7.42742 16.7481 8.75775 14.0241C10.0881 11.3002 12.3521 9.14438 15.1379 7.949C15.3394 7.84535 15.5594 7.78262 15.7852 7.76445C15.9966 7.74707 16.2079 7.8001 16.386 7.91528C16.5642 8.03046 16.6993 8.20132 16.7703 8.40127C16.8549 8.60476 16.8681 8.83094 16.8077 9.04289C16.7473 9.25485 16.6168 9.44007 16.4376 9.56833C16.2746 9.6777 16.1003 9.7692 15.9177 9.84126C12.3334 11.4684 10.176 14.2314 9.61973 18.1225C9.35083 20.0773 9.63373 22.0684 10.4365 23.8709C11.2393 25.6735 12.53 27.2157 14.1629 28.3235C15.7958 29.4314 17.7059 30.0606 19.6775 30.1404C21.6491 30.2201 23.6037 29.7471 25.3208 28.7747C27.0378 27.8024 28.4488 26.3694 29.3945 24.6376C30.3402 22.9057 30.783 20.944 30.6728 18.9739C30.5626 17.0037 29.9039 15.1036 28.771 13.488C27.6381 11.8724 26.0761 10.6057 24.2613 9.83086C24.1574 9.78667 24.0508 9.74248 23.952 9.6905C23.7145 9.58275 23.5277 9.38737 23.4308 9.14518C23.334 8.90299 23.3344 8.63272 23.4322 8.39087C23.528 8.14724 23.7159 7.95117 23.9553 7.84511C24.1947 7.73905 24.4662 7.73155 24.711 7.82423C25.3822 8.05745 26.0227 8.37076 26.6189 8.75736C30.159 10.9893 32.1769 14.1881 32.6725 18.3538C32.6807 18.4185 32.6851 18.4836 32.6855 18.5488C32.7011 18.8971 32.7011 19.2532 32.7011 19.6093Z" fill="white"/>
<path d="M27.8685 17.1495C27.8652 17.3034 27.8308 17.455 27.7674 17.5953C27.7039 17.7356 27.6128 17.8615 27.4994 17.9657C24.9365 20.5354 22.371 23.1044 19.803 25.6724C19.2831 26.1923 18.7373 26.1923 18.22 25.688C16.3694 23.8582 14.5334 22.0205 12.7122 20.175C12.1716 19.624 12.1923 19.1093 12.7434 18.5609C13.6722 17.62 14.6062 16.6834 15.5454 15.7511C16.1094 15.1948 16.6189 15.1948 17.1855 15.7511C17.7054 16.2449 18.2044 16.7414 18.6879 17.2613C18.9192 17.5212 19.0674 17.5056 19.3039 17.2613C20.4788 16.063 21.6692 14.8803 22.8545 13.6951C23.6109 12.9387 24.0683 12.9335 24.8117 13.6769L27.4448 16.3151C27.5688 16.4178 27.6704 16.5448 27.7433 16.6883C27.8162 16.8318 27.8588 16.9888 27.8685 17.1495ZM18.9504 23.4943C19.0116 23.4899 19.071 23.4717 19.1241 23.4411C19.1772 23.4105 19.2227 23.3683 19.2571 23.3175C21.2274 21.3456 23.1985 19.3727 25.1704 17.399C25.3758 17.1963 25.3342 17.0637 25.147 16.8792C24.8091 16.5569 24.466 16.2345 24.1593 15.8836C23.8994 15.5977 23.759 15.6419 23.5121 15.8836C22.3164 17.1053 21.1052 18.3114 19.8939 19.5226C19.2285 20.1854 18.7581 20.1802 18.0745 19.5096C17.6066 19.0417 17.1309 18.5817 16.6787 18.1008C16.4603 17.8669 16.3018 17.8097 16.0652 18.08C15.7529 18.4283 15.4224 18.7597 15.0749 19.0729C14.8358 19.2887 14.8566 19.4394 15.0749 19.6578C16.2914 20.8586 17.4948 22.0725 18.7139 23.2811C18.7919 23.3721 18.8828 23.4371 18.9504 23.4943Z" fill="white"/>
<path d="M19.1093 7.97091C19.1024 7.83572 19.123 7.70054 19.17 7.57359C19.217 7.44664 19.2893 7.33058 19.3825 7.23246C19.4758 7.13433 19.588 7.05619 19.7124 7.0028C19.8368 6.94941 19.9707 6.92188 20.1061 6.92188C20.2415 6.92188 20.3754 6.94941 20.4998 7.0028C20.6242 7.05619 20.7364 7.13433 20.8296 7.23246C20.9229 7.33058 20.9952 7.44664 21.0422 7.57359C21.0891 7.70054 21.1098 7.83572 21.1029 7.97091C21.1098 8.10609 21.0891 8.24127 21.0422 8.36822C20.9952 8.49517 20.9229 8.61124 20.8296 8.70936C20.7364 8.80749 20.6242 8.88562 20.4998 8.93901C20.3754 8.9924 20.2415 9.01994 20.1061 9.01994C19.9707 9.01994 19.8368 8.9924 19.7124 8.93901C19.588 8.88562 19.4758 8.80749 19.3825 8.70936C19.2893 8.61124 19.217 8.49517 19.17 8.36822C19.123 8.24127 19.1024 8.10609 19.1093 7.97091Z" fill="white"/>
</svg>
