<svg width="30" height="26" viewBox="0 0 30 26" fill="none" xmlns="http://www.w3.org/2000/svg">
<g id="icon_marketing">
<path id="Vector" d="M29.6006 25.1848C29.4105 25.5022 29.1259 25.6001 28.765 25.6001C19.6743 25.5955 10.5835 25.5955 1.49275 25.6001C0.888293 25.6001 0.636719 25.3566 0.636719 24.774V1.69039C0.636719 1.08619 1.03969 0.756213 1.54739 0.934856C1.67056 0.973105 1.77959 1.04706 1.86065 1.14733C1.94172 1.24761 1.99117 1.36969 2.00272 1.49809C2.0183 1.63823 2.02363 1.77932 2.01866 1.92024C2.01866 9.20249 2.01866 16.4817 2.01866 23.7579C2.01866 24.213 2.01866 24.213 2.4592 24.213C3.20253 24.213 3.20253 24.213 3.20253 23.4643C3.20253 21.4116 3.20253 19.359 3.20253 17.3063C3.20076 17.0896 3.2156 16.8732 3.24692 16.6588C3.3016 16.3448 3.4631 16.0592 3.70411 15.8504C3.94513 15.6416 4.25088 15.5225 4.56967 15.513C5.71939 15.4994 6.86873 15.4994 8.01769 15.513C8.78721 15.5221 9.37459 16.1559 9.37573 16.957C9.37573 19.2463 9.37573 21.5349 9.37573 23.8228C9.37573 24.213 9.37573 24.213 9.75935 24.2142C10.0701 24.2142 10.3809 24.2142 10.6916 24.2142C10.8601 24.2142 10.9375 24.1516 10.9261 23.9866C10.9261 23.9024 10.9261 23.8171 10.9261 23.7329V12.847C10.9261 11.8048 11.5101 11.2199 12.5517 11.2176H15.4909C16.5154 11.2176 17.1073 11.8116 17.1073 12.8357C17.1073 16.4768 17.1073 20.1209 17.1073 23.7681C17.1073 24.2096 17.1073 24.2096 17.5626 24.2096C17.8358 24.2096 18.1091 24.2028 18.3823 24.2096C18.5655 24.2153 18.6418 24.1357 18.6327 23.957C18.6327 23.8637 18.6327 23.7693 18.6327 23.6748V8.81676C18.6327 8.70297 18.6327 8.58919 18.6327 8.4754C18.6816 7.47751 19.2189 6.96775 20.2173 6.96775C21.2531 6.96775 22.2894 6.96775 23.326 6.96775C24.2288 6.96775 24.8059 7.54578 24.8059 8.45492C24.8059 13.5593 24.8059 18.6634 24.8059 23.767C24.8059 24.2074 24.8059 24.2074 25.2544 24.2074C26.4223 24.2074 27.5903 24.2142 28.7582 24.2074C29.119 24.2074 29.4036 24.3052 29.5937 24.6227L29.6006 25.1848Z" />
<path id="Vector_2" d="M21.7476 0.0245479C22.1465 0.0240515 22.5414 0.102892 22.9095 0.256476C23.2776 0.41006 23.6114 0.635318 23.8915 0.919128C24.1716 1.20294 24.3924 1.53962 24.5411 1.90958C24.6897 2.27953 24.7633 2.67535 24.7574 3.07399C24.7526 3.87304 24.4331 4.63805 23.868 5.20328C23.303 5.76852 22.5379 6.08848 21.7385 6.09385C20.9327 6.09219 20.1606 5.77064 19.592 5.19993C19.0234 4.62923 18.7049 3.85611 18.7065 3.05067C18.7082 2.24522 19.0299 1.47343 19.6008 0.905068C20.1718 0.336707 20.9452 0.0183357 21.751 0.0199955L21.7476 0.0245479ZM20.7857 4.24712C20.7857 4.47469 20.9508 4.54751 21.1272 4.59985C21.2718 4.64309 21.4164 4.66357 21.4494 4.85928C21.4533 4.89498 21.4647 4.92945 21.4829 4.96045C21.501 4.99144 21.5255 5.01828 21.5547 5.0392C21.5839 5.06013 21.6172 5.07468 21.6524 5.08191C21.6876 5.08914 21.7239 5.08889 21.759 5.08117C21.8311 5.07647 21.8984 5.04367 21.9465 4.98983C21.9947 4.93599 22.0197 4.86541 22.0163 4.79329C22.0178 4.73219 22.0365 4.67274 22.0701 4.62167C22.1037 4.5706 22.1509 4.52993 22.2064 4.50427C22.541 4.32108 22.7198 4.04913 22.689 3.65202C22.6583 3.25491 22.4192 3.04555 22.0971 2.8908C21.9275 2.80887 21.7556 2.7406 21.5826 2.66323C21.5233 2.64492 21.4715 2.60805 21.4348 2.55805C21.3981 2.50806 21.3785 2.4476 21.3788 2.38559C21.3868 2.22857 21.4995 2.15802 21.6292 2.11251C21.8084 2.05001 22.003 2.04761 22.1836 2.10568C22.3885 2.16599 22.6002 2.19443 22.6685 1.935C22.7368 1.67557 22.5285 1.59365 22.3373 1.52651C22.3027 1.51088 22.2664 1.49942 22.2291 1.49238C22.1718 1.49256 22.1165 1.4711 22.0743 1.43229C22.0321 1.39347 22.0061 1.34016 22.0015 1.28301C21.9983 1.24722 21.9881 1.21242 21.9713 1.18064C21.9546 1.14886 21.9316 1.12076 21.9038 1.09797C21.8761 1.07518 21.844 1.05816 21.8095 1.04793C21.7751 1.0377 21.7389 1.03445 21.7032 1.03838C21.6649 1.03766 21.6269 1.0449 21.5916 1.05964C21.5562 1.07438 21.5243 1.0963 21.4979 1.124C21.4715 1.15171 21.4511 1.18459 21.438 1.22058C21.425 1.25657 21.4195 1.29488 21.422 1.33308C21.422 1.50262 21.3264 1.57772 21.2012 1.65964C20.5455 2.08634 20.5945 2.85325 21.298 3.20598C21.4824 3.29929 21.677 3.37211 21.8671 3.46086C21.9901 3.52003 22.0948 3.60651 22.0834 3.76126C22.072 3.916 21.932 3.97972 21.7909 4.02524C21.5712 4.09579 21.364 4.02524 21.1523 3.98427C20.9405 3.94331 20.7903 4.04003 20.7857 4.24257V4.24712Z" />
<path id="Vector_3" d="M13.5663 8.25008L11.6072 9.33786C9.39884 10.563 7.19199 11.7873 4.98665 13.0109C4.47098 13.2965 3.97694 13.0928 3.87563 12.5557C3.82213 12.269 3.94962 12.0107 4.25811 11.8366C5.20976 11.3018 6.16483 10.7738 7.11989 10.2436C8.87293 9.27187 10.626 8.30014 12.379 7.32841C12.5133 7.25445 12.6283 7.21463 12.4382 7.04509C12.3341 6.94483 12.2642 6.81448 12.2381 6.67238C12.212 6.53029 12.2312 6.3836 12.2929 6.25296C12.3546 6.12232 12.4557 6.01431 12.5821 5.94413C12.7084 5.87394 12.8536 5.84512 12.9971 5.86172C13.597 5.89472 14.1981 5.92999 14.8002 5.95275C15.5447 5.9812 15.8384 6.417 15.5618 7.10198C15.3478 7.63298 15.1304 8.16398 14.9095 8.69498C14.7024 9.19336 14.4235 9.35948 14.0091 9.24228C13.6255 9.13988 13.4707 8.82242 13.5663 8.25008Z" />
</g>
</svg>
