<svg width="24" height="31" viewBox="0 0 24 31" fill="none" xmlns="http://www.w3.org/2000/svg">
<g id="icon_calidad">
<path id="Vector" d="M9.95306 0.880909C10.3749 0.86012 10.795 0.947088 11.1739 1.13362C11.4606 1.27256 11.7751 1.34474 12.0937 1.34474C12.4124 1.34474 12.7269 1.27256 13.0136 1.13362C14.21 0.60989 15.1842 0.807661 16.0498 1.77942C16.2664 2.04328 16.5357 2.25897 16.8406 2.41265C17.1454 2.56633 17.479 2.65461 17.8199 2.67183C19.1848 2.76583 19.8782 3.37257 20.2444 4.69836C20.3223 5.01138 20.4663 5.30409 20.6668 5.55678C20.8673 5.80948 21.1196 6.0163 21.4067 6.16333C22.227 6.60648 22.763 7.26205 22.8216 8.2387C22.8333 8.52105 22.8115 8.8038 22.7569 9.08105C22.6458 9.70855 22.7288 10.2835 23.1231 10.8048C23.2426 10.9678 23.3496 11.1396 23.443 11.3188C23.9313 12.2283 23.869 13.1427 23.2818 13.9521C22.7642 14.6675 22.6519 15.3975 22.7935 16.2362C22.9656 17.2617 22.5676 18.0735 21.7241 18.6693C21.5924 18.7632 21.4546 18.848 21.3114 18.9232C21.0566 19.0485 20.8329 19.229 20.6566 19.4516C20.4803 19.6741 20.3557 19.9332 20.2921 20.2099C20.2567 20.3466 20.2115 20.4809 20.17 20.614C19.783 21.7127 18.9711 22.3231 17.8028 22.3585C17.484 22.3547 17.1686 22.4245 16.8811 22.5623C16.5936 22.7001 16.3417 22.9023 16.145 23.1533C16.014 23.3067 15.8706 23.4492 15.7165 23.5793C14.9608 24.2495 14.1001 24.3448 13.2041 23.9456C12.4496 23.6111 11.7525 23.6306 10.992 23.9541C9.89325 24.4205 8.90683 24.1458 8.13773 23.2216C7.66528 22.6552 7.10126 22.3988 6.36145 22.3414C5.04054 22.2389 4.37765 21.7152 3.98943 20.4126C3.76114 19.7094 3.38025 19.193 2.71125 18.8267C1.61253 18.2273 1.19623 17.2641 1.42941 15.9578C1.49056 15.6524 1.48819 15.3376 1.42245 15.033C1.35672 14.7285 1.22901 14.4407 1.04729 14.1877C0.219587 12.9901 0.219587 12.0635 1.04729 10.861C1.22952 10.6066 1.35702 10.3172 1.42174 10.011C1.48646 9.70489 1.48699 9.38864 1.4233 9.08227C1.17914 7.76136 1.5991 6.84454 2.76619 6.18897C3.05681 6.03722 3.31197 5.82558 3.51482 5.56801C3.71768 5.31044 3.86363 5.0128 3.94304 4.6947C4.30928 3.36402 5.09304 2.74142 6.47133 2.66939C6.76412 2.66826 7.05298 2.60194 7.31694 2.47524C7.5809 2.34854 7.81332 2.16465 7.99734 1.9369C8.29307 1.57641 8.66113 1.28197 9.07775 1.07258C9.3444 0.924201 9.64881 0.857545 9.95306 0.880909ZM12.0626 20.238C13.0838 20.2493 14.097 20.0565 15.0427 19.6709C15.9884 19.2853 16.8475 18.7147 17.5697 17.9927C18.292 17.2706 18.8627 16.4115 19.2484 15.4659C19.6341 14.5202 19.8271 13.5071 19.8159 12.4859C19.7964 8.02872 16.2158 4.82533 12.1395 4.80091C8.01687 4.7765 4.38009 8.01407 4.37277 12.5164C4.36501 13.5299 4.55838 14.5349 4.94169 15.4731C5.325 16.4114 5.89063 17.2643 6.60583 17.9824C7.32103 18.7006 8.17159 19.2697 9.10825 19.6569C10.0449 20.0441 11.0491 20.2416 12.0626 20.238Z" />
<path id="Vector_2" d="M0.432156 26.7131C0.426739 26.4875 0.489264 26.2655 0.611614 26.0758C1.40188 24.7028 2.19215 23.3294 2.98241 21.9556C3.09229 21.764 3.1753 21.7176 3.30837 21.941C3.93342 22.9799 4.91129 23.4523 6.07105 23.5573C6.31381 23.5699 6.55137 23.6324 6.76895 23.7407C6.98654 23.8491 7.17949 24.0011 7.3358 24.1873C7.91168 24.866 8.72274 25.302 9.6065 25.4081C9.99472 25.452 9.9996 25.4679 9.81037 25.7951C9.02906 27.1501 8.2392 28.5004 7.46521 29.8591C7.16977 30.378 6.75714 30.7039 6.15162 30.6661C5.50582 30.6258 5.12249 30.2266 4.91007 29.6284C4.71718 29.0876 4.48401 28.5602 4.29234 28.0181C4.21177 27.7923 4.10312 27.7349 3.86994 27.774C3.24489 27.8851 2.61495 27.9705 1.98746 28.0657C1.79302 28.0991 1.59359 28.0889 1.4036 28.0357C1.21361 27.9826 1.03782 27.8878 0.888956 27.7583C0.740091 27.6289 0.621878 27.4679 0.542873 27.2872C0.463869 27.1064 0.426051 26.9103 0.432156 26.7131Z" />
<path id="Vector_3" d="M23.753 26.7192C23.7577 26.918 23.7179 27.1153 23.6366 27.2967C23.5552 27.4782 23.4344 27.6391 23.2828 27.7678C23.1313 27.8965 22.9529 27.9898 22.7607 28.0407C22.5685 28.0916 22.3674 28.0989 22.172 28.0621C21.5348 27.9608 20.8938 27.879 20.259 27.7679C20.0466 27.7301 19.9746 27.8082 19.9086 27.9852C19.7011 28.5431 19.4692 29.0925 19.2665 29.6516C19.0529 30.2376 18.6683 30.6283 18.0372 30.6637C17.4329 30.7015 17.0178 30.3804 16.7223 29.8604C15.9484 28.5004 15.1585 27.1502 14.3772 25.7951C14.1855 25.4643 14.1892 25.4508 14.5749 25.4057C15.468 25.2998 16.2875 24.8586 16.8676 24.1714C17.0122 23.9944 17.192 23.8493 17.3957 23.7455C17.5993 23.6417 17.8224 23.5813 18.0506 23.5683C19.2494 23.4731 20.248 22.9946 20.8902 21.9227C21.0013 21.7384 21.0855 21.7567 21.1844 21.93C21.9934 23.3388 22.8028 24.7476 23.6126 26.1564C23.7153 26.3255 23.7642 26.5218 23.753 26.7192Z" />
<path id="Vector_4" d="M12.1421 6.03759C13.8504 6.0683 15.4779 6.77086 16.6719 7.99305C17.8659 9.21524 18.5303 10.8586 18.5211 12.5672C18.512 14.2758 17.83 15.912 16.623 17.1214C15.4159 18.3307 13.781 19.0158 12.0725 19.0282C8.47354 19.0477 5.5778 16.0787 5.59 12.4456C5.60343 8.9016 8.54191 6.02783 12.1421 6.03759ZM10.1753 11.9426C10.0263 11.9329 9.87909 11.9805 9.76394 12.0757C9.47949 12.3199 9.48315 12.7178 9.79446 13.034C10.367 13.6176 10.9469 14.1938 11.5268 14.77C11.9821 15.2229 12.3472 15.1826 12.7085 14.6418C13.498 13.4593 14.287 12.2755 15.0757 11.0905C15.1286 11.0164 15.1759 10.9385 15.2173 10.8573C15.2827 10.7254 15.2982 10.5743 15.2609 10.4318C15.2237 10.2894 15.1362 10.1652 15.0146 10.0821C14.8926 9.99819 14.7435 9.96304 14.5969 9.9836C14.4502 10.0042 14.3166 10.079 14.2223 10.1932C14.1381 10.2938 14.0606 10.3998 13.9904 10.5106L12.1933 13.211C11.9956 13.5065 11.9931 13.5065 11.7319 13.2477C11.3738 12.892 11.0169 12.5355 10.6612 12.1782C10.6027 12.1055 10.5287 12.0467 10.4447 12.006C10.3607 11.9652 10.2687 11.9436 10.1753 11.9426Z" />
</g>
</svg>
