<svg width="31" height="31" viewBox="0 0 31 31" fill="none" xmlns="http://www.w3.org/2000/svg">
<g id="icon_pagos">
<path id="Vector" d="M0.728401 24.2739C0.728401 22.526 0.728401 20.7772 0.728401 19.0276C0.728401 18.521 0.884083 18.3616 1.38203 18.3604C2.28277 18.3604 3.18228 18.3604 4.08179 18.3604C4.52413 18.3604 4.69094 18.5321 4.69959 18.9782C4.69959 19.0597 4.69959 19.1425 4.69959 19.2253C4.69959 19.8357 4.69959 19.8431 5.31739 19.895C6.69423 20.0226 8.03796 20.3911 9.28734 20.9835C9.75998 21.2068 10.2771 21.32 10.7997 21.3147C12.2824 21.3073 13.7651 21.3147 15.2478 21.3147C15.7655 21.3042 16.2667 21.4963 16.6446 21.8502C17.0225 22.2041 17.2471 22.6917 17.2705 23.2088C17.2841 23.4676 17.2464 23.7264 17.1596 23.9705C17.0727 24.2145 16.9384 24.439 16.7644 24.6309C16.5904 24.8228 16.3801 24.9784 16.1457 25.0887C15.9113 25.199 15.6574 25.2618 15.3986 25.2735C13.8368 25.3699 12.2713 25.2921 10.7033 25.3118C10.4686 25.3118 10.2326 25.3118 9.99781 25.318C9.71609 25.3328 9.53941 25.5046 9.54065 25.7529C9.54065 26.026 9.71363 26.1533 9.9558 26.2064C10.0376 26.2179 10.1204 26.2213 10.2029 26.2163C11.8599 26.2163 13.5168 26.2163 15.1737 26.2163C15.8714 26.2302 16.5513 25.9956 17.092 25.5545C17.6328 25.1134 17.9991 24.4944 18.1255 23.8081C18.1708 23.5562 18.1804 23.2991 18.154 23.0445C18.1385 22.9591 18.1552 22.8709 18.2009 22.797C18.2465 22.7231 18.3178 22.6687 18.4011 22.6442C20.2421 21.8534 22.0757 21.0453 23.9205 20.2632C24.3236 20.086 24.7797 20.0723 25.1928 20.2249C25.6059 20.3775 25.9435 20.6845 26.1346 21.0812C26.5375 21.9065 26.2298 22.8419 25.3933 23.3126C21.778 25.3357 18.1626 27.3563 14.5473 29.3745C14.1666 29.6029 13.7266 29.713 13.2833 29.6908C12.1638 29.6084 11.0444 29.5165 9.92491 29.4152C8.70415 29.3077 7.48462 29.1903 6.26509 29.0767C5.85858 29.0384 5.45084 29.0025 5.04556 28.9531C4.81203 28.9272 4.69095 28.9729 4.69095 29.2546C4.69095 30.1442 4.64399 30.1801 3.74819 30.1801C2.95 30.1801 2.15304 30.1801 1.35485 30.1801C0.896442 30.1801 0.729637 30.0108 0.728401 29.5474C0.727577 27.7904 0.727577 26.0326 0.728401 24.2739Z" />
<path id="Vector_2" d="M30.2255 6.60738V11.8228C30.2255 12.364 30.076 12.511 29.5324 12.5123C28.9702 12.5123 28.4067 12.5123 27.8446 12.5123C27.4294 12.5123 27.2626 12.364 27.2416 11.9526C27.2305 11.724 27.1576 11.7425 27.0105 11.8488C26.5448 12.182 26.055 12.4802 25.5451 12.7409C25.3598 12.836 25.2696 12.8286 25.2708 12.5839C25.2774 11.3063 25.2774 10.0296 25.2708 8.7536C25.2669 8.68315 25.2832 8.61305 25.3178 8.55155C25.3524 8.49005 25.4038 8.43969 25.466 8.4064C25.7626 8.21983 25.8256 7.97889 25.6687 7.73918C25.5241 7.51925 25.2733 7.476 24.9916 7.6391C24.6375 7.8572 24.2386 7.992 23.8248 8.03331C23.4111 8.07462 22.9933 8.02136 22.6032 7.87757C22.5247 7.84397 22.4372 7.8379 22.3549 7.86033C22.2726 7.88276 22.2003 7.93238 22.1497 8.00113C21.0616 9.09669 19.9701 10.1894 18.8754 11.2792C18.4034 11.7512 17.8486 12.0205 17.1653 11.9266C16.3894 11.8203 15.842 11.3978 15.5788 10.6564C15.307 9.88788 15.5442 9.21695 16.0867 8.66093C17.1283 7.59091 18.1946 6.5456 19.2498 5.48917C19.3214 5.4175 19.3956 5.34584 19.4635 5.27047C19.5081 5.23119 19.5442 5.1833 19.5698 5.12967C19.5953 5.07605 19.6097 5.01781 19.6122 4.95846C19.6146 4.89912 19.605 4.83989 19.5839 4.78437C19.5628 4.72884 19.5307 4.67815 19.4895 4.63537C19.3251 4.43644 19.0583 4.42656 18.8321 4.62055C18.6382 4.78612 18.4615 4.9764 18.2823 5.15432C17.9524 5.47434 17.6719 5.89568 17.2778 6.08472C16.8836 6.27377 16.3733 6.13168 15.9186 6.13785C15.3157 6.14527 14.7127 6.13785 14.1085 6.13785C14.0319 6.13785 13.9268 6.17245 13.8848 6.08967C13.8428 6.00688 13.9392 5.94634 13.9923 5.89197C15.113 4.77129 16.2164 3.63949 17.363 2.53857C17.6504 2.25931 17.9901 2.03966 18.3627 1.89227C18.7353 1.74489 19.1333 1.67269 19.534 1.67984H26.8363C27.2292 1.67984 27.2292 1.67984 27.2416 1.27703C27.2539 0.874231 27.4257 0.702483 27.831 0.700012C28.4142 0.700012 28.9974 0.700012 29.5793 0.700012C30.0637 0.700012 30.228 0.861875 30.228 1.34128C30.2264 3.09335 30.2255 4.84872 30.2255 6.60738Z" />
<path id="Vector_3" d="M14.4965 17.4212H5.39016C4.79831 17.4212 4.65869 17.2853 4.65869 16.7083V7.78239C4.65869 7.21402 4.79955 7.06946 5.36051 7.06946H15.8816C15.9532 7.06946 16.0249 7.06946 16.0966 7.06946C16.2572 7.06946 16.2757 7.14606 16.1707 7.2548C16.0002 7.43149 15.826 7.60447 15.6518 7.77745C15.3364 8.07057 15.0768 8.41846 14.8857 8.80423C14.8527 8.89399 14.7903 8.96995 14.7086 9.01975C14.6269 9.06955 14.5309 9.09027 14.4359 9.07853C12.5949 9.06988 10.7551 9.07853 8.91407 9.07853C8.31975 9.07853 8.22955 9.15514 8.12823 9.72969C8.08832 9.93678 7.98531 10.1265 7.83334 10.2727C7.68136 10.4189 7.48785 10.5145 7.27938 10.5464C6.78514 10.6206 6.66158 10.7491 6.66158 11.2421C6.66158 11.9167 6.66158 12.5913 6.66158 13.2672C6.66158 13.7429 6.78514 13.885 7.25714 13.948C7.48255 13.975 7.692 14.0782 7.85084 14.2404C8.00968 14.4026 8.10841 14.6142 8.1307 14.8401C8.19001 15.2713 8.34076 15.4159 8.76827 15.4159C12.5821 15.4159 16.396 15.4159 20.2099 15.4159C20.6448 15.4159 20.798 15.2726 20.8548 14.8475C20.8762 14.6163 20.9777 14.3997 21.1417 14.2353C21.3057 14.0708 21.5219 13.9688 21.7531 13.9468C22.1794 13.8899 22.3215 13.7355 22.3239 13.3043C22.3289 12.5983 22.3289 11.8928 22.3239 11.1877C22.3239 10.7589 22.1819 10.6119 21.7482 10.5477C21.69 10.5398 21.6326 10.5274 21.5764 10.5106C21.1773 10.387 21.1538 10.2857 21.4529 9.9904C21.7519 9.69509 22.0781 9.3726 22.3833 9.05629C22.4398 8.9851 22.5158 8.93189 22.602 8.90314C22.6882 8.8744 22.7809 8.87137 22.8689 8.89443C23.259 8.98314 23.6634 8.98988 24.0563 8.9142C24.2601 8.87342 24.3491 8.93026 24.3479 9.16132C24.3417 11.7276 24.3479 14.294 24.3479 16.8603C24.3479 17.268 24.1539 17.425 23.6843 17.425L14.4965 17.4212Z" />
<path id="Vector_4" d="M14.4967 14.4756C12.7793 14.4756 11.0618 14.4756 9.34432 14.4756C9.10462 14.4756 8.98106 14.4064 8.89086 14.1766C8.79989 13.9417 8.65946 13.7291 8.47911 13.5532C8.29875 13.3773 8.08268 13.2423 7.84555 13.1572C7.76689 13.1381 7.69811 13.0905 7.65247 13.0237C7.60684 12.9568 7.58759 12.8754 7.59843 12.7952C7.61079 12.4245 7.60955 12.0538 7.59843 11.6918C7.58525 11.6102 7.6034 11.5267 7.64923 11.458C7.69506 11.3892 7.76519 11.3403 7.84555 11.3211C8.08903 11.2321 8.31039 11.0915 8.49445 10.909C8.6785 10.7264 8.82089 10.5062 8.91187 10.2635C8.93283 10.1841 8.9821 10.1152 9.05038 10.0697C9.11866 10.0241 9.20124 10.0052 9.28254 10.0163C10.9498 10.0229 12.6162 10.0229 14.2818 10.0163C14.4844 10.0163 14.5635 10.0818 14.5857 10.2944C14.7093 11.4496 15.3271 12.2552 16.3996 12.6679C17.472 13.0806 18.4729 12.8446 19.3353 12.0909C19.6813 11.7882 19.9976 11.4509 20.3151 11.1197C20.456 10.9727 20.5771 10.9455 20.7278 11.0925C20.7695 11.1384 20.8223 11.1729 20.881 11.1926C21.3753 11.3162 21.4531 11.6634 21.3963 12.0971C21.3849 12.1791 21.3849 12.2622 21.3963 12.3442C21.4605 12.8075 21.3802 13.1498 20.8563 13.3327C20.5116 13.4562 20.2583 13.775 20.1348 14.1321C20.031 14.4323 19.8555 14.4941 19.5627 14.4917C17.8699 14.4645 16.1833 14.4756 14.4967 14.4756Z" />
</g>
</svg>
