<svg width="27" height="30" viewBox="0 0 27 30" fill="none" xmlns="http://www.w3.org/2000/svg">
<g id="icon_token">
<path id="Vector" d="M14.0929 0.334473C14.3151 0.472334 14.3822 0.682021 14.3833 0.926464C14.3833 2.40934 14.3833 3.89221 14.3833 5.37509C14.3843 5.4709 14.3684 5.56614 14.3363 5.6566C14.3093 5.76034 14.2439 5.85038 14.1529 5.9091C14.062 5.96781 13.9521 5.99097 13.8448 5.97403C13.7359 5.96871 13.6332 5.92253 13.5578 5.84498C13.4823 5.76743 13.4399 5.66438 13.4391 5.55697C13.425 5.25113 13.4321 4.94413 13.4321 4.63828C13.4321 3.39522 13.4321 2.15099 13.4321 0.907928C13.4321 0.670437 13.485 0.473492 13.6896 0.334473H14.0929Z" />
<path id="Vector_2" d="M13.9014 20.4923C13.0578 20.492 12.2226 20.3279 11.4435 20.0095C10.6644 19.691 9.95657 19.2244 9.36054 18.6364C8.76452 18.0483 8.29196 17.3503 7.96987 16.5822C7.64778 15.8141 7.48248 14.991 7.4834 14.16C7.49869 10.7714 10.2103 7.83341 13.9155 7.82878C14.765 7.82334 15.6071 7.98465 16.3927 8.30328C17.1782 8.62191 17.8915 9.09149 18.4909 9.68462C19.0903 10.2777 19.5638 10.9825 19.8838 11.7579C20.2038 12.5332 20.3638 13.3636 20.3546 14.2005C20.337 17.7675 17.3349 20.556 13.9014 20.4923ZM15.9497 12.1824C15.9148 11.8419 15.7834 11.518 15.5705 11.2475C15.3575 10.9771 15.0717 10.7712 14.7456 10.6532C14.3741 10.5061 14.1906 10.3601 14.233 9.94998C14.2553 9.73103 14.0872 9.57579 13.8461 9.56536C13.605 9.55494 13.471 9.70091 13.4228 9.92102C13.4052 10.0056 13.4016 10.0925 13.4122 10.1782C13.4416 10.4099 13.3428 10.5258 13.1147 10.6219C12.6862 10.7908 12.3291 11.0988 12.1025 11.4948C11.8758 11.8909 11.7932 12.3513 11.8683 12.7999C12.0588 13.8425 12.8231 14.489 13.9167 14.5376C14.7574 14.5724 15.3277 15.3057 15.1278 16.0773C14.9691 16.6716 14.4329 17.0319 13.7802 16.9832C13.1923 16.9392 12.7443 16.4712 12.6737 15.8305C12.6385 15.5131 12.4856 15.3567 12.2281 15.3741C11.9706 15.3914 11.8024 15.6058 11.84 15.9104C11.9341 16.6785 12.301 17.2798 13.0289 17.6007C13.3252 17.7316 13.4592 17.8787 13.4145 18.1962C13.3964 18.2818 13.4043 18.3708 13.4374 18.4521C13.4704 18.5333 13.5271 18.603 13.6003 18.6526C13.6593 18.6962 13.73 18.7217 13.8036 18.726C13.8772 18.7303 13.9504 18.7133 14.0142 18.6769C14.098 18.6343 14.1654 18.5662 14.2066 18.4826C14.2477 18.3991 14.2602 18.3047 14.2424 18.2135C14.2118 17.9135 14.3117 17.7664 14.6234 17.6598C15.5205 17.3551 16.0038 16.565 15.9533 15.5884C15.9218 15.1697 15.7571 14.7715 15.4826 14.4504C15.2082 14.1293 14.838 13.9016 14.4246 13.7997C14.1895 13.7417 13.9425 13.7394 13.7038 13.7C13.54 13.6728 13.3834 13.6134 13.2433 13.5253C13.1032 13.4373 12.9826 13.3224 12.8885 13.1874C12.7944 13.0525 12.7288 12.9003 12.6956 12.7399C12.6624 12.5795 12.6623 12.4142 12.6953 12.2537C12.7282 12.0933 12.7936 11.941 12.8875 11.806C12.9814 11.6709 13.1019 11.5558 13.2418 11.4676C13.3818 11.3793 13.5383 11.3197 13.7021 11.2922C13.8659 11.2648 14.0336 11.2701 14.1953 11.3077C14.7515 11.4433 15.0937 11.8418 15.1607 12.4338C15.196 12.742 15.3324 12.8833 15.5864 12.8763C15.8404 12.8694 15.9697 12.6991 15.9497 12.1824Z" />
<path id="Vector_3" d="M8.29931 22.2752C9.27766 22.271 10.2402 22.5182 11.092 22.9923C11.8644 23.405 12.7286 23.6227 13.6072 23.626C14.7925 23.6445 15.9778 23.6886 17.1631 23.7361C18.0732 23.772 18.981 24.5296 19.1868 25.3927C19.2315 25.5746 19.195 25.6661 18.9857 25.6592C18.0627 25.629 17.1384 25.6198 16.2153 25.5746C15.3922 25.534 14.5691 25.5676 13.7378 25.5028C13.6767 25.4944 13.6146 25.4989 13.5555 25.516C13.4964 25.5331 13.4417 25.5624 13.3949 25.602C13.3482 25.6415 13.3106 25.6904 13.2845 25.7454C13.2585 25.8005 13.2446 25.8603 13.2439 25.921C13.2439 26.1527 13.4309 26.3079 13.7272 26.3195C14.3488 26.3411 14.9709 26.3604 15.5933 26.3774L19.5584 26.4817C19.9041 26.491 20.1463 26.3172 20.0781 25.9893C19.9676 25.4391 20.2533 25.2595 20.6978 25.0625C21.8807 24.5505 23.0402 23.9828 24.2113 23.4406C24.4732 23.3089 24.7672 23.2516 25.0603 23.2754C25.3534 23.2991 25.634 23.4029 25.8705 23.575C26.1186 23.7419 26.1151 23.8009 25.8705 23.9573C23.5101 25.4626 21.149 26.9656 18.787 28.4662C18.1603 28.8636 17.5747 29.3328 16.8374 29.5482C15.7649 29.8823 14.617 29.9024 13.5332 29.6062C11.6435 29.0779 9.75152 28.5635 7.86306 28.0318C7.03994 27.8001 6.24858 27.8499 5.49836 28.2797C5.43957 28.3133 5.38078 28.3422 5.31728 28.3724C4.98098 28.5438 4.96452 28.5357 4.97275 28.1662C5.01155 26.6149 5.05741 25.0625 5.09034 23.5113C5.08647 23.4263 5.10704 23.342 5.14968 23.268C5.19233 23.194 5.25532 23.1334 5.33139 23.0931C6.22618 22.5582 7.25271 22.2753 8.29931 22.2752Z"/>
<path id="Vector_4" d="M0.946643 28.384C1.00465 26.2114 1.06149 24.0396 1.11715 21.8686C1.11715 21.6555 1.18653 21.5384 1.4217 21.5616C2.30244 21.6497 3.18552 21.572 4.07214 21.6508C4.29673 21.6717 4.34847 21.7667 4.34259 21.959C4.28144 24.0443 4.22265 26.1296 4.16621 28.2149C4.1568 28.5624 4.13093 28.903 4.12623 29.2471C4.12623 29.4336 4.06626 29.5297 3.85695 29.5228C2.96328 29.4973 2.06961 29.4776 1.17594 29.4591C1.00661 29.4591 0.930183 29.3873 0.93371 29.2158C0.93959 28.9378 0.93371 28.6609 0.93371 28.3828L0.946643 28.384Z" />
<path id="Vector_5" d="M18.1839 4.40079C18.1839 4.73559 18.1921 5.07156 18.1839 5.40752C18.1756 5.74348 17.9781 5.98677 17.7006 5.98677C17.4231 5.98677 17.2302 5.77013 17.2302 5.40752C17.2302 4.72787 17.2302 4.04706 17.2302 3.36509C17.2302 3.02449 17.4113 2.81017 17.6853 2.80322C17.9593 2.79627 18.1733 3.03029 18.1839 3.36509C18.1944 3.6999 18.1839 4.05555 18.1839 4.40079Z" />
<path id="Vector_6" d="M10.5534 4.42045C10.5534 4.77495 10.5534 5.12829 10.5534 5.48279C10.5475 5.76778 10.3782 5.95778 10.1301 5.98095C10.0669 5.98486 10.0035 5.97616 9.9438 5.95536C9.88408 5.93456 9.82924 5.90208 9.78257 5.85989C9.7359 5.8177 9.69836 5.76665 9.67221 5.70982C9.64605 5.65298 9.63181 5.59152 9.63036 5.52913C9.57862 4.77465 9.57862 4.01759 9.63036 3.26312C9.63025 3.19995 9.64325 3.13744 9.66856 3.0794C9.69387 3.02137 9.73095 2.96905 9.77753 2.92565C9.82412 2.88225 9.87922 2.8487 9.93944 2.82704C9.99967 2.80538 10.0637 2.79608 10.1278 2.79972C10.3841 2.82057 10.5511 3.01751 10.5558 3.3222C10.5581 3.6906 10.5546 4.05553 10.5534 4.42045Z" />
</g>
</svg>
