<svg width="33" height="32" viewBox="0 0 33 32" fill="none" xmlns="http://www.w3.org/2000/svg">
<path d="M9.0153 31.8868C7.11225 31.8003 6.07846 31.4836 5.39085 31.2154C4.47974 30.8606 3.83018 30.4384 3.14637 29.7555C2.46257 29.0727 2.03935 28.4231 1.68651 27.512C1.41831 26.8244 1.10161 25.7906 1.01507 23.8875C0.919961 21.8304 0.90094 21.2132 0.90094 16.0014C0.90094 10.7897 0.921863 10.1734 1.01411 8.11436C1.10066 6.21131 1.41926 5.17942 1.68556 4.48991C2.0403 3.5788 2.46352 2.92924 3.14542 2.24448C3.82827 1.56163 4.47784 1.13746 5.3899 0.784617C6.07751 0.51642 7.1113 0.199721 9.01435 0.113175C11.0724 0.019021 11.6906 0 16.9005 0C22.1122 0 22.7285 0.0209231 24.7875 0.113175C26.6906 0.199721 27.7225 0.518323 28.412 0.784617C29.3231 1.13746 29.9727 1.56163 30.6565 2.24448C31.3403 2.92733 31.7616 3.57785 32.1163 4.48896C32.3845 5.17657 32.7012 6.21036 32.7878 8.11341C32.8819 10.1724 32.9009 10.7887 32.9009 16.0005C32.9009 21.2103 32.8819 21.8285 32.7878 23.8875C32.7012 25.7906 32.3826 26.8244 32.1163 27.512C31.7616 28.4231 31.3393 29.0727 30.6565 29.7555C29.9736 30.4384 29.3231 30.8606 28.412 31.2154C27.7244 31.4836 26.6906 31.8003 24.7875 31.8868C22.7304 31.981 22.1122 32 16.9005 32C11.6906 32 11.0724 31.9819 9.0153 31.8868Z" fill="url(#paint0_radial_69_90)"/>
<path d="M13.2704 15.8868C13.2704 13.9441 14.8448 12.3688 16.7876 12.3688C18.7303 12.3688 20.3056 13.9441 20.3056 15.8868C20.3056 17.8296 18.7303 19.4049 16.7876 19.4049C14.8448 19.4049 13.2704 17.8296 13.2704 15.8868ZM11.3686 15.8868C11.3686 18.8798 13.7947 21.3058 16.7876 21.3058C19.7805 21.3058 22.2066 18.8798 22.2066 15.8868C22.2066 12.8939 19.7805 10.4678 16.7876 10.4678C13.7947 10.4678 11.3687 12.8937 11.3687 15.8868M21.1548 10.253C21.1547 10.5034 21.2289 10.7483 21.368 10.9566C21.507 11.1649 21.7047 11.3273 21.9361 11.4233C22.1675 11.5192 22.4221 11.5444 22.6678 11.4956C22.9135 11.4469 23.1392 11.3263 23.3163 11.1493C23.4935 10.9723 23.6142 10.7467 23.6632 10.501C23.7121 10.2554 23.6872 10.0007 23.5914 9.7693C23.4956 9.53786 23.3334 9.34001 23.1252 9.20077C22.917 9.06153 22.6722 8.98716 22.4217 8.98706H22.4212C22.0855 8.98722 21.7635 9.12062 21.5261 9.35797C21.2886 9.59533 21.1551 9.91722 21.1548 10.253ZM12.524 24.4771C11.4951 24.4302 10.9359 24.2588 10.5642 24.114C10.0715 23.9222 9.71998 23.6938 9.35036 23.3246C8.98074 22.9555 8.75194 22.6043 8.56097 22.1116C8.41609 21.7401 8.24471 21.1807 8.19793 20.1518C8.14677 19.0394 8.13655 18.7052 8.13655 15.887C8.13655 13.0688 8.14761 12.7355 8.19793 11.6222C8.24479 10.5933 8.41744 10.035 8.56097 9.66239C8.75278 9.16967 8.98124 8.81812 9.35036 8.4485C9.71947 8.07888 10.0707 7.85009 10.5642 7.65911C10.9357 7.51424 11.4951 7.34285 12.524 7.29608C13.6364 7.24492 13.9706 7.2347 16.7876 7.2347C19.6046 7.2347 19.9391 7.24559 21.0524 7.29625C22.0813 7.3431 22.6396 7.51576 23.0122 7.65928C23.5049 7.85026 23.8565 8.07956 24.2261 8.44867C24.5957 8.81778 24.8237 9.16984 25.0155 9.66256C25.1603 10.034 25.3317 10.5934 25.3785 11.6224C25.4297 12.7357 25.4399 13.0689 25.4399 15.8872C25.4399 18.7054 25.4297 19.0386 25.3785 20.152C25.3316 21.1809 25.1594 21.7401 25.0155 22.1118C24.8237 22.6045 24.5952 22.956 24.2261 23.3248C23.857 23.6936 23.5049 23.9224 23.0122 24.1142C22.6407 24.2591 22.0813 24.4305 21.0524 24.4772C19.94 24.5284 19.6058 24.5386 16.7876 24.5386C13.9693 24.5386 13.6361 24.5284 12.524 24.4772M12.4367 5.39741C11.3132 5.44857 10.5455 5.62671 9.87507 5.88759C9.18117 6.15699 8.59297 6.51842 8.00561 7.10485C7.41825 7.69128 7.05775 8.27956 6.78835 8.97431C6.52747 9.64517 6.34933 10.4124 6.29816 11.5359C6.24616 12.6611 6.23425 13.0209 6.23425 15.8868C6.23425 18.7528 6.24616 19.1125 6.29816 20.2378C6.34933 21.3613 6.52747 22.1285 6.78835 22.7993C7.05775 23.4932 7.41834 24.0826 8.00561 24.6688C8.59288 25.255 9.18032 25.6159 9.87507 25.8861C10.5468 26.1469 11.3132 26.3251 12.4367 26.3763C13.5625 26.4274 13.9216 26.4402 16.7876 26.4402C19.6535 26.4402 20.0133 26.4283 21.1385 26.3763C22.2621 26.3251 23.0293 26.1469 23.7001 25.8861C24.394 25.6159 24.9822 25.2552 25.5696 24.6688C26.1569 24.0824 26.5167 23.4932 26.7868 22.7993C27.0477 22.1285 27.2267 21.3612 27.277 20.2378C27.3282 19.1117 27.3401 18.7528 27.3401 15.8868C27.3401 13.0209 27.3282 12.6611 27.277 11.5359C27.2258 10.4124 27.0477 9.64474 26.7868 8.97431C26.5167 8.28041 26.156 7.69221 25.5696 7.10485C24.9831 6.5175 24.394 6.15699 23.7009 5.88759C23.0292 5.62671 22.262 5.44773 21.1394 5.39741C20.014 5.34599 19.6544 5.3335 16.7889 5.3335C13.9233 5.3335 13.5629 5.3454 12.4371 5.39741" fill="white"/>
<defs>
<radialGradient id="paint0_radial_69_90" cx="0" cy="0" r="1" gradientUnits="userSpaceOnUse" gradientTransform="translate(2.97195 31.299) scale(40.6281)">
<stop offset="0.09" stop-color="#FA8F21"/>
<stop offset="0.78" stop-color="#D82D7E"/>
</radialGradient>
</defs>
</svg>
