<svg width="274" height="50" viewBox="0 0 274 50" fill="none" xmlns="http://www.w3.org/2000/svg">
<path d="M34.0002 9.07874L30.0817 13.2677L24.7651 7.96063L7.97499 24.4409L13.1516 29.8878L9.51517 33.7992L0 24.3012L24.6251 0L34.0002 9.07874Z" fill="white"/>
<path d="M40.0169 35.4744L50.3702 25.4193L35.5404 10.6142L31.3419 14.5256V17.8465L35.2603 18.435L42.5352 25.1398L36.3785 31.565L40.0169 35.4744Z" fill="white"/>
<path d="M34.9803 32.9606L25.7452 41.6201L14.5518 31.0059L10.6333 34.9153L25.7452 50L38.8968 36.872L34.9803 32.9606Z" fill="white"/>
<path d="M10.4933 24.7205L24.907 10.1811L30.0817 15.4961L29.8037 19.1339L34.0002 19.6851L39.8769 25.2717L34.576 30.7087L25.5992 39.2618L10.4933 24.7205ZM32.0419 27.5138L28.4922 23.7736L23.3649 28.9193L26.9146 32.4981L32.0419 27.5138ZM25.3251 20.811L22.4676 17.5197L17.2022 22.7717L20.2983 25.8386L25.3251 20.811Z" fill="white"/>
<path d="M79.2348 30.9784C79.2348 35.3301 76.1813 38.0651 70.4866 38.0651H61.245V13.5135H69.5752C75.1945 13.5135 78.2828 16.179 78.2828 20.1077C78.335 21.1057 78.11 22.0986 77.6326 22.9769C77.1553 23.8552 76.4441 24.5849 75.5776 25.0853V25.1548C76.7106 25.6357 77.6687 26.4518 78.3227 27.4931C78.9766 28.5344 79.2949 29.7509 79.2348 30.9784ZM66.0225 17.6161V23.7178H69.5752C71.7869 23.7178 73.4704 22.8776 73.4704 20.5945C73.4704 18.3114 71.6476 17.6161 69.5752 17.6161H66.0225ZM74.3876 30.6655C74.3876 28.3824 72.6461 27.5074 70.4866 27.5074H66.0225V33.9626H70.4866C72.768 33.9626 74.3876 32.8384 74.3876 30.6655Z" fill="white"/>
<path d="M100.319 29.1878C100.329 31.0447 99.787 32.8629 98.7614 34.4122C97.7358 35.9614 96.2726 37.172 94.5573 37.8905C92.8419 38.6091 90.9515 38.8033 89.1254 38.4487C87.2994 38.094 85.6199 37.2064 84.2996 35.8982C82.9793 34.59 82.0776 32.9202 81.7087 31.1001C81.3399 29.28 81.5204 27.3916 82.2275 25.674C82.9346 23.9565 84.1365 22.487 85.6808 21.4518C87.2252 20.4165 89.0426 19.862 90.9029 19.8586C92.1395 19.8368 93.368 20.0627 94.5156 20.523C95.6632 20.9833 96.7068 21.6685 97.5846 22.5382C98.4624 23.408 99.1566 24.4445 99.6262 25.5867C100.096 26.7288 100.331 27.9533 100.319 29.1878ZM95.7501 29.1878C95.7501 26.418 93.8867 24.1407 90.9029 24.1407C87.9191 24.1407 86.0905 26.418 86.0905 29.1878C86.0905 31.9576 87.9482 34.2407 90.9029 34.2407C93.8577 34.2407 95.7501 31.9634 95.7501 29.1878Z" fill="white"/>
<path d="M121.228 29.1878C121.24 31.0461 120.699 32.866 119.673 34.4169C118.647 35.9679 117.184 37.1801 115.467 37.9C113.751 38.6199 111.859 38.8151 110.032 38.4608C108.204 38.1066 106.523 37.2189 105.201 35.9101C103.88 34.6014 102.977 32.9305 102.607 31.1092C102.238 29.2878 102.418 27.3979 103.126 25.679C103.833 23.96 105.035 22.4893 106.581 21.4532C108.126 20.417 109.945 19.862 111.807 19.8585C113.044 19.8368 114.272 20.0627 115.42 20.5229C116.568 20.9831 117.612 21.6683 118.49 22.5379C119.369 23.4076 120.063 24.4441 120.534 25.5862C121.004 26.7284 121.24 27.953 121.228 29.1878ZM116.66 29.1878C116.66 26.418 114.796 24.1407 111.807 24.1407C108.817 24.1407 106.994 26.418 106.994 29.1878C106.994 31.9576 108.858 34.2407 111.807 34.2407C114.756 34.2407 116.66 31.9634 116.66 29.1878Z" fill="white"/>
<path d="M138.022 32.5951C138.022 36.1008 135.456 38.5229 130.476 38.5229C127.068 38.5229 123.626 37.1554 122.819 34.1712L127.103 32.8384C127.248 33.5743 127.951 34.768 130.551 34.768C132.409 34.768 133.454 34.1016 133.454 32.908C133.454 31.2275 130.888 31.2971 128.781 30.8393C125.338 30.1382 123.556 28.4867 123.556 25.4388C123.556 22.0721 126.366 19.8586 130.551 19.8586C133.605 19.8586 136.629 21.371 137.366 24.4537L133.303 25.4388C133.088 24.5232 132.211 23.6135 130.528 23.6135C129.228 23.6135 127.893 24.106 127.893 25.4388C127.893 27.0149 130.278 27.1192 131.683 27.4379C136.089 28.3882 138.022 29.5761 138.022 32.5951Z" fill="white"/>
<path d="M146.242 24.332V30.8219C146.242 32.8558 146.527 34.0495 148.982 34.0495C149.301 34.0495 149.725 34.0147 150.039 33.98V38.0362C149.435 38.2178 148.806 38.3 148.175 38.2795C143.607 38.2795 141.79 35.2316 141.79 31.5462V24.332H139.259V20.2758H141.784V16.5557H146.242V20.2758H150.039V24.332H146.242Z" fill="white"/>
<path d="M170.281 30.9089H157.069C157.701 33.2962 159.669 34.5595 162.125 34.5595C162.873 34.5703 163.614 34.4207 164.299 34.1208C164.984 33.8209 165.597 33.3777 166.095 32.8211L169.683 34.9245C168.795 36.073 167.65 36.9982 166.339 37.626C165.029 38.2539 163.59 38.567 162.136 38.5403C156.233 38.5403 152.332 34.6116 152.332 29.2053C152.332 23.6309 156.517 19.876 161.434 19.876C166.798 19.8586 171.088 23.8916 170.281 30.9089ZM165.921 27.4727C165.783 26.4174 165.25 25.4535 164.427 24.7759C163.605 24.0983 162.556 23.7574 161.492 23.8221C160.44 23.8063 159.417 24.165 158.607 24.8341C157.796 25.5031 157.251 26.4386 157.069 27.4727H165.921Z" fill="white"/>
<path d="M183.946 19.8586V24.7029C178.675 24.0712 178.007 27.4379 178.007 30.735V38.0651H173.543V20.2758H178.007V23.1731C178.639 22.1674 179.514 21.3366 180.552 20.7574C181.59 20.1781 182.757 19.869 183.946 19.8586Z" fill="white"/>
<path d="M205.274 30.9784C205.274 35.3301 202.22 38.0651 196.525 38.0651H187.284V13.5135H195.614C201.233 13.5135 204.292 16.179 204.292 20.1077C204.344 21.1068 204.117 22.1005 203.637 22.979C203.158 23.8574 202.444 24.5864 201.576 25.0853V25.1548C202.716 25.6293 203.683 26.4427 204.345 27.4845C205.006 28.5264 205.33 29.7462 205.274 30.9784ZM192.061 17.6161V23.7178H195.614C197.826 23.7178 199.515 22.8776 199.515 20.5945C199.515 18.3114 197.686 17.6161 195.614 17.6161H192.061ZM200.415 30.6655C200.415 28.3824 198.673 27.5074 196.514 27.5074H192.05V33.9626H196.514C198.813 33.9626 200.415 32.8384 200.415 30.6655Z" fill="white"/>
<path d="M213.075 13.5135V38.0651H208.611V13.5135H213.075Z" fill="white"/>
<path d="M235.036 29.1878C235.046 31.0447 234.504 32.8629 233.479 34.4122C232.453 35.9614 230.99 37.172 229.275 37.8905C227.559 38.6091 225.669 38.8033 223.843 38.4487C222.017 38.094 220.337 37.2064 219.017 35.8982C217.697 34.59 216.795 32.9202 216.426 31.1001C216.057 29.28 216.238 27.3916 216.945 25.674C217.652 23.9565 218.854 22.487 220.398 21.4518C221.942 20.4165 223.76 19.862 225.62 19.8586C226.857 19.8368 228.085 20.0627 229.233 20.523C230.381 20.9833 231.424 21.6685 232.302 22.5382C233.18 23.408 233.874 24.4445 234.343 25.5867C234.813 26.7288 235.049 27.9533 235.036 29.1878ZM230.467 29.1878C230.467 26.418 228.604 24.1407 225.62 24.1407C222.636 24.1407 220.808 26.418 220.808 29.1878C220.808 31.9576 222.665 34.2407 225.62 34.2407C228.575 34.2407 230.467 31.9634 230.467 29.1878Z" fill="white"/>
<path d="M250.675 31.9635L254.576 34.1828C253.492 35.8853 251.884 37.1906 249.993 37.9027C248.102 38.6149 246.031 38.6952 244.09 38.1318C242.15 37.5684 240.445 36.3916 239.232 34.7783C238.019 33.1649 237.363 31.2022 237.363 29.185C237.363 27.1677 238.019 25.205 239.232 23.5917C240.445 21.9783 242.15 20.8015 244.09 20.2381C246.031 19.6747 248.102 19.7551 249.993 20.4672C251.884 21.1793 253.492 22.4847 254.576 24.1871L250.675 26.4296C250.259 25.7152 249.658 25.1263 248.934 24.7254C248.211 24.3245 247.392 24.1265 246.565 24.1524C243.575 24.1524 241.712 26.4296 241.712 29.1994C241.712 31.9692 243.575 34.2523 246.565 34.2523C247.393 34.2771 248.213 34.0773 248.936 33.6743C249.66 33.2713 250.261 32.6801 250.675 31.9635Z" fill="white"/>
<path d="M267.962 38.0651L261.635 29.6108V38.0651H257.205V13.5135H261.635V27.8087L267.173 20.2758H272.298L265.942 28.4809L273.39 38.0593L267.962 38.0651Z" fill="white"/>
</svg>
