<svg width="145" height="132" viewBox="0 0 145 132" fill="none" xmlns="http://www.w3.org/2000/svg">
<path d="M12.2593 126.774C12.2593 129.745 10.1785 131.612 6.29776 131.612H0V114.851H5.67669C9.50598 114.851 11.6105 116.671 11.6105 119.353C11.6461 120.034 11.4928 120.712 11.1675 121.312C10.8422 121.911 10.3576 122.409 9.76707 122.751V122.798C10.5392 123.127 11.1921 123.684 11.6377 124.395C12.0833 125.106 12.3003 125.936 12.2593 126.774ZM3.25569 117.652V121.817H5.67669C7.18388 121.817 8.33108 121.244 8.33108 119.685C8.33108 118.127 7.08894 117.652 5.67669 117.652H3.25569ZM8.95611 126.56C8.95611 125.002 7.76935 124.405 6.29776 124.405H3.25569V128.811H6.29776C7.85242 128.811 8.95611 128.044 8.95611 126.56Z" fill="url(#paint0_linear_70_23)"/>
<path d="M26.627 125.552C26.6341 126.82 26.2647 128.061 25.5658 129.119C24.8669 130.176 23.8698 131.003 22.7009 131.493C21.5319 131.984 20.2437 132.116 18.9993 131.874C17.7549 131.632 16.6104 131.026 15.7107 130.133C14.8109 129.24 14.1965 128.1 13.9451 126.858C13.6938 125.615 13.8168 124.326 14.2987 123.153C14.7805 121.981 15.5995 120.978 16.652 120.271C17.7044 119.564 18.9429 119.185 20.2106 119.183C21.0533 119.168 21.8904 119.323 22.6725 119.637C23.4545 119.951 24.1657 120.419 24.7639 121.012C25.362 121.606 25.8351 122.314 26.1551 123.094C26.4751 123.873 26.6356 124.709 26.627 125.552ZM23.5137 125.552C23.5137 123.661 22.2439 122.107 20.2106 122.107C18.1772 122.107 16.9311 123.661 16.9311 125.552C16.9311 127.443 18.197 129.002 20.2106 129.002C22.2241 129.002 23.5137 127.447 23.5137 125.552Z" fill="url(#paint1_linear_70_23)"/>
<path d="M40.8761 125.552C40.8839 126.821 40.515 128.063 39.8162 129.122C39.1173 130.181 38.1199 131.008 36.9503 131.5C35.7807 131.991 34.4915 132.124 33.2461 131.883C32.0007 131.641 30.8551 131.035 29.9545 130.141C29.0538 129.248 28.4385 128.107 28.1867 126.864C27.9349 125.62 28.0578 124.33 28.5398 123.157C29.0218 121.983 29.8413 120.979 30.8945 120.272C31.9476 119.564 33.1871 119.185 34.4557 119.183C35.2986 119.168 36.1359 119.322 36.9182 119.637C37.7005 119.951 38.4119 120.419 39.0104 121.012C39.6089 121.606 40.0823 122.314 40.4028 123.093C40.7232 123.873 40.8842 124.709 40.8761 125.552ZM37.7628 125.552C37.7628 123.661 36.493 122.107 34.4557 122.107C32.4184 122.107 31.1763 123.661 31.1763 125.552C31.1763 127.443 32.4461 129.002 34.4557 129.002C36.4653 129.002 37.7628 127.447 37.7628 125.552Z" fill="url(#paint2_linear_70_23)"/>
<path d="M52.3205 127.878C52.3205 130.271 50.572 131.925 47.1778 131.925C44.8557 131.925 42.5099 130.991 41.96 128.954L44.8794 128.044C44.9783 128.547 45.457 129.362 47.2292 129.362C48.4951 129.362 49.2072 128.907 49.2072 128.092C49.2072 126.945 47.4587 126.992 46.0227 126.68C43.6769 126.201 42.4624 125.073 42.4624 122.993C42.4624 120.694 44.377 119.183 47.2292 119.183C49.31 119.183 51.371 120.216 51.8734 122.32L49.1043 122.993C48.958 122.368 48.3606 121.747 47.2134 121.747C46.3273 121.747 45.4174 122.083 45.4174 122.993C45.4174 124.069 47.0433 124.14 48.0006 124.357C51.0031 125.006 52.3205 125.817 52.3205 127.878Z" fill="url(#paint3_linear_70_23)"/>
<path d="M57.922 122.237V126.668C57.922 128.056 58.1158 128.871 59.7892 128.871C60.0067 128.871 60.2955 128.847 60.5091 128.824V131.593C60.0977 131.717 59.6688 131.773 59.2393 131.759C56.126 131.759 54.8878 129.678 54.8878 127.162V122.237H53.1631V119.468H54.8839V116.928H57.922V119.468H60.5091V122.237H57.922Z" fill="url(#paint4_linear_70_23)"/>
<path d="M74.3033 126.727H65.2997C65.7309 128.357 67.0719 129.219 68.7453 129.219C69.255 129.226 69.7603 129.124 70.2271 128.92C70.6939 128.715 71.1113 128.412 71.4511 128.032L73.8958 129.468C73.2906 130.252 72.5103 130.884 71.6173 131.313C70.7244 131.741 69.7435 131.955 68.7532 131.937C64.7301 131.937 62.0717 129.255 62.0717 125.564C62.0717 121.758 64.9239 119.195 68.2745 119.195C71.9298 119.183 74.8531 121.936 74.3033 126.727ZM71.3324 124.381C71.2386 123.661 70.8748 123.003 70.3145 122.54C69.7542 122.077 69.0393 121.845 68.3141 121.889C67.5974 121.878 66.9003 122.123 66.3478 122.58C65.7954 123.036 65.4238 123.675 65.2997 124.381H71.3324Z" fill="url(#paint5_linear_70_23)"/>
<path d="M83.6154 119.183V122.49C80.0235 122.059 79.5686 124.357 79.5686 126.608V131.612H76.5265V119.468H79.5686V121.446C79.9989 120.759 80.5952 120.192 81.3025 119.797C82.0097 119.401 82.8052 119.19 83.6154 119.183Z" fill="url(#paint6_linear_70_23)"/>
<path d="M98.1493 126.774C98.1493 129.745 96.0685 131.612 92.1878 131.612H85.8901V114.851H91.5668C95.3961 114.851 97.4808 116.671 97.4808 119.353C97.5156 120.035 97.3611 120.713 97.0344 121.313C96.7076 121.913 96.2214 122.41 95.6295 122.751V122.798C96.4067 123.122 97.0655 123.678 97.5163 124.389C97.9672 125.1 98.1882 125.933 98.1493 126.774ZM89.1458 117.652V121.817H91.5668C93.074 121.817 94.2251 121.244 94.2251 119.685C94.2251 118.127 92.979 117.652 91.5668 117.652H89.1458ZM94.8383 126.56C94.8383 125.002 93.6515 124.405 92.1799 124.405H89.1378V128.811H92.1799C93.7465 128.811 94.8383 128.044 94.8383 126.56Z" fill="url(#paint7_linear_70_23)"/>
<path d="M103.466 114.851V131.612H100.424V114.851H103.466Z" fill="url(#paint8_linear_70_23)"/>
<path d="M118.431 125.552C118.438 126.82 118.069 128.061 117.37 129.119C116.671 130.176 115.674 131.003 114.505 131.493C113.336 131.984 112.048 132.116 110.803 131.874C109.559 131.632 108.415 131.026 107.515 130.133C106.615 129.24 106.001 128.1 105.749 126.858C105.498 125.615 105.621 124.326 106.103 123.153C106.585 121.981 107.404 120.978 108.456 120.271C109.509 119.564 110.747 119.185 112.015 119.183C112.857 119.168 113.695 119.323 114.477 119.637C115.259 119.951 115.97 120.419 116.568 121.012C117.166 121.606 117.639 122.314 117.959 123.094C118.279 123.873 118.44 124.709 118.431 125.552ZM115.318 125.552C115.318 123.661 114.048 122.107 112.015 122.107C109.981 122.107 108.735 123.661 108.735 125.552C108.735 127.443 110.001 129.002 112.015 129.002C114.028 129.002 115.318 127.447 115.318 125.552Z" fill="url(#paint9_linear_70_23)"/>
<path d="M129.088 127.447L131.747 128.962C131.008 130.124 129.912 131.015 128.624 131.502C127.335 131.988 125.924 132.043 124.601 131.658C123.279 131.273 122.117 130.47 121.291 129.368C120.464 128.267 120.017 126.927 120.017 125.55C120.017 124.173 120.464 122.833 121.291 121.732C122.117 120.63 123.279 119.827 124.601 119.442C125.924 119.057 127.335 119.112 128.624 119.599C129.912 120.085 131.008 120.976 131.747 122.138L129.088 123.669C128.805 123.181 128.395 122.779 127.902 122.506C127.409 122.232 126.851 122.097 126.288 122.114C124.25 122.114 122.98 123.669 122.98 125.56C122.98 127.451 124.25 129.009 126.288 129.009C126.852 129.026 127.41 128.89 127.904 128.615C128.397 128.34 128.806 127.936 129.088 127.447Z" fill="url(#paint10_linear_70_23)"/>
<path d="M140.869 131.612L136.557 125.841V131.612H133.539V114.851H136.557V124.61L140.331 119.468H143.824L139.492 125.069L144.568 131.608L140.869 131.612Z" fill="url(#paint11_linear_70_23)"/>
<path d="M86.3252 18.2445L78.4649 26.6626L67.7998 15.9976L34.1195 49.1162L44.5037 60.0621L37.209 67.9225L18.1219 48.8353L67.519 0L86.3252 18.2445Z" fill="url(#paint12_linear_70_23)"/>
<path d="M98.3946 71.2889L119.163 51.0823L89.4147 21.3301L80.9927 29.1904V35.864L88.853 37.0468L103.446 50.5205L91.096 63.4325L98.3946 71.2889Z" fill="url(#paint13_linear_70_23)"/>
<path d="M88.2913 66.2373L69.7659 83.6392L47.3123 62.3091L39.452 70.1655L69.7659 100.479L96.1477 74.0976L88.2913 66.2373Z" fill="url(#paint14_linear_70_23)"/>
<path d="M39.1711 49.6776L68.0847 20.4595L78.4649 31.1403L77.9071 38.4508L86.3252 39.5585L98.1137 50.7853L87.4803 61.7114L69.4732 78.8997L39.1711 49.6776ZM82.397 55.291L75.2764 47.7748L64.9912 58.1155L72.1117 65.3073L82.397 55.291ZM68.9233 41.8212L63.1912 35.207L52.629 45.7613L58.8398 51.9245L68.9233 41.8212Z" fill="url(#paint15_linear_70_23)"/>
<defs>
<linearGradient id="paint0_linear_70_23" x1="0.221529" y1="131.743" x2="9.48225" y2="115.702" gradientUnits="userSpaceOnUse">
<stop stop-color="#292067"/>
<stop offset="0.38" stop-color="#692060"/>
<stop offset="0.68" stop-color="#9F1F5E"/>
<stop offset="1" stop-color="#D71C5A"/>
</linearGradient>
<linearGradient id="paint1_linear_70_23" x1="17.0142" y1="131.106" x2="23.4267" y2="119.998" gradientUnits="userSpaceOnUse">
<stop stop-color="#292067"/>
<stop offset="0.38" stop-color="#692060"/>
<stop offset="0.68" stop-color="#9F1F5E"/>
<stop offset="1" stop-color="#D71C5A"/>
</linearGradient>
<linearGradient id="paint2_linear_70_23" x1="31.2594" y1="131.106" x2="37.6718" y2="119.998" gradientUnits="userSpaceOnUse">
<stop stop-color="#292067"/>
<stop offset="0.38" stop-color="#692060"/>
<stop offset="0.68" stop-color="#9F1F5E"/>
<stop offset="1" stop-color="#D71C5A"/>
</linearGradient>
<linearGradient id="paint3_linear_70_23" x1="44.0527" y1="131.296" x2="50.4889" y2="120.148" gradientUnits="userSpaceOnUse">
<stop stop-color="#292067"/>
<stop offset="0.38" stop-color="#692060"/>
<stop offset="0.68" stop-color="#9F1F5E"/>
<stop offset="1" stop-color="#D71C5A"/>
</linearGradient>
<linearGradient id="paint4_linear_70_23" x1="54.3775" y1="129.793" x2="60.8335" y2="118.613" gradientUnits="userSpaceOnUse">
<stop stop-color="#292067"/>
<stop offset="0.38" stop-color="#692060"/>
<stop offset="0.68" stop-color="#9F1F5E"/>
<stop offset="1" stop-color="#D71C5A"/>
</linearGradient>
<linearGradient id="paint5_linear_70_23" x1="65.3353" y1="131.157" x2="71.7003" y2="120.14" gradientUnits="userSpaceOnUse">
<stop stop-color="#292067"/>
<stop offset="0.38" stop-color="#692060"/>
<stop offset="0.68" stop-color="#9F1F5E"/>
<stop offset="1" stop-color="#D71C5A"/>
</linearGradient>
<linearGradient id="paint6_linear_70_23" x1="75.0391" y1="130.754" x2="82.1953" y2="118.364" gradientUnits="userSpaceOnUse">
<stop stop-color="#292067"/>
<stop offset="0.38" stop-color="#692060"/>
<stop offset="0.68" stop-color="#9F1F5E"/>
<stop offset="1" stop-color="#D71C5A"/>
</linearGradient>
<linearGradient id="paint7_linear_70_23" x1="86.1156" y1="131.743" x2="95.3723" y2="115.702" gradientUnits="userSpaceOnUse">
<stop stop-color="#292067"/>
<stop offset="0.38" stop-color="#692060"/>
<stop offset="0.68" stop-color="#9F1F5E"/>
<stop offset="1" stop-color="#D71C5A"/>
</linearGradient>
<linearGradient id="paint8_linear_70_23" x1="97.9357" y1="130.176" x2="105.954" y2="116.287" gradientUnits="userSpaceOnUse">
<stop stop-color="#292067"/>
<stop offset="0.38" stop-color="#692060"/>
<stop offset="0.68" stop-color="#9F1F5E"/>
<stop offset="1" stop-color="#D71C5A"/>
</linearGradient>
<linearGradient id="paint9_linear_70_23" x1="108.818" y1="131.106" x2="115.231" y2="119.998" gradientUnits="userSpaceOnUse">
<stop stop-color="#292067"/>
<stop offset="0.38" stop-color="#692060"/>
<stop offset="0.68" stop-color="#9F1F5E"/>
<stop offset="1" stop-color="#D71C5A"/>
</linearGradient>
<linearGradient id="paint10_linear_70_23" x1="123.079" y1="131.102" x2="129.488" y2="119.998" gradientUnits="userSpaceOnUse">
<stop stop-color="#292067"/>
<stop offset="0.38" stop-color="#692060"/>
<stop offset="0.68" stop-color="#9F1F5E"/>
<stop offset="1" stop-color="#D71C5A"/>
</linearGradient>
<linearGradient id="paint11_linear_70_23" x1="134.053" y1="131.905" x2="142.064" y2="118.028" gradientUnits="userSpaceOnUse">
<stop stop-color="#292067"/>
<stop offset="0.38" stop-color="#692060"/>
<stop offset="0.68" stop-color="#9F1F5E"/>
<stop offset="1" stop-color="#D71C5A"/>
</linearGradient>
<linearGradient id="paint12_linear_70_23" x1="27.8929" y1="58.7369" x2="75.4307" y2="9.83036" gradientUnits="userSpaceOnUse">
<stop stop-color="#292067"/>
<stop offset="0.38" stop-color="#692060"/>
<stop offset="0.68" stop-color="#9F1F5E"/>
<stop offset="1" stop-color="#D71C5A"/>
</linearGradient>
<linearGradient id="paint13_linear_70_23" x1="80.9927" y1="46.3115" x2="119.163" y2="46.3115" gradientUnits="userSpaceOnUse">
<stop stop-color="#292067"/>
<stop offset="0.38" stop-color="#692060"/>
<stop offset="0.68" stop-color="#9F1F5E"/>
<stop offset="1" stop-color="#D71C5A"/>
</linearGradient>
<linearGradient id="paint14_linear_70_23" x1="40.5082" y1="85.7556" x2="95.6136" y2="72.4243" gradientUnits="userSpaceOnUse">
<stop stop-color="#292067"/>
<stop offset="0.38" stop-color="#692060"/>
<stop offset="0.68" stop-color="#9F1F5E"/>
<stop offset="1" stop-color="#D71C5A"/>
</linearGradient>
<linearGradient id="paint15_linear_70_23" x1="42.3873" y1="54.1873" x2="98.4539" y2="44.6141" gradientUnits="userSpaceOnUse">
<stop stop-color="#D71C5A"/>
<stop offset="0.32" stop-color="#9F1F5E"/>
<stop offset="0.62" stop-color="#692060"/>
<stop offset="1" stop-color="#292067"/>
</linearGradient>
</defs>
</svg>
