<svg width="25" height="24" viewBox="0 0 25 24" fill="none" xmlns="http://www.w3.org/2000/svg">
<mask id="mask0_135_1283" style="mask-type:alpha" maskUnits="userSpaceOnUse" x="0" y="0" width="25" height="24">
<rect x="0.349365" width="24" height="24" fill="#D9D9D9"/>
</mask>
<g mask="url(#mask0_135_1283)">
<path d="M4.34937 20C3.79937 20 3.32853 19.8042 2.93687 19.4125C2.5452 19.0208 2.34937 18.55 2.34937 18V6C2.34937 5.45 2.5452 4.97917 2.93687 4.5875C3.32853 4.19583 3.79937 4 4.34937 4H20.3494C20.8994 4 21.3702 4.19583 21.7619 4.5875C22.1535 4.97917 22.3494 5.45 22.3494 6V18C22.3494 18.55 22.1535 19.0208 21.7619 19.4125C21.3702 19.8042 20.8994 20 20.3494 20H4.34937ZM12.3494 13L4.34937 8V18H20.3494V8L12.3494 13ZM12.3494 11L20.3494 6H4.34937L12.3494 11ZM4.34937 8V6V18V8Z" fill="#1455CB"/>
</g>
</svg>
