<svg width="75" height="71" viewBox="0 0 75 71" fill="none" xmlns="http://www.w3.org/2000/svg">
<path d="M74.7002 21.6689C73.9941 23.469 72.6983 24.3168 70.7507 24.1907C69.7808 24.1325 68.8108 24.2139 67.8409 24.1693C67.2124 24.1422 66.9292 24.3459 67.0068 24.9938C67.0204 25.2115 67.0204 25.4298 67.0068 25.6475C67.0068 35.4928 67.0068 45.3374 67.0068 55.1815C67.0292 55.7879 66.9558 56.3941 66.7895 56.9777C66.2832 58.5665 64.9195 59.5247 63.131 59.5267C56.8382 59.5267 50.546 59.5267 44.2545 59.5267C43.1798 59.5267 43.1798 59.5267 43.1779 60.6072C43.1779 61.1406 43.1992 61.676 43.1779 62.2075C43.1565 62.739 43.3505 62.9427 43.8937 62.933C45.4649 62.9078 47.0381 62.9156 48.6113 62.933C50.9391 62.9505 52.6307 64.6537 52.6617 66.9853C52.6617 67.6158 52.6734 68.2462 52.6617 68.8767C52.6346 70.0716 52.0196 70.7797 50.848 70.9562C50.5358 70.9931 50.2213 71.0067 49.9071 70.9969H18.187C17.921 71.0044 17.6549 70.9973 17.3897 70.9756C16.2549 70.8456 15.5624 70.1861 15.477 69.0493C15.3885 68.1312 15.4106 67.2057 15.543 66.2928C15.6867 65.3623 16.1571 64.5135 16.8697 63.8982C17.5824 63.2829 18.4909 62.9414 19.4324 62.935C21.0521 62.9194 22.6738 62.9136 24.2955 62.935C24.8348 62.9447 25.0327 62.7565 25.0074 62.2192C24.9715 61.5653 24.9715 60.9099 25.0074 60.2561C25.0443 59.6741 24.7941 59.4646 24.2315 59.5247C24.0377 59.5355 23.8434 59.5355 23.6496 59.5247C17.1653 59.5247 10.6798 59.5247 4.19302 59.5247C1.78762 59.5247 0.293945 58.0233 0.293945 55.6257C0.293945 42.6792 0.293945 29.7315 0.293945 16.7824C0.293945 14.4372 1.8012 12.9028 4.14258 12.9028C7.67696 12.8892 11.2094 12.8853 14.7438 12.9125C15.3626 12.9125 15.6846 12.7185 15.9659 12.1559C18.1346 7.8495 21.7252 5.51394 26.4196 4.89902C31.2168 4.27051 35.4205 5.60512 38.8695 9.08518C39.7601 9.95522 40.4811 10.9834 40.9955 12.1171C41.2788 12.7631 41.6745 12.9261 42.334 12.9183C45.2147 12.8873 48.0953 12.8737 50.9741 12.9183C51.75 12.9319 52.138 12.6409 52.4949 12.0046C54.3552 8.70691 56.2582 5.44799 58.1398 2.16967C58.5801 1.39373 59.0748 0.699274 59.9206 0.321006C61.6024 -0.435529 63.4123 0.171638 64.3997 1.86317C65.8836 4.41988 67.3501 6.98628 68.8263 9.5488C70.5424 12.531 72.2592 15.5125 73.9766 18.4934C74.2424 18.9551 74.4635 19.44 74.706 19.9153L74.7002 21.6689ZM57.7033 50.3377H63.6528C64.6344 50.3377 64.6402 50.3377 64.6402 49.3814C64.6402 41.2864 64.6402 33.1915 64.6576 25.0946C64.6576 24.3323 64.4093 24.1693 63.6994 24.1751C59.6606 24.2042 55.62 24.1945 51.5793 24.1868C48.6036 24.1868 47.0381 21.438 48.5279 18.8561C49.1099 17.85 49.6918 16.8432 50.2738 15.8358C50.4464 15.539 50.555 15.2868 50.0352 15.2888C47.591 15.2888 45.1474 15.2888 42.7045 15.2888C42.3166 15.2888 42.2254 15.4711 42.3011 15.8494C42.5699 17.1799 42.6819 18.5373 42.6347 19.8939C42.6173 20.3576 42.7433 20.6039 43.2574 20.6543C43.9681 20.7066 44.6305 21.0337 45.1041 21.5661C46.4057 23.0559 46.5183 24.7629 45.8956 26.5398C45.3136 28.2119 44.1497 29.2556 42.3263 29.3894C42.135 29.3857 41.9476 29.4432 41.7913 29.5535C41.635 29.6637 41.5179 29.821 41.4572 30.0024C41.0664 30.9167 40.5654 31.7798 39.9655 32.5727C39.6551 32.9781 39.7075 33.1934 40.1149 33.4941C41.8782 34.7957 43.0246 36.5164 43.4417 38.687C43.5425 39.2186 43.7521 39.3815 44.2836 39.4222C47.785 39.7016 50.2311 41.8238 50.6947 45.1525C50.8887 46.5802 50.7917 48.0623 50.7684 49.5074C50.7684 50.1418 50.9624 50.3571 51.6026 50.3493C53.6374 50.3183 55.6704 50.3377 57.7033 50.3377ZM33.6242 57.1601H62.3667C62.6557 57.1601 62.9486 57.1601 63.2377 57.1601C64.1533 57.1174 64.613 56.6616 64.6363 55.7518C64.6538 55.0728 64.6363 54.3939 64.6363 53.7149C64.6363 52.714 64.6363 52.712 63.6451 52.712H32.8017C31.5912 52.712 30.3808 52.7256 29.1703 52.712C28.4138 52.7004 27.9269 52.2426 27.9114 51.5889C27.8958 50.8905 28.373 50.4502 29.1936 50.425C30.8618 50.392 32.5301 50.3493 34.2003 50.3454C38.6037 50.3357 43.0091 50.3454 47.4125 50.3454C48.4038 50.3454 48.4193 50.3261 48.4193 49.3193C48.4193 48.1787 48.4406 47.04 48.4077 45.9013C48.3339 43.5425 46.4678 41.7869 44.1051 41.785C43.624 41.785 43.3815 41.9227 43.2186 42.4096C41.9577 46.1806 38.9684 48.3241 35.0053 48.33C30.7455 48.33 26.4862 48.33 22.2277 48.33C17.9736 48.33 15.1298 46.3203 13.7254 42.3029C13.6947 42.1519 13.6105 42.017 13.4882 41.9232C13.3659 41.8294 13.2138 41.7831 13.06 41.7927C12.4591 41.7518 11.8563 41.8355 11.2892 42.0384C10.7222 42.2413 10.2031 42.5592 9.76461 42.972C9.3261 43.3848 8.97756 43.8838 8.74083 44.4376C8.5041 44.9914 8.38428 45.5881 8.38887 46.1903C8.38887 47.234 8.38887 48.2757 8.38887 49.3193C8.38887 50.3629 8.38888 50.3396 9.38208 50.3396C13.9821 50.3396 18.5801 50.3396 23.1762 50.3396C23.5873 50.333 23.998 50.3674 24.4022 50.4424C24.6723 50.4819 24.916 50.6262 25.0805 50.844C25.245 51.0619 25.317 51.3358 25.2809 51.6063C25.2808 51.8778 25.1782 52.1393 24.9938 52.3385C24.8093 52.5377 24.5565 52.66 24.2858 52.681C24.021 52.7092 23.7545 52.7169 23.4885 52.7043H8.53243C6.78658 52.7043 5.04072 52.7198 3.30651 52.7043C2.78275 52.7043 2.54804 52.8498 2.58295 53.4046C2.61787 53.9594 2.58295 54.5685 2.58295 55.1504C2.58295 56.7935 2.95152 57.1678 4.5771 57.1678L33.6242 57.1601ZM35.2808 18.4197C36.7318 18.4197 38.1905 18.408 39.6338 18.4197C40.1149 18.4197 40.2933 18.2393 40.241 17.7718C39.8898 14.6486 38.7725 11.8979 36.2953 9.85335C33.3235 7.4014 29.8784 6.70112 26.1442 7.31411C20.9745 8.16764 17.1356 12.4295 16.9416 17.4691C16.9028 18.41 16.9086 18.4197 17.8262 18.4197H25.6612C25.9028 18.4085 26.1449 18.4189 26.3847 18.4507C26.9783 18.5651 27.3546 18.9473 27.3546 19.5467C27.373 19.8054 27.2974 20.0621 27.1417 20.2695C26.9859 20.477 26.7605 20.6212 26.5069 20.6757C26.1532 20.7554 25.7909 20.7906 25.4284 20.7804C22.8174 20.7895 20.205 20.7895 17.5914 20.7804C17.122 20.7804 16.7942 20.8483 16.8155 21.4439C16.8679 23.0403 16.7554 24.6388 16.9222 26.2372C16.9843 26.8191 17.1957 27.0383 17.7796 27.0306C19.5701 27.0073 21.3625 26.9724 23.1491 27.0306C24.2865 27.1107 25.4175 26.803 26.3576 26.1577C27.8086 25.1528 29.3468 25.1877 30.8987 25.9423C31.2479 26.1111 31.6009 26.2702 31.9443 26.4486C32.716 26.858 33.5813 27.0587 34.4544 27.0306C36.0257 26.9879 37.6008 26.9705 39.1702 27.0306C39.9636 27.0655 40.2138 26.7183 40.2254 26.0374C40.2448 24.9472 40.2552 23.8564 40.2565 22.7649C40.2565 20.7727 40.2565 20.7727 38.2681 20.7727C35.9229 20.7727 33.5757 20.7843 31.2304 20.7533C30.2353 20.7397 29.7154 20.2722 29.7309 19.5428C29.7464 18.8134 30.2838 18.41 31.2828 18.408C32.6116 18.4177 33.9423 18.4216 35.273 18.4197H35.2808ZM2.58683 33.1605V41.5231C2.58683 44.1651 2.61011 46.8072 2.57131 49.4492C2.56162 50.165 2.80991 50.4192 3.49079 50.3416C3.68463 50.3308 3.87891 50.3308 4.07274 50.3416C6.32295 50.3086 5.97378 50.6423 6.01257 48.4347C6.03197 47.4415 5.9602 46.4503 6.08823 45.4571C6.54797 41.944 9.13571 39.5871 12.6584 39.5231C13.0871 39.5231 13.413 39.4727 13.4945 38.9586C13.8728 36.6017 15.1201 34.7919 17.027 33.4165C17.3567 33.1799 17.4149 32.9975 17.1686 32.658C16.534 31.799 16.0021 30.8687 15.5837 29.886C15.5327 29.739 15.4362 29.6119 15.3082 29.5234C15.1803 29.4348 15.0274 29.3892 14.8718 29.3933C14.3376 29.3657 13.8156 29.2233 13.3413 28.9759C12.867 28.7286 12.4515 28.382 12.1231 27.9598C11.0523 26.5805 10.8098 25.0112 11.19 23.3507C11.5275 21.8726 12.4257 20.891 13.9717 20.6563C14.4547 20.5826 14.5537 20.3537 14.5537 19.9289C14.542 18.5496 14.4916 17.1646 14.7981 15.8028C14.8912 15.3935 14.6545 15.2907 14.3092 15.2907C10.8175 15.2907 7.3433 15.2907 3.85936 15.3023C3.25025 15.3023 2.88944 15.6632 2.69546 16.2276C2.59983 16.578 2.56312 16.9418 2.58683 17.3043V33.1605ZM61.3231 21.8221C64.516 21.8221 67.7084 21.8221 70.9 21.8221C72.3898 21.8221 72.7914 21.1296 72.0639 19.8571C68.88 14.3376 65.7013 8.81877 62.5277 3.30059C61.8061 2.04552 60.9429 2.02806 60.2174 3.28507C57.0179 8.81877 53.8269 14.3583 50.6443 19.9036C49.9615 21.0947 50.3882 21.8182 51.7539 21.8202C54.9404 21.8267 58.1295 21.8273 61.3211 21.8221H61.3231ZM21.5565 29.4108C20.5865 29.4108 19.6166 29.4282 18.6467 29.4108C18.0919 29.3972 17.9406 29.5272 18.2587 30.0548C20.1986 33.3525 22.8659 35.7676 26.5438 36.9567C27.3896 37.2302 28.2508 37.43 29.1781 37.2632C31.535 36.8326 33.5427 35.7113 35.3448 34.1963C36.7257 33.0464 37.8932 31.6622 38.7938 30.1072C39.1391 29.5019 39.0965 29.4302 38.3904 29.4224C37.6843 29.4146 36.9355 29.3797 36.2119 29.4224C33.9908 29.5718 31.8822 29.2653 29.9288 28.0994C29.0927 27.599 28.212 27.6824 27.407 28.2663C26.2045 29.1506 24.7185 29.5614 23.2325 29.4205C22.6758 29.3739 22.1171 29.4108 21.5603 29.4108H21.5565ZM34.1111 68.6226C39.0486 68.6226 43.9855 68.6226 48.9217 68.6226C50.3824 68.6226 50.3048 68.834 50.2912 67.1871C50.2815 65.9475 49.6802 65.319 48.4464 65.2317C48.2311 65.2162 48.0119 65.2317 47.7947 65.2317H20.282C18.3538 65.2317 17.8145 65.771 17.8204 67.6856C17.8204 68.6303 17.8204 68.6323 18.7903 68.6323L34.1111 68.6226ZM28.4856 45.944C31.1528 45.944 32.6426 44.7801 33.2944 42.1807C33.5065 41.2103 33.5932 40.2168 33.5524 39.2244C33.5524 38.2545 33.5524 38.2545 32.6737 38.6192C31.0772 39.2709 29.4593 39.8238 27.6902 39.6027C26.4662 39.4453 25.2758 39.0902 24.1655 38.5513C23.57 38.2642 23.4691 38.4465 23.4866 39.0149C23.5099 39.8606 23.5118 40.7045 23.6127 41.5483C23.9444 44.3203 25.7291 45.944 28.4875 45.944H28.4856ZM21.2112 39.7365C21.2112 38.6987 21.2112 37.9906 21.2112 37.2942C21.2189 37.1499 21.1909 37.0058 21.1297 36.8749C21.0684 36.7439 20.9758 36.6301 20.8601 36.5435C20.3363 36.1142 19.8248 35.6706 19.3257 35.2128C19.2404 35.1126 19.1201 35.0485 18.9893 35.0338C18.8585 35.019 18.727 35.0546 18.6215 35.1333C16.6138 36.2506 15.3684 38.9761 15.8572 41.2263C16.166 42.7002 17.0185 44.0038 18.245 44.8777C19.4715 45.7515 20.982 46.1315 22.476 45.942C22.8639 45.8955 22.8639 45.7636 22.6796 45.4939C21.5432 43.8034 21.0239 41.7729 21.2092 39.7443L21.2112 39.7365ZM35.2711 45.9304C37.9636 45.9013 40.2099 44.2621 40.9606 41.8179C41.7191 39.3447 40.8268 36.8558 38.6503 35.304C38.2293 35.0033 37.9132 34.9626 37.5271 35.3719C37.1348 35.7676 36.7104 36.1303 36.2585 36.4562C36.1119 36.5614 35.9951 36.7029 35.9196 36.8668C35.8441 37.0307 35.8125 37.2114 35.8278 37.3912C35.8433 38.5551 35.8278 39.719 35.8278 40.8829C35.7981 42.2941 35.4203 43.6761 34.7279 44.9062C34.5631 45.2146 34.1014 45.5133 34.2915 45.8237C34.4816 46.1341 34.9685 45.8896 35.273 45.9381L35.2711 45.9304ZM34.0936 62.9272C36.1013 62.9272 38.111 62.9136 40.1187 62.9272C40.658 62.9272 40.8539 62.7507 40.8287 62.2134C40.7938 61.5344 40.7977 60.8555 40.8287 60.1765C40.852 59.6567 40.6347 59.4937 40.1401 59.5131C39.4883 59.5403 38.8326 59.5131 38.1808 59.5131C34.8405 59.5131 31.502 59.5247 28.1635 59.5131C27.5661 59.5131 27.3275 59.7071 27.3663 60.3065C27.409 60.8631 27.409 61.4221 27.3663 61.9786C27.3023 62.6944 27.5331 62.9602 28.2916 62.9486C30.2217 62.902 32.1596 62.9369 34.0956 62.935L34.0936 62.9272ZM43.884 24.6756C43.9229 24.1657 43.7708 23.6596 43.4572 23.2557C43.3923 23.1669 43.3014 23.1006 43.1972 23.0658C43.0929 23.0311 42.9804 23.0296 42.8752 23.0617C42.6386 23.1335 42.6483 23.3468 42.6425 23.5369C42.6153 24.5224 42.7007 25.5117 42.5183 26.4894C42.4931 26.6252 42.4621 26.8036 42.6037 26.8773C42.7763 26.9821 42.9276 26.8502 43.0518 26.7435C43.6861 26.1945 43.8529 25.4516 43.884 24.6756ZM14.6293 26.9045C14.4819 25.7406 14.5595 24.6601 14.5343 23.5777C14.5343 23.3701 14.5828 23.1121 14.284 23.05C14.1756 23.0366 14.0656 23.0547 13.9672 23.1022C13.8688 23.1497 13.7862 23.2245 13.7292 23.3177C12.9281 24.2877 13.4033 26.3361 14.6293 26.9045Z" fill="white"/>
<path d="M21.8243 22.2024C22.5575 22.375 23.4848 22.5496 24.3829 22.8231C25.0076 23.0171 25.2151 23.5564 25.0696 24.1694C25.0475 24.3092 24.9971 24.443 24.9215 24.5627C24.8459 24.6823 24.7467 24.7853 24.63 24.8654C24.5132 24.9454 24.3814 25.0009 24.2426 25.0283C24.1037 25.0557 23.9607 25.0545 23.8223 25.0248C22.9389 24.8883 22.0654 24.6939 21.2074 24.4429C21.0706 24.4098 20.9417 24.3498 20.8283 24.2664C20.7149 24.1829 20.6193 24.0777 20.5471 23.9569C20.4748 23.8361 20.4274 23.702 20.4075 23.5627C20.3877 23.4233 20.3958 23.2813 20.4315 23.1451C20.5479 22.5166 20.994 22.216 21.8243 22.2024Z" fill="white"/>
<path d="M37.2478 23.3953C37.2352 23.6446 37.1428 23.8833 36.9842 24.0761C36.8257 24.269 36.6093 24.4057 36.3671 24.4661C35.5252 24.6814 34.6775 24.8909 33.8201 25.0248C33.1916 25.1237 32.7396 24.7862 32.5631 24.1712C32.5158 24.0319 32.498 23.8843 32.5109 23.7378C32.5237 23.5912 32.5669 23.4489 32.6377 23.32C32.7085 23.191 32.8053 23.0781 32.922 22.9886C33.0387 22.8991 33.1728 22.8347 33.3157 22.7998C34.1737 22.5489 35.0472 22.3545 35.9306 22.2178C36.0975 22.1922 36.268 22.2039 36.4299 22.2519C36.5918 22.3 36.7411 22.3833 36.867 22.4958C36.9929 22.6084 37.0923 22.7474 37.1581 22.9029C37.224 23.0584 37.2546 23.2266 37.2478 23.3953Z" fill="white"/>
<path d="M62.5374 11.4944C62.5374 12.4643 62.5471 13.4342 62.5374 14.4042C62.5258 15.281 62.035 15.8513 61.3347 15.8358C60.6771 15.8222 60.1708 15.2538 60.1708 14.4255C60.1527 12.4637 60.1527 10.5032 60.1708 8.54392C60.1708 7.71561 60.6868 7.155 61.3483 7.15112C62.0486 7.15112 62.5258 7.71367 62.5355 8.5963C62.5452 9.55846 62.5374 10.5264 62.5374 11.4944Z" fill="white"/>
<path d="M62.5275 19.2111C62.5275 19.5198 62.4049 19.8158 62.1866 20.0341C61.9683 20.2524 61.6723 20.375 61.3636 20.375C61.0549 20.375 60.7589 20.2524 60.5406 20.0341C60.3223 19.8158 60.1997 19.5198 60.1997 19.2111C60.2092 18.8954 60.3401 18.5955 60.5653 18.3739C60.7904 18.1524 61.0924 18.0263 61.4082 18.022C61.7097 18.0443 61.9919 18.1787 62.1991 18.3989C62.4063 18.619 62.5235 18.9088 62.5275 19.2111Z" fill="white"/>
</svg>
