<svg width="66" height="66" viewBox="0 0 66 66" fill="none" xmlns="http://www.w3.org/2000/svg">
<path d="M5.2637 65.8838C4.5186 65.6115 3.85053 65.1628 3.31666 64.576C2.56109 63.7623 1.77645 63.0358 0.991814 62.2512C0.678065 61.9477 0.428599 61.5842 0.258208 61.1823C0.0878166 60.7804 0 60.3484 0 59.9118C0 59.4753 0.0878166 59.0433 0.258208 58.6414C0.428599 58.2395 0.678065 57.876 0.991814 57.5725C3.31665 55.2186 5.67056 52.8937 7.99539 50.5689C8.35599 50.1721 8.81311 49.8752 9.3223 49.7072C9.8315 49.5391 10.3755 49.5056 10.9014 49.6099C11.088 49.6519 11.2829 49.6354 11.4598 49.5626C11.6366 49.4898 11.7866 49.3642 11.8895 49.2031C12.8485 48.2441 12.8485 48.2441 12.2673 47.0817C11.2257 45.083 10.6434 42.877 10.563 40.6247C10.4825 38.3723 10.9059 36.1304 11.8023 34.0626C11.9758 33.6079 12.0645 33.1253 12.0639 32.6386V15.4058C12.0534 14.7151 12.102 14.0248 12.2091 13.3425C12.401 12.132 12.9706 11.0131 13.8366 10.1458L22.1769 1.83455C22.7445 1.22982 23.4349 0.753556 24.2018 0.437775C24.9687 0.121993 25.7943 -0.0259982 26.6231 0.00373708H49.145C50.1897 -0.0303794 51.218 0.269676 52.0803 0.860272C52.9427 1.45087 53.5942 2.3012 53.9399 3.28757C54.0004 3.47848 54.1059 3.65205 54.2475 3.79365C54.3892 3.93526 54.5627 4.04076 54.7536 4.10126C55.4371 4.36539 56.0529 4.77912 56.5558 5.31214C57.0586 5.84515 57.4358 6.48393 57.6597 7.18166C57.7039 7.34131 57.7887 7.4868 57.9058 7.60393C58.023 7.72107 58.1684 7.80586 58.3281 7.85006C59.0642 8.08119 59.7351 8.48349 60.2857 9.02399C60.8363 9.56449 61.251 10.2278 61.4957 10.9595C61.5378 11.1032 61.612 11.2353 61.7127 11.3461C61.8134 11.4568 61.9379 11.5433 62.0769 11.5988C63.1651 11.9619 64.1029 12.6746 64.7441 13.6259C65.3853 14.5772 65.694 15.7138 65.6223 16.8588V53.7074C65.6612 54.4578 65.5416 55.2079 65.2712 55.9089C65.0008 56.6099 64.5857 57.2461 64.053 57.7759C63.6084 58.246 63.0722 58.6201 62.4774 58.875C61.8826 59.1299 61.2419 59.2602 60.5948 59.258H28.4249C27.4366 59.2544 26.4729 58.9492 25.6628 58.3831C24.8527 57.8171 24.2347 57.0172 23.8915 56.0904C23.8086 55.8151 23.6504 55.5685 23.4347 55.3785C23.219 55.1885 22.9544 55.0626 22.6709 55.0152C21.082 54.6766 19.56 54.0777 18.1665 53.2425C18.0613 53.2187 17.9521 53.2187 17.8469 53.2425C17.5272 53.2425 16.2776 54.6083 16.3358 54.9861C16.4404 55.7872 16.3091 56.6015 15.9581 57.3293C15.6072 58.057 15.0517 58.6667 14.3596 59.0836C14.2729 59.1733 14.1691 59.2445 14.0542 59.2932C13.9394 59.3419 13.816 59.367 13.6913 59.367C13.5665 59.367 13.4431 59.3419 13.3283 59.2932C13.2134 59.2445 13.1096 59.1733 13.0229 59.0836C12.9279 58.994 12.8522 58.8859 12.8005 58.7659C12.7487 58.646 12.7221 58.5168 12.7221 58.3862C12.7221 58.2556 12.7487 58.1263 12.8005 58.0064C12.8522 57.8865 12.9279 57.7784 13.0229 57.6887C13.3135 57.34 13.6913 57.0203 14.0109 56.6716C14.1446 56.5626 14.2523 56.4252 14.3263 56.2694C14.4003 56.1135 14.4387 55.9432 14.4387 55.7707C14.4387 55.5982 14.4003 55.4279 14.3263 55.2721C14.2523 55.1163 14.1446 54.9789 14.0109 54.8699C13.1391 53.9399 12.2382 53.039 11.3374 52.1672C11.2256 52.033 11.0856 51.925 10.9274 51.8509C10.7692 51.7768 10.5966 51.7384 10.422 51.7384C10.2473 51.7384 10.0747 51.7768 9.91649 51.8509C9.7583 51.925 9.61836 52.033 9.50655 52.1672C7.21077 54.4339 4.94406 56.7297 2.64828 59.0255C2.5032 59.1397 2.38593 59.2854 2.30529 59.4515C2.22465 59.6176 2.18277 59.7998 2.18277 59.9845C2.18277 60.1691 2.22465 60.3514 2.30529 60.5175C2.38593 60.6836 2.5032 60.8293 2.64828 60.9435L5.23466 63.5299C5.34888 63.6749 5.49454 63.7922 5.66066 63.8729C5.82677 63.9535 6.00901 63.9954 6.19366 63.9954C6.37831 63.9954 6.56054 63.9535 6.72666 63.8729C6.89277 63.7922 7.03843 63.6749 7.15266 63.5299L9.76808 60.9144L10.1168 60.5657C10.7271 59.9845 11.3664 59.8973 11.8023 60.3332C12.2382 60.7691 12.1801 61.4375 11.6279 62.0187C11.0758 62.5999 9.88432 63.7333 9.04157 64.6051C8.49046 65.2193 7.80396 65.6969 7.03639 66L5.2637 65.8838ZM14.1853 30.1104L14.3887 29.965C15.9742 28.1341 17.9767 26.711 20.2272 25.8159C22.4778 24.9207 24.9106 24.5796 27.3206 24.8214C29.32 24.9621 31.2687 25.5149 33.0441 26.4451C34.8195 27.3753 36.3832 28.6628 37.637 30.2266C39.381 32.2536 40.5513 34.7102 41.0265 37.3416C41.5017 39.9731 41.2645 42.6837 40.3397 45.1927C40.3397 45.5996 40.1653 45.8321 40.7175 45.8321H49.4356C50.0848 45.8321 50.7091 45.5823 51.1792 45.1346C51.574 44.7686 51.877 44.3148 52.0638 43.8099C52.2506 43.3051 52.3159 42.7633 52.2545 42.2286C52.2545 29.965 52.2545 17.6822 52.2545 5.37991C52.3003 4.9119 52.2412 4.43957 52.0817 3.9972C51.9222 3.55483 51.6662 3.15352 51.3323 2.8224C50.9984 2.49128 50.595 2.23866 50.1513 2.08287C49.7076 1.92708 49.2348 1.87204 48.7672 1.92173H27.8727C27.5611 1.87825 27.2436 1.90766 26.9453 2.00766C26.6469 2.10766 26.3758 2.27552 26.1533 2.49803C25.9308 2.72053 25.7629 2.99163 25.6629 3.28999C25.5629 3.58835 25.5335 3.90585 25.577 4.2175C25.577 5.4671 25.577 6.74576 25.577 7.99536C25.594 9.25299 25.147 10.4728 24.3214 11.4217C23.4958 12.3705 22.3496 12.982 21.1017 13.1391C19.6329 13.2844 18.1533 13.2844 16.6845 13.1391C16.3587 13.102 16.0288 13.1389 15.7193 13.247C15.4098 13.3551 15.1287 13.5316 14.8968 13.7634C14.665 13.9953 14.4885 14.2764 14.3804 14.5859C14.2723 14.8954 14.2354 15.2253 14.2725 15.5511C14.2725 19.5614 14.2725 23.5717 14.2725 27.5821L14.1853 30.1104ZM33.7429 53.3587C33.8882 53.5331 34.0917 53.3587 34.237 53.3587H56.6135C56.883 53.4032 57.1578 53.4032 57.4272 53.3587C58.0774 53.2053 58.6549 52.8326 59.0624 52.3033C59.47 51.774 59.6827 51.1204 59.6649 50.4527V22.9034C59.6649 22.0025 60.0717 21.4794 60.7401 21.5085C61.4085 21.5375 61.7572 22.0025 61.7572 22.9034V50.0458C61.8046 50.7781 61.6948 51.512 61.4351 52.1983C61.1755 52.8846 60.772 53.5074 60.2517 54.0248C59.7315 54.5423 59.1066 54.9425 58.4189 55.1985C57.7312 55.4545 56.9968 55.5605 56.2648 55.5092H26.6231C26.4488 55.5092 26.1873 55.5092 26.1001 55.5092C26.0129 55.5092 26.1 55.916 26.3325 56.0613C26.7013 56.4524 27.1555 56.7529 27.6596 56.9394C28.1637 57.126 28.7041 57.1934 29.2386 57.1366H60.1589C60.6315 57.1985 61.1121 57.151 61.5634 56.9977C62.0147 56.8443 62.4247 56.5893 62.7618 56.2522C63.0988 55.9152 63.3539 55.5051 63.5072 55.0538C63.6606 54.6025 63.7081 54.1219 63.6462 53.6493C63.6462 45.338 63.6462 37.0267 63.6462 28.7155C63.6462 24.647 63.6462 20.6076 63.6462 16.5682C63.6808 15.7354 63.3888 14.9221 62.8325 14.3015C62.6 14.069 62.3384 13.6912 62.0187 13.8074C61.6991 13.9237 62.0187 14.3305 62.0187 14.6211C62.0187 15.8998 62.0187 17.2075 62.0187 18.4862C62.0307 18.6245 62.0142 18.7638 61.9703 18.8954C61.9264 19.0271 61.856 19.1484 61.7634 19.2519C61.6709 19.3553 61.5581 19.4387 61.4321 19.497C61.3061 19.5552 61.1695 19.587 61.0307 19.5905C60.76 19.5914 60.4989 19.4901 60.2996 19.307C60.1003 19.1238 59.9774 18.8722 59.9555 18.6024C59.941 18.3411 59.941 18.0791 59.9555 17.8178V12.7031C59.9842 11.9707 59.7351 11.2545 59.258 10.698C59.0255 10.4364 58.764 10.0296 58.4443 10.1168C58.1247 10.204 58.4443 10.698 58.4443 10.9886V46.0936C58.4938 47.2959 58.1689 48.4839 57.5144 49.4937C56.9773 50.2517 56.2539 50.8585 55.414 51.2556C54.5741 51.6526 53.6461 51.8265 52.7194 51.7604H37.0849C36.7653 51.7604 36.4165 51.7604 36.155 51.7604L33.7429 53.3587ZM25.8966 53.3587C28.5118 53.3587 31.0682 52.5832 33.2427 51.1303C35.4171 49.6774 37.1119 47.6123 38.1127 45.1962C39.1134 42.7801 39.3753 40.1215 38.8651 37.5566C38.3549 34.9917 37.0955 32.6357 35.2463 30.7865C33.3971 28.9373 31.0411 27.678 28.4762 27.1678C25.9113 26.6576 23.2527 26.9194 20.8366 27.9202C18.4205 28.921 16.3554 30.6157 14.9025 32.7902C13.4496 34.9646 12.6741 37.521 12.6741 40.1362C12.7124 43.6151 14.1234 46.9381 16.5997 49.3818C19.0761 51.8256 22.4175 53.1922 25.8966 53.1843V53.3587ZM55.9161 27.8436C55.9161 21.6247 55.9161 15.4058 55.9161 9.18684C55.9361 8.73548 55.8611 8.28495 55.6959 7.86444C55.5307 7.44392 55.279 7.0628 54.9571 6.74576C54.7827 6.5714 54.5502 6.25173 54.2887 6.36797C54.0272 6.48421 54.2887 6.83294 54.2887 7.09448V42.6063C54.3215 43.311 54.2074 44.0147 53.9536 44.6729C53.6999 45.331 53.3119 45.9291 52.8145 46.4293C52.3171 46.9294 51.7211 47.3206 51.0643 47.578C50.4076 47.8354 49.7045 47.9534 48.9997 47.9244C46.0936 47.9244 43.391 47.9244 40.5722 47.9244C39.6132 47.9244 38.8576 47.9244 38.4798 49.0287C38.4798 49.2321 38.102 49.3774 38.2183 49.5808C38.3345 49.7843 38.5961 49.5808 38.7995 49.5808H52.6322C53.0873 49.6316 53.5479 49.5794 53.98 49.4279C54.4121 49.2765 54.8046 49.0297 55.1284 48.706C55.4521 48.3822 55.6989 47.9897 55.8503 47.5576C56.0018 47.1255 56.054 46.6649 56.0033 46.2098C55.9161 40.1071 55.9161 33.9173 55.9161 27.7565V27.8436ZM15.8417 11.2792C17.5354 11.381 19.2336 11.381 20.9273 11.2792C21.4534 11.2099 21.948 10.9888 22.3505 10.6431C22.753 10.2973 23.0462 9.84177 23.194 9.33214C23.3376 8.88188 23.3967 8.40897 23.3684 7.93724V3.78159C22.7581 4.0722 16.1323 10.698 15.8417 11.192V11.2792ZM15.987 51.9638C15.9699 51.8831 15.9349 51.8073 15.8846 51.7419C15.8343 51.6766 15.77 51.6233 15.6964 51.586C15.3186 51.1792 14.8827 50.8305 14.534 50.3945C14.1853 49.9586 13.9528 50.133 13.6622 50.3945C13.3716 50.6561 12.9647 50.9176 13.6622 51.3535C14.3596 51.7894 14.4177 52.1091 14.7955 52.4869C15.1733 52.8647 15.0862 52.9519 15.3768 52.7194C15.6292 52.4775 15.8359 52.192 15.987 51.8766V51.9638Z" fill="#692060"/>
<path d="M32.6392 19.0088V16.1027C32.6392 15.1437 33.046 14.7659 33.9759 14.7659H35.1383C35.6149 14.7181 36.0962 14.7665 36.5537 14.9083C37.0112 15.0502 37.4356 15.2825 37.8015 15.5915C38.1675 15.9005 38.4676 16.28 38.684 16.7072C38.9005 17.1345 39.0288 17.6009 39.0615 18.0788C39.258 19.1666 39.0948 20.2888 38.5965 21.2755C38.3246 21.8719 37.8803 22.3733 37.321 22.7151C36.7617 23.0569 36.1128 23.2235 35.458 23.1935C34.9349 23.1935 34.4118 23.1935 33.9178 23.1935C33.4238 23.1935 32.6682 22.8447 32.6682 22.002C32.6682 21.1592 32.6682 19.9968 32.6682 19.0959L32.6392 19.0088ZM34.7606 19.0088V20.7233C34.7606 21.043 34.7605 21.1883 35.1964 21.1883C35.5643 21.2185 35.9314 21.1228 36.2377 20.9168C36.544 20.7109 36.7712 20.407 36.882 20.0549C37.0855 19.3723 37.0855 18.6452 36.882 17.9626C36.7984 17.5902 36.5718 17.2657 36.251 17.0591C35.9302 16.8525 35.5409 16.7803 35.1674 16.8583C34.8768 16.8583 34.7024 17.0326 34.7315 17.3232L34.7606 19.0088Z" fill="#692060"/>
<path d="M24.3277 22.177C24.3303 22.4058 24.2578 22.6292 24.1214 22.8129C23.9849 22.9966 23.7919 23.1305 23.5721 23.1941C23.4598 23.2407 23.3392 23.2641 23.2177 23.2628C23.0961 23.2616 22.976 23.2357 22.8647 23.1869C22.7534 23.138 22.6531 23.0671 22.5699 22.9784C22.4867 22.8898 22.4223 22.7852 22.3806 22.671C22.1481 21.6539 21.4507 21.6829 20.637 21.6539C19.8233 21.6248 19.3874 21.6539 19.1549 22.5838C19.1136 22.7125 19.0456 22.831 18.9554 22.9315C18.8651 23.0321 18.7547 23.1124 18.6312 23.1673C18.5077 23.2222 18.3741 23.2503 18.2389 23.2499C18.1038 23.2495 17.9703 23.2206 17.8472 23.165C17.7237 23.1171 17.6112 23.045 17.5162 22.9527C17.4211 22.8605 17.3456 22.7501 17.2941 22.6281C17.2426 22.5061 17.2162 22.375 17.2163 22.2426C17.2165 22.1102 17.2432 21.9792 17.295 21.8573C18.0796 19.7359 18.8643 17.6435 19.678 15.5512C19.754 15.3217 19.9032 15.1236 20.1027 14.9871C20.3021 14.8506 20.5409 14.7833 20.7823 14.7956C21.0178 14.7942 21.2479 14.8662 21.4406 15.0016C21.6333 15.137 21.779 15.3291 21.8575 15.5512C22.6712 17.6435 23.4558 19.7359 24.2114 21.8282C24.2632 21.9397 24.3022 22.0567 24.3277 22.177Z" fill="#692060"/>
<path d="M25.0254 18.312V16.2487C25.0254 15.4059 25.3741 14.941 26.0134 14.941C26.6527 14.941 27.0305 15.4059 27.0305 16.2196C27.0305 17.4983 27.0305 18.806 27.0305 20.0847C27.0189 20.2978 27.0647 20.5101 27.1631 20.6995C27.2616 20.8888 27.4091 21.0483 27.5902 21.1612C27.7714 21.274 27.9796 21.3361 28.1929 21.341C28.4063 21.3459 28.6171 21.2934 28.8032 21.189C28.9936 21.1088 29.153 20.9693 29.2577 20.7913C29.3624 20.6133 29.4069 20.4062 29.3844 20.2009V16.4521C29.37 16.2198 29.37 15.9869 29.3844 15.7546C29.4126 15.495 29.5343 15.2545 29.7268 15.078C29.9194 14.9016 30.1695 14.8012 30.4306 14.7957C30.5666 14.7956 30.7013 14.8228 30.8267 14.8758C30.952 14.9287 31.0655 15.0062 31.1603 15.1038C31.2551 15.2013 31.3294 15.3169 31.3788 15.4437C31.4282 15.5704 31.4516 15.7058 31.4477 15.8418C31.4477 16.3359 31.4477 16.8589 31.4477 17.382V20.2881C31.4371 20.717 31.3394 21.1392 31.1607 21.5293C30.9819 21.9193 30.7258 22.2689 30.4079 22.557C30.0899 22.845 29.7167 23.0655 29.311 23.205C28.9053 23.3445 28.4755 23.4001 28.0477 23.3685C27.6289 23.3993 27.2085 23.339 26.8152 23.1918C26.422 23.0446 26.0654 22.8139 25.7699 22.5156C25.4744 22.2173 25.247 21.8585 25.1034 21.464C24.9598 21.0694 24.9035 20.6484 24.9382 20.23L25.0254 18.312Z" fill="#692060"/>
<path d="M45.251 19.7647C45.251 19.0092 45.251 18.2536 45.251 17.498C45.251 16.7425 45.251 16.8587 44.6698 16.8587H44.292C44.0546 16.8095 43.8459 16.6696 43.7102 16.4687C43.5745 16.2679 43.5226 16.022 43.5655 15.7835C43.5614 15.6641 43.5819 15.5451 43.6258 15.434C43.6696 15.3228 43.7358 15.2219 43.8203 15.1374C43.9048 15.053 44.0058 14.9867 44.1169 14.9429C44.228 14.8991 44.3469 14.8785 44.4663 14.8826C45.6869 14.8826 46.9365 14.8826 48.1861 14.8826C48.3107 14.8825 48.434 14.9075 48.5488 14.956C48.6636 15.0046 48.7674 15.0757 48.8541 15.1651C48.9409 15.2546 49.0087 15.3606 49.0537 15.4768C49.0987 15.593 49.1199 15.717 49.116 15.8416C49.1324 15.9669 49.1222 16.0941 49.0861 16.2152C49.05 16.3363 48.9889 16.4484 48.9067 16.5444C48.8245 16.6403 48.723 16.7178 48.6089 16.772C48.4948 16.8261 48.3705 16.8557 48.2442 16.8587C47.4015 16.8587 47.3143 17.2946 47.3433 17.992C47.3433 19.3869 47.3433 20.7819 47.3433 22.1768C47.3598 22.3159 47.3465 22.457 47.3043 22.5906C47.2621 22.7243 47.1919 22.8474 47.0985 22.9518C47.005 23.0563 46.8904 23.1397 46.7623 23.1964C46.6341 23.2532 46.4954 23.282 46.3553 23.281C45.745 23.281 45.3672 22.9323 45.28 22.2639C45.2656 22.0899 45.2656 21.9149 45.28 21.7408L45.251 19.7647Z" fill="#692060"/>
<path d="M40.0786 18.9513C40.0786 17.9923 40.0786 17.0333 40.0786 16.0453C40.0786 15.0572 40.4855 14.7666 41.1248 14.7666C41.7641 14.7666 42.171 15.2606 42.171 16.0453V21.8574C42.171 22.671 41.7641 23.107 41.0957 23.107C40.4273 23.107 40.0786 22.671 40.0786 21.8574C40.0786 21.0437 40.0786 19.9394 40.0786 18.9513Z" fill="#692060"/>
<path d="M37.0556 40.0489C37.0671 42.2596 36.4217 44.424 35.2012 46.2674C33.9807 48.1108 32.2402 49.5501 30.2005 50.4028C28.1608 51.2554 25.9138 51.483 23.7445 51.0567C21.5752 50.6303 19.5814 49.5692 18.0161 48.008C16.4508 46.4468 15.3845 44.4558 14.9525 42.2877C14.5204 40.1195 14.7421 37.8719 15.5895 35.8299C16.4368 33.7879 17.8716 32.0437 19.7118 30.8184C21.552 29.5931 23.7146 28.9421 25.9254 28.9478C28.8699 28.9554 31.6921 30.1265 33.777 32.2059C35.8618 34.2853 37.0402 37.1044 37.0556 40.0489ZM25.8964 31.0401C24.7098 31.0325 23.5335 31.26 22.4354 31.7097C21.3373 32.1593 20.3392 32.8221 19.4988 33.6598C18.6584 34.4975 17.9924 35.4935 17.5392 36.5901C17.0861 37.6867 16.8547 38.8623 16.8586 40.0489C16.8586 42.4459 17.8108 44.7447 19.5057 46.4396C21.2006 48.1345 23.4994 49.0867 25.8964 49.0867C28.2933 49.0867 30.5921 48.1345 32.287 46.4396C33.982 44.7447 34.9342 42.4459 34.9342 40.0489C34.9459 38.8601 34.7199 37.681 34.2695 36.5808C33.8191 35.4806 33.1534 34.4816 32.3114 33.6423C31.4694 32.803 30.4682 32.1405 29.3665 31.6936C28.2649 31.2468 27.0851 31.0246 25.8964 31.0401Z" fill="#692060"/>
<path d="M18.6023 40.5138C18.501 39.8418 18.6385 39.1556 18.9907 38.5744C19.343 37.9933 19.8877 37.554 20.5303 37.3328C21.1729 37.1117 21.8727 37.1228 22.508 37.3642C23.1432 37.6055 23.6739 38.0619 24.0075 38.6539C24.6759 39.4095 24.6759 39.4095 25.199 38.4796C25.722 37.5496 26.2742 36.5325 26.8554 35.5735C27.0498 35.2146 27.3136 34.8979 27.6315 34.6418C27.9493 34.3857 28.3149 34.1954 28.707 34.0818C29.0991 33.9683 29.5098 33.9338 29.9153 33.9803C30.3208 34.0268 30.713 34.1535 31.0692 34.353C31.4334 34.534 31.7555 34.7895 32.0148 35.1029C32.274 35.4163 32.4647 35.7807 32.5742 36.1724C32.6838 36.5641 32.7099 36.9744 32.6509 37.3769C32.5919 37.7793 32.449 38.1649 32.2316 38.5086C30.7786 41.1531 29.3256 43.8267 27.7563 46.4421C27.5496 46.9437 27.2065 47.3775 26.766 47.6942C26.3255 48.011 25.8052 48.1981 25.2638 48.2344C24.7225 48.2707 24.1818 48.1547 23.703 47.8996C23.2241 47.6445 22.8263 47.2604 22.5545 46.7908L19.2416 42.548C18.7784 41.9755 18.5499 41.2484 18.6023 40.5138ZM25.0246 45.8028C25.5477 45.8028 25.8093 45.5413 26.0417 45.1635L28.6862 40.4557C29.2675 39.4386 29.8777 38.4214 30.4299 37.3753C30.5647 37.1479 30.6038 36.8763 30.5384 36.6201C30.473 36.364 30.3085 36.1443 30.0811 36.0094C29.8538 35.8745 29.5821 35.8355 29.326 35.9009C29.0698 35.9663 28.8502 36.1308 28.7153 36.3581C28.6024 36.5128 28.505 36.6783 28.4247 36.8522L25.8964 41.3275C25.228 42.4608 24.5015 42.4899 23.6878 41.3275L22.4964 39.8163C22.427 39.6936 22.3315 39.5877 22.2165 39.5061C22.1016 39.4245 21.97 39.3692 21.8313 39.3442C21.6925 39.3193 21.55 39.3252 21.4138 39.3616C21.2776 39.398 21.1511 39.4639 21.0433 39.5548C20.9292 39.6339 20.8336 39.7368 20.7631 39.8564C20.6926 39.9761 20.6489 40.1096 20.6351 40.2478C20.6213 40.3859 20.6377 40.5254 20.6831 40.6567C20.7284 40.7879 20.8018 40.9077 20.898 41.0078C21.9733 42.4318 23.0776 43.9139 24.1819 45.2216C24.2501 45.3903 24.3663 45.5353 24.5161 45.6386C24.6659 45.7419 24.8427 45.799 25.0246 45.8028Z" fill="#692060"/>
</svg>
