<svg width="75" height="75" viewBox="0 0 75 75" fill="none" xmlns="http://www.w3.org/2000/svg">
<g id="security">
<mask id="mask0_205_1286" style="mask-type:alpha" maskUnits="userSpaceOnUse" x="0" y="0" width="75" height="75">
<rect id="Bounding box" x="0.5625" y="0.5625" width="73.875" height="73.875" fill="#D9D9D9"/>
</mask>
<g mask="url(#mask0_205_1286)">
<path id="security_2" d="M37.5 68.2812C30.369 66.4857 24.4821 62.3943 19.8393 56.0072C15.1964 49.6201 12.875 42.5276 12.875 34.7297V15.9531L37.5 6.71875L62.125 15.9531V34.7297C62.125 42.5276 59.8036 49.6201 55.1607 56.0072C50.5179 62.3943 44.631 66.4857 37.5 68.2812ZM37.5 61.8172C42.4763 60.2781 46.6318 57.2385 49.9664 52.6982C53.301 48.158 55.2505 43.0919 55.8148 37.5H37.5V13.2598L19.0312 20.1855V36.1148C19.0312 36.474 19.0826 36.9357 19.1852 37.5H37.5V61.8172Z" fill="white"/>
</g>
</g>
</svg>
