<svg width="75" height="63" viewBox="0 0 75 63" fill="none" xmlns="http://www.w3.org/2000/svg">
<path d="M37.4998 62.0326C26.682 62.0326 15.8618 61.9914 5.04392 62.0624C2.65904 62.0784 0.833156 60.4427 0.842319 57.8608C0.899593 40.2869 0.872101 22.713 0.872101 5.13911C0.872101 2.37393 2.27646 0.969577 5.04163 0.969577C26.6774 0.969577 48.3139 0.958882 69.9512 0.9375C72.5606 0.9375 74.1642 2.77027 74.1573 5.13682C74.1024 22.7099 74.1024 40.2838 74.1573 57.8585C74.1573 60.3281 72.4575 62.0784 69.9557 62.0624C59.1379 61.9914 48.3177 62.0326 37.4998 62.0326ZM37.5502 13.2674H4.41162C3.41964 13.2674 3.41735 13.2674 3.41735 14.28V57.5538C3.41735 59.1323 3.76786 59.4851 5.33717 59.4851H69.635C71.2387 59.4851 71.58 59.1391 71.58 57.5011C71.58 43.1017 71.58 28.7031 71.58 14.3052C71.58 13.2674 71.58 13.2651 70.5377 13.2651L37.5502 13.2674ZM37.4471 10.7222H51.6167C57.9649 10.7222 64.3131 10.7107 70.6614 10.7382C71.4059 10.7382 71.619 10.5091 71.5938 9.78516C71.5434 8.31437 71.5823 6.839 71.5777 5.36591C71.5732 3.89283 71.1997 3.51482 69.7312 3.51482H5.60292C3.68081 3.51482 3.4288 3.76912 3.4288 5.7233V9.68894C3.4288 10.7244 3.4288 10.7267 4.47577 10.7267L37.4471 10.7222Z" />
<path d="M21.5984 43.9571C21.5984 42.3824 21.5984 40.8085 21.5984 39.2354C21.5984 37.9158 22.0336 37.4599 23.3807 37.4508C25.564 37.4324 27.7473 37.4508 29.9283 37.4508C30.8927 37.4508 31.8572 37.4508 32.8217 37.4508C33.4884 37.4508 34.0886 37.6203 34.375 38.319C34.6614 39.0178 34.2994 39.5332 33.8229 40.0006C33.4059 40.4084 33.0279 40.8643 32.5766 41.2286C32.0199 41.6753 32.1047 42.0533 32.501 42.5596C34.2238 44.7658 36.485 45.7853 39.2387 45.4233C42.1826 45.0384 44.21 43.3614 45.2249 40.5527C45.8206 38.9147 46.8286 37.8036 48.5995 37.5401C51.5663 37.1048 54.0978 39.7967 53.2616 42.6741C51.8275 47.6341 48.5949 51.0499 43.7771 52.8597C37.5915 55.1873 30.8561 53.4004 26.501 48.3672C26.1299 47.941 25.8916 47.8609 25.493 48.3145C25.0073 48.8643 24.462 49.3637 23.9374 49.8792C23.4907 50.3213 22.9775 50.5504 22.3544 50.2732C21.7312 49.996 21.5915 49.5149 21.5938 48.8987C21.6052 47.2606 21.5984 45.6066 21.5984 43.9571ZM24.1596 45.9525C24.5674 45.5584 24.824 45.295 25.0921 45.0361C25.9718 44.2159 26.737 44.2984 27.4449 45.2858C27.5182 45.3889 27.5846 45.4966 27.6579 45.5997C30.2971 49.2881 33.9237 51.2492 38.4254 51.2079C43.2639 51.1644 47.0302 48.9536 49.5732 44.7933C50.12 43.935 50.5254 42.9944 50.7736 42.0075C50.872 41.6206 50.8148 41.2106 50.6144 40.8654C50.4139 40.5202 50.0862 40.2673 49.7015 40.161C48.9363 39.9113 48.1963 40.2664 47.8504 41.0636C47.729 41.3431 47.6419 41.6363 47.5205 41.9158C45.8687 45.7234 42.9386 47.8586 38.8332 48.0785C34.9546 48.287 31.926 46.5504 29.8618 43.2308C29.241 42.2366 28.6316 41.2079 30.0909 40.0854H24.5926C24.5352 40.0784 24.4769 40.0845 24.4222 40.1033C24.3675 40.1221 24.3178 40.1531 24.2768 40.1939C24.2357 40.2347 24.2045 40.2843 24.1854 40.3389C24.1663 40.3935 24.1599 40.4517 24.1665 40.5092C24.1596 42.2549 24.1596 43.9983 24.1596 45.9525Z" />
<path d="M46.9296 36.4242C45.303 36.4242 43.6787 36.4242 42.0544 36.4242C41.4221 36.4242 40.8906 36.2616 40.618 35.6407C40.3294 34.9786 40.5951 34.4678 41.0762 34.0096C41.5573 33.5514 42.0292 33.0222 42.5378 32.564C42.8975 32.241 42.9021 31.9706 42.6272 31.5926C40.9067 29.2169 38.5653 28.1676 35.6856 28.5182C32.9479 28.8503 31.0441 30.4151 29.9239 32.9282C29.8208 33.1573 29.7475 33.4048 29.6627 33.643C29.0075 35.4758 27.413 36.5594 25.6421 36.3715C23.3511 36.1264 21.7475 34.706 21.5184 32.6694C21.4873 32.1354 21.5653 31.6007 21.7475 31.0978C23.5619 25.0245 29.1633 20.5594 35.4748 20.1654C40.6868 19.8377 45.0121 21.6705 48.4554 25.5743C48.87 26.0439 49.1152 26.0462 49.5138 25.5903C49.9972 25.0382 50.5447 24.5411 51.0693 24.0233C51.5 23.6018 51.9857 23.391 52.5882 23.6545C53.1908 23.9179 53.3855 24.4013 53.3855 25.0084C53.3855 28.3097 53.3855 31.6087 53.3855 34.9099C53.3855 35.9294 52.8975 36.4059 51.8849 36.4151C50.2286 36.4357 48.5791 36.4242 46.9296 36.4242ZM50.7349 28.202C50.3569 28.2914 50.2263 28.5273 50.0476 28.6991C48.9662 29.7553 48.2629 29.6911 47.3947 28.47C44.2629 24.0898 39.9972 22.092 34.6776 22.903C29.4932 23.6911 26.027 26.7656 24.2927 31.7301C23.9078 32.8297 24.5859 33.7278 25.7314 33.753C26.6066 33.7713 26.9158 33.4574 27.3832 32.2822C28.9296 28.4013 31.8139 26.1562 35.9536 25.8675C40.0247 25.5834 43.1587 27.375 45.2435 30.9076C45.7841 31.824 46.2011 32.7564 44.9433 33.7553C46.9136 33.7553 48.6226 33.7553 50.3339 33.7553C50.6547 33.7553 50.7303 33.4827 50.7303 33.2077C50.7349 31.5674 50.7349 29.9202 50.7349 28.202Z" />
<path d="M28.8858 8.39002C22.5154 8.39002 16.1443 8.39002 9.77236 8.39002C8.81932 8.39002 8.2947 8.01889 8.20077 7.30641C8.17228 7.13691 8.17929 6.96334 8.22136 6.7967C8.26343 6.63005 8.33963 6.47395 8.44516 6.33828C8.55068 6.20261 8.68321 6.09033 8.83438 6.00853C8.98554 5.92674 9.15204 5.87722 9.32333 5.8631C9.57633 5.84285 9.8303 5.8375 10.0839 5.84707H47.8526C49.163 5.84707 49.7151 6.21133 49.7357 7.08418C49.7563 7.95704 49.1767 8.39232 47.8457 8.39232L28.8858 8.39002Z"/>
<path d="M56.9545 7.07049C56.9636 6.57876 57.1181 6.10072 57.3985 5.69667C57.6789 5.29262 58.0727 4.98065 58.5302 4.8001C58.9877 4.61955 59.4884 4.5785 59.9691 4.68214C60.4499 4.78578 60.8892 5.02945 61.2317 5.38244C61.5742 5.73543 61.8045 6.18193 61.8935 6.66562C61.9825 7.14931 61.9264 7.64854 61.7321 8.10035C61.5377 8.55215 61.214 8.93631 60.8017 9.20436C60.3893 9.47242 59.9068 9.61238 59.415 9.60658C59.0842 9.61128 58.7558 9.54831 58.4502 9.42154C58.1446 9.29477 57.868 9.10687 57.6376 8.86938C57.4072 8.63189 57.2278 8.34982 57.1103 8.04048C56.9929 7.73114 56.9398 7.40106 56.9545 7.07049Z" />
<path d="M68.0266 7.09574C68.0306 7.5868 67.8892 8.06807 67.6202 8.47891C67.3512 8.88974 66.9666 9.21179 66.5149 9.40446C66.0632 9.59713 65.5646 9.65182 65.0819 9.56164C64.5991 9.47146 64.1539 9.24043 63.8022 8.89767C63.4505 8.55491 63.2082 8.11574 63.1056 7.63549C63.0031 7.15523 63.045 6.65537 63.226 6.19887C63.407 5.74238 63.7191 5.34965 64.1229 5.07018C64.5267 4.79071 65.0041 4.637 65.4951 4.62839C65.8261 4.61361 66.1565 4.66683 66.4661 4.78476C66.7757 4.90269 67.0578 5.08283 67.295 5.31405C67.5323 5.54527 67.7196 5.82266 67.8454 6.12911C67.9712 6.43555 68.0329 6.76453 68.0266 7.09574Z" />
</svg>
