<svg width="33" height="32" viewBox="0 0 33 32" fill="none" xmlns="http://www.w3.org/2000/svg">
<rect x="0.234314" width="32" height="32" rx="16" fill="#1D9BF0"/>
<path d="M13.3063 24.4402C20.4023 24.4402 24.2823 18.5602 24.2823 13.4642C24.2823 13.2962 24.2823 13.1282 24.2743 12.9682C25.0263 12.4242 25.6823 11.7442 26.2023 10.9682C25.5143 11.2722 24.7703 11.4802 23.9863 11.5762C24.7863 11.0962 25.3943 10.3442 25.6823 9.44016C24.9383 9.88016 24.1143 10.2002 23.2343 10.3762C22.5303 9.62416 21.5303 9.16016 20.4183 9.16016C18.2903 9.16016 16.5623 10.8882 16.5623 13.0162C16.5623 13.3202 16.5943 13.6162 16.6663 13.8962C13.4583 13.7362 10.6183 12.2002 8.71434 9.86416C8.38634 10.4322 8.19434 11.0962 8.19434 11.8002C8.19434 13.1362 8.87434 14.3202 9.91434 15.0082C9.28234 14.9922 8.69034 14.8162 8.17034 14.5282C8.17034 14.5442 8.17034 14.5602 8.17034 14.5762C8.17034 16.4482 9.49834 18.0002 11.2663 18.3602C10.9463 18.4482 10.6023 18.4962 10.2503 18.4962C10.0023 18.4962 9.76234 18.4722 9.52234 18.4242C10.0103 19.9602 11.4343 21.0722 13.1223 21.1042C11.8023 22.1362 10.1383 22.7522 8.33034 22.7522C8.01834 22.7522 7.71434 22.7362 7.41034 22.6962C9.09834 23.8002 11.1303 24.4402 13.3063 24.4402Z" fill="white"/>
</svg>
